G04 #@! TF.GenerationSoftware,KiCad,Pcbnew,(5.0.2)-1*
G04 #@! TF.CreationDate,2019-08-11T23:26:23-04:00*
G04 #@! TF.ProjectId,LTC3265,4c544333-3236-4352-9e6b-696361645f70,rev?*
G04 #@! TF.SameCoordinates,Original*
G04 #@! TF.FileFunction,Soldermask,Bot*
G04 #@! TF.FilePolarity,Negative*
%FSLAX46Y46*%
G04 Gerber Fmt 4.6, Leading zero omitted, Abs format (unit mm)*
G04 Created by KiCad (PCBNEW (5.0.2)-1) date 8/11/2019 11:26:23 PM*
%MOMM*%
%LPD*%
G01*
G04 APERTURE LIST*
%ADD10C,0.100000*%
G04 APERTURE END LIST*
D10*
G36*
X109629189Y-86333706D02*
X109772540Y-86347825D01*
X110017780Y-86422218D01*
X110017782Y-86422219D01*
X110243796Y-86543026D01*
X110441897Y-86705603D01*
X110604474Y-86903704D01*
X110604475Y-86903706D01*
X110725282Y-87129720D01*
X110799675Y-87374960D01*
X110824794Y-87630000D01*
X110799675Y-87885040D01*
X110725282Y-88130280D01*
X110725281Y-88130282D01*
X110604474Y-88356296D01*
X110441897Y-88554397D01*
X110243796Y-88716974D01*
X110243794Y-88716975D01*
X110017780Y-88837782D01*
X109772540Y-88912175D01*
X109629189Y-88926294D01*
X109581406Y-88931000D01*
X106953594Y-88931000D01*
X106905811Y-88926294D01*
X106762460Y-88912175D01*
X106517220Y-88837782D01*
X106291206Y-88716975D01*
X106291204Y-88716974D01*
X106093103Y-88554397D01*
X105930526Y-88356296D01*
X105809719Y-88130282D01*
X105809718Y-88130280D01*
X105735325Y-87885040D01*
X105710206Y-87630000D01*
X105735325Y-87374960D01*
X105809718Y-87129720D01*
X105930525Y-86903706D01*
X105930526Y-86903704D01*
X106093103Y-86705603D01*
X106291204Y-86543026D01*
X106517218Y-86422219D01*
X106517220Y-86422218D01*
X106762460Y-86347825D01*
X106905811Y-86333706D01*
X106953594Y-86329000D01*
X109581406Y-86329000D01*
X109629189Y-86333706D01*
X109629189Y-86333706D01*
G37*
G36*
X109623036Y-80471016D02*
X109844713Y-80538261D01*
X110049012Y-80647461D01*
X110228081Y-80794419D01*
X110375039Y-80973488D01*
X110484239Y-81177787D01*
X110551484Y-81399464D01*
X110574190Y-81630000D01*
X110551484Y-81860536D01*
X110484239Y-82082213D01*
X110375039Y-82286512D01*
X110228081Y-82465581D01*
X110049012Y-82612539D01*
X109844713Y-82721739D01*
X109623036Y-82788984D01*
X109450271Y-82806000D01*
X107084729Y-82806000D01*
X106911964Y-82788984D01*
X106690287Y-82721739D01*
X106485988Y-82612539D01*
X106306919Y-82465581D01*
X106159961Y-82286512D01*
X106050761Y-82082213D01*
X105983516Y-81860536D01*
X105960810Y-81630000D01*
X105983516Y-81399464D01*
X106050761Y-81177787D01*
X106159961Y-80973488D01*
X106306919Y-80794419D01*
X106485988Y-80647461D01*
X106690287Y-80538261D01*
X106911964Y-80471016D01*
X107084729Y-80454000D01*
X109450271Y-80454000D01*
X109623036Y-80471016D01*
X109623036Y-80471016D01*
G37*
G36*
X128853500Y-72148000D02*
X127051500Y-72148000D01*
X127051500Y-70346000D01*
X128853500Y-70346000D01*
X128853500Y-72148000D01*
X128853500Y-72148000D01*
G37*
G36*
X125522943Y-70352519D02*
X125589127Y-70359037D01*
X125702353Y-70393384D01*
X125758967Y-70410557D01*
X125897587Y-70484652D01*
X125915491Y-70494222D01*
X125951229Y-70523552D01*
X126052686Y-70606814D01*
X126135948Y-70708271D01*
X126165278Y-70744009D01*
X126165279Y-70744011D01*
X126248943Y-70900533D01*
X126248943Y-70900534D01*
X126300463Y-71070373D01*
X126317859Y-71247000D01*
X126300463Y-71423627D01*
X126266116Y-71536853D01*
X126248943Y-71593467D01*
X126174848Y-71732087D01*
X126165278Y-71749991D01*
X126135948Y-71785729D01*
X126052686Y-71887186D01*
X125951229Y-71970448D01*
X125915491Y-71999778D01*
X125915489Y-71999779D01*
X125758967Y-72083443D01*
X125702353Y-72100616D01*
X125589127Y-72134963D01*
X125522943Y-72141481D01*
X125456760Y-72148000D01*
X125368240Y-72148000D01*
X125302057Y-72141481D01*
X125235873Y-72134963D01*
X125122647Y-72100616D01*
X125066033Y-72083443D01*
X124909511Y-71999779D01*
X124909509Y-71999778D01*
X124873771Y-71970448D01*
X124772314Y-71887186D01*
X124689052Y-71785729D01*
X124659722Y-71749991D01*
X124650152Y-71732087D01*
X124576057Y-71593467D01*
X124558884Y-71536853D01*
X124524537Y-71423627D01*
X124507141Y-71247000D01*
X124524537Y-71070373D01*
X124576057Y-70900534D01*
X124576057Y-70900533D01*
X124659721Y-70744011D01*
X124659722Y-70744009D01*
X124689052Y-70708271D01*
X124772314Y-70606814D01*
X124873771Y-70523552D01*
X124909509Y-70494222D01*
X124927413Y-70484652D01*
X125066033Y-70410557D01*
X125122647Y-70393384D01*
X125235873Y-70359037D01*
X125302057Y-70352519D01*
X125368240Y-70346000D01*
X125456760Y-70346000D01*
X125522943Y-70352519D01*
X125522943Y-70352519D01*
G37*
G36*
X122982943Y-70352519D02*
X123049127Y-70359037D01*
X123162353Y-70393384D01*
X123218967Y-70410557D01*
X123357587Y-70484652D01*
X123375491Y-70494222D01*
X123411229Y-70523552D01*
X123512686Y-70606814D01*
X123595948Y-70708271D01*
X123625278Y-70744009D01*
X123625279Y-70744011D01*
X123708943Y-70900533D01*
X123708943Y-70900534D01*
X123760463Y-71070373D01*
X123777859Y-71247000D01*
X123760463Y-71423627D01*
X123726116Y-71536853D01*
X123708943Y-71593467D01*
X123634848Y-71732087D01*
X123625278Y-71749991D01*
X123595948Y-71785729D01*
X123512686Y-71887186D01*
X123411229Y-71970448D01*
X123375491Y-71999778D01*
X123375489Y-71999779D01*
X123218967Y-72083443D01*
X123162353Y-72100616D01*
X123049127Y-72134963D01*
X122982943Y-72141481D01*
X122916760Y-72148000D01*
X122828240Y-72148000D01*
X122762057Y-72141481D01*
X122695873Y-72134963D01*
X122582647Y-72100616D01*
X122526033Y-72083443D01*
X122369511Y-71999779D01*
X122369509Y-71999778D01*
X122333771Y-71970448D01*
X122232314Y-71887186D01*
X122149052Y-71785729D01*
X122119722Y-71749991D01*
X122110152Y-71732087D01*
X122036057Y-71593467D01*
X122018884Y-71536853D01*
X121984537Y-71423627D01*
X121967141Y-71247000D01*
X121984537Y-71070373D01*
X122036057Y-70900534D01*
X122036057Y-70900533D01*
X122119721Y-70744011D01*
X122119722Y-70744009D01*
X122149052Y-70708271D01*
X122232314Y-70606814D01*
X122333771Y-70523552D01*
X122369509Y-70494222D01*
X122387413Y-70484652D01*
X122526033Y-70410557D01*
X122582647Y-70393384D01*
X122695873Y-70359037D01*
X122762057Y-70352519D01*
X122828240Y-70346000D01*
X122916760Y-70346000D01*
X122982943Y-70352519D01*
X122982943Y-70352519D01*
G37*
M02*
