G04 #@! TF.GenerationSoftware,KiCad,Pcbnew,(5.0.2)-1*
G04 #@! TF.CreationDate,2019-08-11T23:26:23-04:00*
G04 #@! TF.ProjectId,LTC3265,4c544333-3236-4352-9e6b-696361645f70,rev?*
G04 #@! TF.SameCoordinates,Original*
G04 #@! TF.FileFunction,Soldermask,Top*
G04 #@! TF.FilePolarity,Negative*
%FSLAX46Y46*%
G04 Gerber Fmt 4.6, Leading zero omitted, Abs format (unit mm)*
G04 Created by KiCad (PCBNEW (5.0.2)-1) date 8/11/2019 11:26:23 PM*
%MOMM*%
%LPD*%
G01*
G04 APERTURE LIST*
%ADD10C,0.100000*%
G04 APERTURE END LIST*
D10*
G36*
X121440177Y-89804465D02*
X121477864Y-89815898D01*
X121512603Y-89834466D01*
X121543048Y-89859452D01*
X121568034Y-89889897D01*
X121586602Y-89924636D01*
X121598035Y-89962323D01*
X121602500Y-90007661D01*
X121602500Y-91094339D01*
X121598035Y-91139677D01*
X121586602Y-91177364D01*
X121568034Y-91212103D01*
X121543048Y-91242548D01*
X121512603Y-91267534D01*
X121477864Y-91286102D01*
X121440177Y-91297535D01*
X121394839Y-91302000D01*
X120558161Y-91302000D01*
X120512823Y-91297535D01*
X120475136Y-91286102D01*
X120440397Y-91267534D01*
X120409952Y-91242548D01*
X120384966Y-91212103D01*
X120366398Y-91177364D01*
X120354965Y-91139677D01*
X120350500Y-91094339D01*
X120350500Y-90007661D01*
X120354965Y-89962323D01*
X120366398Y-89924636D01*
X120384966Y-89889897D01*
X120409952Y-89859452D01*
X120440397Y-89834466D01*
X120475136Y-89815898D01*
X120512823Y-89804465D01*
X120558161Y-89800000D01*
X121394839Y-89800000D01*
X121440177Y-89804465D01*
X121440177Y-89804465D01*
G37*
G36*
X119390177Y-89804465D02*
X119427864Y-89815898D01*
X119462603Y-89834466D01*
X119493048Y-89859452D01*
X119518034Y-89889897D01*
X119536602Y-89924636D01*
X119548035Y-89962323D01*
X119552500Y-90007661D01*
X119552500Y-91094339D01*
X119548035Y-91139677D01*
X119536602Y-91177364D01*
X119518034Y-91212103D01*
X119493048Y-91242548D01*
X119462603Y-91267534D01*
X119427864Y-91286102D01*
X119390177Y-91297535D01*
X119344839Y-91302000D01*
X118508161Y-91302000D01*
X118462823Y-91297535D01*
X118425136Y-91286102D01*
X118390397Y-91267534D01*
X118359952Y-91242548D01*
X118334966Y-91212103D01*
X118316398Y-91177364D01*
X118304965Y-91139677D01*
X118300500Y-91094339D01*
X118300500Y-90007661D01*
X118304965Y-89962323D01*
X118316398Y-89924636D01*
X118334966Y-89889897D01*
X118359952Y-89859452D01*
X118390397Y-89834466D01*
X118425136Y-89815898D01*
X118462823Y-89804465D01*
X118508161Y-89800000D01*
X119344839Y-89800000D01*
X119390177Y-89804465D01*
X119390177Y-89804465D01*
G37*
G36*
X109629189Y-86333706D02*
X109772540Y-86347825D01*
X110017780Y-86422218D01*
X110017782Y-86422219D01*
X110243796Y-86543026D01*
X110441897Y-86705603D01*
X110604474Y-86903704D01*
X110604475Y-86903706D01*
X110725282Y-87129720D01*
X110799675Y-87374960D01*
X110824794Y-87630000D01*
X110799675Y-87885040D01*
X110789017Y-87920173D01*
X110725281Y-88130282D01*
X110604474Y-88356296D01*
X110441897Y-88554397D01*
X110243796Y-88716974D01*
X110243794Y-88716975D01*
X110017780Y-88837782D01*
X109772540Y-88912175D01*
X109629189Y-88926294D01*
X109581406Y-88931000D01*
X106953594Y-88931000D01*
X106905811Y-88926294D01*
X106762460Y-88912175D01*
X106517220Y-88837782D01*
X106291206Y-88716975D01*
X106291204Y-88716974D01*
X106093103Y-88554397D01*
X105930526Y-88356296D01*
X105809719Y-88130282D01*
X105745983Y-87920173D01*
X105735325Y-87885040D01*
X105710206Y-87630000D01*
X105735325Y-87374960D01*
X105809718Y-87129720D01*
X105930525Y-86903706D01*
X105930526Y-86903704D01*
X106093103Y-86705603D01*
X106291204Y-86543026D01*
X106517218Y-86422219D01*
X106517220Y-86422218D01*
X106762460Y-86347825D01*
X106905811Y-86333706D01*
X106953594Y-86329000D01*
X109581406Y-86329000D01*
X109629189Y-86333706D01*
X109629189Y-86333706D01*
G37*
G36*
X121429177Y-87652465D02*
X121466864Y-87663898D01*
X121501603Y-87682466D01*
X121532048Y-87707452D01*
X121557034Y-87737897D01*
X121575602Y-87772636D01*
X121587035Y-87810323D01*
X121591500Y-87855661D01*
X121591500Y-88692339D01*
X121587035Y-88737677D01*
X121575602Y-88775364D01*
X121557034Y-88810103D01*
X121532048Y-88840548D01*
X121501603Y-88865534D01*
X121466864Y-88884102D01*
X121429177Y-88895535D01*
X121383839Y-88900000D01*
X120297161Y-88900000D01*
X120251823Y-88895535D01*
X120214136Y-88884102D01*
X120179397Y-88865534D01*
X120148952Y-88840548D01*
X120123966Y-88810103D01*
X120105398Y-88775364D01*
X120093965Y-88737677D01*
X120089500Y-88692339D01*
X120089500Y-87855661D01*
X120093965Y-87810323D01*
X120105398Y-87772636D01*
X120123966Y-87737897D01*
X120148952Y-87707452D01*
X120179397Y-87682466D01*
X120214136Y-87663898D01*
X120251823Y-87652465D01*
X120297161Y-87648000D01*
X121383839Y-87648000D01*
X121429177Y-87652465D01*
X121429177Y-87652465D01*
G37*
G36*
X118889177Y-87652465D02*
X118926864Y-87663898D01*
X118961603Y-87682466D01*
X118992048Y-87707452D01*
X119017034Y-87737897D01*
X119035602Y-87772636D01*
X119047035Y-87810323D01*
X119051500Y-87855661D01*
X119051500Y-88692339D01*
X119047035Y-88737677D01*
X119035602Y-88775364D01*
X119017034Y-88810103D01*
X118992048Y-88840548D01*
X118961603Y-88865534D01*
X118926864Y-88884102D01*
X118889177Y-88895535D01*
X118843839Y-88900000D01*
X117757161Y-88900000D01*
X117711823Y-88895535D01*
X117674136Y-88884102D01*
X117639397Y-88865534D01*
X117608952Y-88840548D01*
X117583966Y-88810103D01*
X117565398Y-88775364D01*
X117553965Y-88737677D01*
X117549500Y-88692339D01*
X117549500Y-87855661D01*
X117553965Y-87810323D01*
X117565398Y-87772636D01*
X117583966Y-87737897D01*
X117608952Y-87707452D01*
X117639397Y-87682466D01*
X117674136Y-87663898D01*
X117711823Y-87652465D01*
X117757161Y-87648000D01*
X118843839Y-87648000D01*
X118889177Y-87652465D01*
X118889177Y-87652465D01*
G37*
G36*
X116285677Y-87652465D02*
X116323364Y-87663898D01*
X116358103Y-87682466D01*
X116388548Y-87707452D01*
X116413534Y-87737897D01*
X116432102Y-87772636D01*
X116443535Y-87810323D01*
X116448000Y-87855661D01*
X116448000Y-88692339D01*
X116443535Y-88737677D01*
X116432102Y-88775364D01*
X116413534Y-88810103D01*
X116388548Y-88840548D01*
X116358103Y-88865534D01*
X116323364Y-88884102D01*
X116285677Y-88895535D01*
X116240339Y-88900000D01*
X115153661Y-88900000D01*
X115108323Y-88895535D01*
X115070636Y-88884102D01*
X115035897Y-88865534D01*
X115005452Y-88840548D01*
X114980466Y-88810103D01*
X114961898Y-88775364D01*
X114950465Y-88737677D01*
X114946000Y-88692339D01*
X114946000Y-87855661D01*
X114950465Y-87810323D01*
X114961898Y-87772636D01*
X114980466Y-87737897D01*
X115005452Y-87707452D01*
X115035897Y-87682466D01*
X115070636Y-87663898D01*
X115108323Y-87652465D01*
X115153661Y-87648000D01*
X116240339Y-87648000D01*
X116285677Y-87652465D01*
X116285677Y-87652465D01*
G37*
G36*
X126329677Y-87264465D02*
X126367364Y-87275898D01*
X126402103Y-87294466D01*
X126432548Y-87319452D01*
X126457534Y-87349897D01*
X126476102Y-87384636D01*
X126487535Y-87422323D01*
X126492000Y-87467661D01*
X126492000Y-88554339D01*
X126487535Y-88599677D01*
X126476102Y-88637364D01*
X126457534Y-88672103D01*
X126432548Y-88702548D01*
X126402103Y-88727534D01*
X126367364Y-88746102D01*
X126329677Y-88757535D01*
X126284339Y-88762000D01*
X125447661Y-88762000D01*
X125402323Y-88757535D01*
X125364636Y-88746102D01*
X125329897Y-88727534D01*
X125299452Y-88702548D01*
X125274466Y-88672103D01*
X125255898Y-88637364D01*
X125244465Y-88599677D01*
X125240000Y-88554339D01*
X125240000Y-87467661D01*
X125244465Y-87422323D01*
X125255898Y-87384636D01*
X125274466Y-87349897D01*
X125299452Y-87319452D01*
X125329897Y-87294466D01*
X125364636Y-87275898D01*
X125402323Y-87264465D01*
X125447661Y-87260000D01*
X126284339Y-87260000D01*
X126329677Y-87264465D01*
X126329677Y-87264465D01*
G37*
G36*
X124279677Y-87264465D02*
X124317364Y-87275898D01*
X124352103Y-87294466D01*
X124382548Y-87319452D01*
X124407534Y-87349897D01*
X124426102Y-87384636D01*
X124437535Y-87422323D01*
X124442000Y-87467661D01*
X124442000Y-88554339D01*
X124437535Y-88599677D01*
X124426102Y-88637364D01*
X124407534Y-88672103D01*
X124382548Y-88702548D01*
X124352103Y-88727534D01*
X124317364Y-88746102D01*
X124279677Y-88757535D01*
X124234339Y-88762000D01*
X123397661Y-88762000D01*
X123352323Y-88757535D01*
X123314636Y-88746102D01*
X123279897Y-88727534D01*
X123249452Y-88702548D01*
X123224466Y-88672103D01*
X123205898Y-88637364D01*
X123194465Y-88599677D01*
X123190000Y-88554339D01*
X123190000Y-87467661D01*
X123194465Y-87422323D01*
X123205898Y-87384636D01*
X123224466Y-87349897D01*
X123249452Y-87319452D01*
X123279897Y-87294466D01*
X123314636Y-87275898D01*
X123352323Y-87264465D01*
X123397661Y-87260000D01*
X124234339Y-87260000D01*
X124279677Y-87264465D01*
X124279677Y-87264465D01*
G37*
G36*
X130647677Y-87264465D02*
X130685364Y-87275898D01*
X130720103Y-87294466D01*
X130750548Y-87319452D01*
X130775534Y-87349897D01*
X130794102Y-87384636D01*
X130805535Y-87422323D01*
X130810000Y-87467661D01*
X130810000Y-88554339D01*
X130805535Y-88599677D01*
X130794102Y-88637364D01*
X130775534Y-88672103D01*
X130750548Y-88702548D01*
X130720103Y-88727534D01*
X130685364Y-88746102D01*
X130647677Y-88757535D01*
X130602339Y-88762000D01*
X129765661Y-88762000D01*
X129720323Y-88757535D01*
X129682636Y-88746102D01*
X129647897Y-88727534D01*
X129617452Y-88702548D01*
X129592466Y-88672103D01*
X129573898Y-88637364D01*
X129562465Y-88599677D01*
X129558000Y-88554339D01*
X129558000Y-87467661D01*
X129562465Y-87422323D01*
X129573898Y-87384636D01*
X129592466Y-87349897D01*
X129617452Y-87319452D01*
X129647897Y-87294466D01*
X129682636Y-87275898D01*
X129720323Y-87264465D01*
X129765661Y-87260000D01*
X130602339Y-87260000D01*
X130647677Y-87264465D01*
X130647677Y-87264465D01*
G37*
G36*
X128597677Y-87264465D02*
X128635364Y-87275898D01*
X128670103Y-87294466D01*
X128700548Y-87319452D01*
X128725534Y-87349897D01*
X128744102Y-87384636D01*
X128755535Y-87422323D01*
X128760000Y-87467661D01*
X128760000Y-88554339D01*
X128755535Y-88599677D01*
X128744102Y-88637364D01*
X128725534Y-88672103D01*
X128700548Y-88702548D01*
X128670103Y-88727534D01*
X128635364Y-88746102D01*
X128597677Y-88757535D01*
X128552339Y-88762000D01*
X127715661Y-88762000D01*
X127670323Y-88757535D01*
X127632636Y-88746102D01*
X127597897Y-88727534D01*
X127567452Y-88702548D01*
X127542466Y-88672103D01*
X127523898Y-88637364D01*
X127512465Y-88599677D01*
X127508000Y-88554339D01*
X127508000Y-87467661D01*
X127512465Y-87422323D01*
X127523898Y-87384636D01*
X127542466Y-87349897D01*
X127567452Y-87319452D01*
X127597897Y-87294466D01*
X127632636Y-87275898D01*
X127670323Y-87264465D01*
X127715661Y-87260000D01*
X128552339Y-87260000D01*
X128597677Y-87264465D01*
X128597677Y-87264465D01*
G37*
G36*
X121429177Y-85602465D02*
X121466864Y-85613898D01*
X121501603Y-85632466D01*
X121532048Y-85657452D01*
X121557034Y-85687897D01*
X121575602Y-85722636D01*
X121587035Y-85760323D01*
X121591500Y-85805661D01*
X121591500Y-86642339D01*
X121587035Y-86687677D01*
X121575602Y-86725364D01*
X121557034Y-86760103D01*
X121532048Y-86790548D01*
X121501603Y-86815534D01*
X121466864Y-86834102D01*
X121429177Y-86845535D01*
X121383839Y-86850000D01*
X120297161Y-86850000D01*
X120251823Y-86845535D01*
X120214136Y-86834102D01*
X120179397Y-86815534D01*
X120148952Y-86790548D01*
X120123966Y-86760103D01*
X120105398Y-86725364D01*
X120093965Y-86687677D01*
X120089500Y-86642339D01*
X120089500Y-85805661D01*
X120093965Y-85760323D01*
X120105398Y-85722636D01*
X120123966Y-85687897D01*
X120148952Y-85657452D01*
X120179397Y-85632466D01*
X120214136Y-85613898D01*
X120251823Y-85602465D01*
X120297161Y-85598000D01*
X121383839Y-85598000D01*
X121429177Y-85602465D01*
X121429177Y-85602465D01*
G37*
G36*
X118889177Y-85602465D02*
X118926864Y-85613898D01*
X118961603Y-85632466D01*
X118992048Y-85657452D01*
X119017034Y-85687897D01*
X119035602Y-85722636D01*
X119047035Y-85760323D01*
X119051500Y-85805661D01*
X119051500Y-86642339D01*
X119047035Y-86687677D01*
X119035602Y-86725364D01*
X119017034Y-86760103D01*
X118992048Y-86790548D01*
X118961603Y-86815534D01*
X118926864Y-86834102D01*
X118889177Y-86845535D01*
X118843839Y-86850000D01*
X117757161Y-86850000D01*
X117711823Y-86845535D01*
X117674136Y-86834102D01*
X117639397Y-86815534D01*
X117608952Y-86790548D01*
X117583966Y-86760103D01*
X117565398Y-86725364D01*
X117553965Y-86687677D01*
X117549500Y-86642339D01*
X117549500Y-85805661D01*
X117553965Y-85760323D01*
X117565398Y-85722636D01*
X117583966Y-85687897D01*
X117608952Y-85657452D01*
X117639397Y-85632466D01*
X117674136Y-85613898D01*
X117711823Y-85602465D01*
X117757161Y-85598000D01*
X118843839Y-85598000D01*
X118889177Y-85602465D01*
X118889177Y-85602465D01*
G37*
G36*
X116285677Y-85602465D02*
X116323364Y-85613898D01*
X116358103Y-85632466D01*
X116388548Y-85657452D01*
X116413534Y-85687897D01*
X116432102Y-85722636D01*
X116443535Y-85760323D01*
X116448000Y-85805661D01*
X116448000Y-86642339D01*
X116443535Y-86687677D01*
X116432102Y-86725364D01*
X116413534Y-86760103D01*
X116388548Y-86790548D01*
X116358103Y-86815534D01*
X116323364Y-86834102D01*
X116285677Y-86845535D01*
X116240339Y-86850000D01*
X115153661Y-86850000D01*
X115108323Y-86845535D01*
X115070636Y-86834102D01*
X115035897Y-86815534D01*
X115005452Y-86790548D01*
X114980466Y-86760103D01*
X114961898Y-86725364D01*
X114950465Y-86687677D01*
X114946000Y-86642339D01*
X114946000Y-85805661D01*
X114950465Y-85760323D01*
X114961898Y-85722636D01*
X114980466Y-85687897D01*
X115005452Y-85657452D01*
X115035897Y-85632466D01*
X115070636Y-85613898D01*
X115108323Y-85602465D01*
X115153661Y-85598000D01*
X116240339Y-85598000D01*
X116285677Y-85602465D01*
X116285677Y-85602465D01*
G37*
G36*
X128551000Y-85851000D02*
X125449000Y-85851000D01*
X125449000Y-79249000D01*
X128551000Y-79249000D01*
X128551000Y-85851000D01*
X128551000Y-85851000D01*
G37*
G36*
X130726000Y-85746000D02*
X129174000Y-85746000D01*
X129174000Y-79354000D01*
X130726000Y-79354000D01*
X130726000Y-85746000D01*
X130726000Y-85746000D01*
G37*
G36*
X124826000Y-85746000D02*
X123274000Y-85746000D01*
X123274000Y-79354000D01*
X124826000Y-79354000D01*
X124826000Y-85746000D01*
X124826000Y-85746000D01*
G37*
G36*
X118818677Y-82755965D02*
X118856364Y-82767398D01*
X118891103Y-82785966D01*
X118921548Y-82810952D01*
X118946534Y-82841397D01*
X118965102Y-82876136D01*
X118976535Y-82913823D01*
X118981000Y-82959161D01*
X118981000Y-84045839D01*
X118976535Y-84091177D01*
X118965102Y-84128864D01*
X118946534Y-84163603D01*
X118921548Y-84194048D01*
X118891103Y-84219034D01*
X118856364Y-84237602D01*
X118818677Y-84249035D01*
X118773339Y-84253500D01*
X117936661Y-84253500D01*
X117891323Y-84249035D01*
X117853636Y-84237602D01*
X117818897Y-84219034D01*
X117788452Y-84194048D01*
X117763466Y-84163603D01*
X117744898Y-84128864D01*
X117733465Y-84091177D01*
X117729000Y-84045839D01*
X117729000Y-82959161D01*
X117733465Y-82913823D01*
X117744898Y-82876136D01*
X117763466Y-82841397D01*
X117788452Y-82810952D01*
X117818897Y-82785966D01*
X117853636Y-82767398D01*
X117891323Y-82755965D01*
X117936661Y-82751500D01*
X118773339Y-82751500D01*
X118818677Y-82755965D01*
X118818677Y-82755965D01*
G37*
G36*
X120868677Y-82755965D02*
X120906364Y-82767398D01*
X120941103Y-82785966D01*
X120971548Y-82810952D01*
X120996534Y-82841397D01*
X121015102Y-82876136D01*
X121026535Y-82913823D01*
X121031000Y-82959161D01*
X121031000Y-84045839D01*
X121026535Y-84091177D01*
X121015102Y-84128864D01*
X120996534Y-84163603D01*
X120971548Y-84194048D01*
X120941103Y-84219034D01*
X120906364Y-84237602D01*
X120868677Y-84249035D01*
X120823339Y-84253500D01*
X119986661Y-84253500D01*
X119941323Y-84249035D01*
X119903636Y-84237602D01*
X119868897Y-84219034D01*
X119838452Y-84194048D01*
X119813466Y-84163603D01*
X119794898Y-84128864D01*
X119783465Y-84091177D01*
X119779000Y-84045839D01*
X119779000Y-82959161D01*
X119783465Y-82913823D01*
X119794898Y-82876136D01*
X119813466Y-82841397D01*
X119838452Y-82810952D01*
X119868897Y-82785966D01*
X119903636Y-82767398D01*
X119941323Y-82755965D01*
X119986661Y-82751500D01*
X120823339Y-82751500D01*
X120868677Y-82755965D01*
X120868677Y-82755965D01*
G37*
G36*
X116412677Y-82191465D02*
X116450364Y-82202898D01*
X116485103Y-82221466D01*
X116515548Y-82246452D01*
X116540534Y-82276897D01*
X116559102Y-82311636D01*
X116570535Y-82349323D01*
X116575000Y-82394661D01*
X116575000Y-83231339D01*
X116570535Y-83276677D01*
X116559102Y-83314364D01*
X116540534Y-83349103D01*
X116515548Y-83379548D01*
X116485103Y-83404534D01*
X116450364Y-83423102D01*
X116412677Y-83434535D01*
X116367339Y-83439000D01*
X115280661Y-83439000D01*
X115235323Y-83434535D01*
X115197636Y-83423102D01*
X115162897Y-83404534D01*
X115132452Y-83379548D01*
X115107466Y-83349103D01*
X115088898Y-83314364D01*
X115077465Y-83276677D01*
X115073000Y-83231339D01*
X115073000Y-82394661D01*
X115077465Y-82349323D01*
X115088898Y-82311636D01*
X115107466Y-82276897D01*
X115132452Y-82246452D01*
X115162897Y-82221466D01*
X115197636Y-82202898D01*
X115235323Y-82191465D01*
X115280661Y-82187000D01*
X116367339Y-82187000D01*
X116412677Y-82191465D01*
X116412677Y-82191465D01*
G37*
G36*
X134058677Y-81447865D02*
X134096364Y-81459298D01*
X134131103Y-81477866D01*
X134161548Y-81502852D01*
X134186534Y-81533297D01*
X134205102Y-81568036D01*
X134216535Y-81605723D01*
X134221000Y-81651061D01*
X134221000Y-82737739D01*
X134216535Y-82783077D01*
X134205102Y-82820764D01*
X134186534Y-82855503D01*
X134161548Y-82885948D01*
X134131103Y-82910934D01*
X134096364Y-82929502D01*
X134058677Y-82940935D01*
X134013339Y-82945400D01*
X133176661Y-82945400D01*
X133131323Y-82940935D01*
X133093636Y-82929502D01*
X133058897Y-82910934D01*
X133028452Y-82885948D01*
X133003466Y-82855503D01*
X132984898Y-82820764D01*
X132973465Y-82783077D01*
X132969000Y-82737739D01*
X132969000Y-81651061D01*
X132973465Y-81605723D01*
X132984898Y-81568036D01*
X133003466Y-81533297D01*
X133028452Y-81502852D01*
X133058897Y-81477866D01*
X133093636Y-81459298D01*
X133131323Y-81447865D01*
X133176661Y-81443400D01*
X134013339Y-81443400D01*
X134058677Y-81447865D01*
X134058677Y-81447865D01*
G37*
G36*
X136108677Y-81447865D02*
X136146364Y-81459298D01*
X136181103Y-81477866D01*
X136211548Y-81502852D01*
X136236534Y-81533297D01*
X136255102Y-81568036D01*
X136266535Y-81605723D01*
X136271000Y-81651061D01*
X136271000Y-82737739D01*
X136266535Y-82783077D01*
X136255102Y-82820764D01*
X136236534Y-82855503D01*
X136211548Y-82885948D01*
X136181103Y-82910934D01*
X136146364Y-82929502D01*
X136108677Y-82940935D01*
X136063339Y-82945400D01*
X135226661Y-82945400D01*
X135181323Y-82940935D01*
X135143636Y-82929502D01*
X135108897Y-82910934D01*
X135078452Y-82885948D01*
X135053466Y-82855503D01*
X135034898Y-82820764D01*
X135023465Y-82783077D01*
X135019000Y-82737739D01*
X135019000Y-81651061D01*
X135023465Y-81605723D01*
X135034898Y-81568036D01*
X135053466Y-81533297D01*
X135078452Y-81502852D01*
X135108897Y-81477866D01*
X135143636Y-81459298D01*
X135181323Y-81447865D01*
X135226661Y-81443400D01*
X136063339Y-81443400D01*
X136108677Y-81447865D01*
X136108677Y-81447865D01*
G37*
G36*
X109623036Y-80471016D02*
X109844713Y-80538261D01*
X110049012Y-80647461D01*
X110228081Y-80794419D01*
X110375039Y-80973488D01*
X110484239Y-81177787D01*
X110551484Y-81399464D01*
X110574190Y-81630000D01*
X110551484Y-81860536D01*
X110484239Y-82082213D01*
X110375039Y-82286512D01*
X110228081Y-82465581D01*
X110049012Y-82612539D01*
X109844713Y-82721739D01*
X109623036Y-82788984D01*
X109450271Y-82806000D01*
X107084729Y-82806000D01*
X106911964Y-82788984D01*
X106690287Y-82721739D01*
X106485988Y-82612539D01*
X106306919Y-82465581D01*
X106159961Y-82286512D01*
X106050761Y-82082213D01*
X105983516Y-81860536D01*
X105960810Y-81630000D01*
X105983516Y-81399464D01*
X106050761Y-81177787D01*
X106159961Y-80973488D01*
X106306919Y-80794419D01*
X106485988Y-80647461D01*
X106690287Y-80538261D01*
X106911964Y-80471016D01*
X107084729Y-80454000D01*
X109450271Y-80454000D01*
X109623036Y-80471016D01*
X109623036Y-80471016D01*
G37*
G36*
X120868677Y-80152465D02*
X120906364Y-80163898D01*
X120941103Y-80182466D01*
X120971548Y-80207452D01*
X120996534Y-80237897D01*
X121015102Y-80272636D01*
X121026535Y-80310323D01*
X121031000Y-80355661D01*
X121031000Y-81442339D01*
X121026535Y-81487677D01*
X121015102Y-81525364D01*
X120996534Y-81560103D01*
X120971548Y-81590548D01*
X120941103Y-81615534D01*
X120906364Y-81634102D01*
X120868677Y-81645535D01*
X120823339Y-81650000D01*
X119986661Y-81650000D01*
X119941323Y-81645535D01*
X119903636Y-81634102D01*
X119868897Y-81615534D01*
X119838452Y-81590548D01*
X119813466Y-81560103D01*
X119794898Y-81525364D01*
X119783465Y-81487677D01*
X119779000Y-81442339D01*
X119779000Y-80355661D01*
X119783465Y-80310323D01*
X119794898Y-80272636D01*
X119813466Y-80237897D01*
X119838452Y-80207452D01*
X119868897Y-80182466D01*
X119903636Y-80163898D01*
X119941323Y-80152465D01*
X119986661Y-80148000D01*
X120823339Y-80148000D01*
X120868677Y-80152465D01*
X120868677Y-80152465D01*
G37*
G36*
X118818677Y-80152465D02*
X118856364Y-80163898D01*
X118891103Y-80182466D01*
X118921548Y-80207452D01*
X118946534Y-80237897D01*
X118965102Y-80272636D01*
X118976535Y-80310323D01*
X118981000Y-80355661D01*
X118981000Y-81442339D01*
X118976535Y-81487677D01*
X118965102Y-81525364D01*
X118946534Y-81560103D01*
X118921548Y-81590548D01*
X118891103Y-81615534D01*
X118856364Y-81634102D01*
X118818677Y-81645535D01*
X118773339Y-81650000D01*
X117936661Y-81650000D01*
X117891323Y-81645535D01*
X117853636Y-81634102D01*
X117818897Y-81615534D01*
X117788452Y-81590548D01*
X117763466Y-81560103D01*
X117744898Y-81525364D01*
X117733465Y-81487677D01*
X117729000Y-81442339D01*
X117729000Y-80355661D01*
X117733465Y-80310323D01*
X117744898Y-80272636D01*
X117763466Y-80237897D01*
X117788452Y-80207452D01*
X117818897Y-80182466D01*
X117853636Y-80163898D01*
X117891323Y-80152465D01*
X117936661Y-80148000D01*
X118773339Y-80148000D01*
X118818677Y-80152465D01*
X118818677Y-80152465D01*
G37*
G36*
X116412677Y-80141465D02*
X116450364Y-80152898D01*
X116485103Y-80171466D01*
X116515548Y-80196452D01*
X116540534Y-80226897D01*
X116559102Y-80261636D01*
X116570535Y-80299323D01*
X116575000Y-80344661D01*
X116575000Y-81181339D01*
X116570535Y-81226677D01*
X116559102Y-81264364D01*
X116540534Y-81299103D01*
X116515548Y-81329548D01*
X116485103Y-81354534D01*
X116450364Y-81373102D01*
X116412677Y-81384535D01*
X116367339Y-81389000D01*
X115280661Y-81389000D01*
X115235323Y-81384535D01*
X115197636Y-81373102D01*
X115162897Y-81354534D01*
X115132452Y-81329548D01*
X115107466Y-81299103D01*
X115088898Y-81264364D01*
X115077465Y-81226677D01*
X115073000Y-81181339D01*
X115073000Y-80344661D01*
X115077465Y-80299323D01*
X115088898Y-80261636D01*
X115107466Y-80226897D01*
X115132452Y-80196452D01*
X115162897Y-80171466D01*
X115197636Y-80152898D01*
X115235323Y-80141465D01*
X115280661Y-80137000D01*
X116367339Y-80137000D01*
X116412677Y-80141465D01*
X116412677Y-80141465D01*
G37*
G36*
X134319677Y-79168865D02*
X134357364Y-79180298D01*
X134392103Y-79198866D01*
X134422548Y-79223852D01*
X134447534Y-79254297D01*
X134466102Y-79289036D01*
X134477535Y-79326723D01*
X134482000Y-79372061D01*
X134482000Y-80208739D01*
X134477535Y-80254077D01*
X134466102Y-80291764D01*
X134447534Y-80326503D01*
X134422548Y-80356948D01*
X134392103Y-80381934D01*
X134357364Y-80400502D01*
X134319677Y-80411935D01*
X134274339Y-80416400D01*
X133187661Y-80416400D01*
X133142323Y-80411935D01*
X133104636Y-80400502D01*
X133069897Y-80381934D01*
X133039452Y-80356948D01*
X133014466Y-80326503D01*
X132995898Y-80291764D01*
X132984465Y-80254077D01*
X132980000Y-80208739D01*
X132980000Y-79372061D01*
X132984465Y-79326723D01*
X132995898Y-79289036D01*
X133014466Y-79254297D01*
X133039452Y-79223852D01*
X133069897Y-79198866D01*
X133104636Y-79180298D01*
X133142323Y-79168865D01*
X133187661Y-79164400D01*
X134274339Y-79164400D01*
X134319677Y-79168865D01*
X134319677Y-79168865D01*
G37*
G36*
X136986677Y-79168865D02*
X137024364Y-79180298D01*
X137059103Y-79198866D01*
X137089548Y-79223852D01*
X137114534Y-79254297D01*
X137133102Y-79289036D01*
X137144535Y-79326723D01*
X137149000Y-79372061D01*
X137149000Y-80208739D01*
X137144535Y-80254077D01*
X137133102Y-80291764D01*
X137114534Y-80326503D01*
X137089548Y-80356948D01*
X137059103Y-80381934D01*
X137024364Y-80400502D01*
X136986677Y-80411935D01*
X136941339Y-80416400D01*
X135854661Y-80416400D01*
X135809323Y-80411935D01*
X135771636Y-80400502D01*
X135736897Y-80381934D01*
X135706452Y-80356948D01*
X135681466Y-80326503D01*
X135662898Y-80291764D01*
X135651465Y-80254077D01*
X135647000Y-80208739D01*
X135647000Y-79372061D01*
X135651465Y-79326723D01*
X135662898Y-79289036D01*
X135681466Y-79254297D01*
X135706452Y-79223852D01*
X135736897Y-79198866D01*
X135771636Y-79180298D01*
X135809323Y-79168865D01*
X135854661Y-79164400D01*
X136941339Y-79164400D01*
X136986677Y-79168865D01*
X136986677Y-79168865D01*
G37*
G36*
X139653677Y-79168865D02*
X139691364Y-79180298D01*
X139726103Y-79198866D01*
X139756548Y-79223852D01*
X139781534Y-79254297D01*
X139800102Y-79289036D01*
X139811535Y-79326723D01*
X139816000Y-79372061D01*
X139816000Y-80208739D01*
X139811535Y-80254077D01*
X139800102Y-80291764D01*
X139781534Y-80326503D01*
X139756548Y-80356948D01*
X139726103Y-80381934D01*
X139691364Y-80400502D01*
X139653677Y-80411935D01*
X139608339Y-80416400D01*
X138521661Y-80416400D01*
X138476323Y-80411935D01*
X138438636Y-80400502D01*
X138403897Y-80381934D01*
X138373452Y-80356948D01*
X138348466Y-80326503D01*
X138329898Y-80291764D01*
X138318465Y-80254077D01*
X138314000Y-80208739D01*
X138314000Y-79372061D01*
X138318465Y-79326723D01*
X138329898Y-79289036D01*
X138348466Y-79254297D01*
X138373452Y-79223852D01*
X138403897Y-79198866D01*
X138438636Y-79180298D01*
X138476323Y-79168865D01*
X138521661Y-79164400D01*
X139608339Y-79164400D01*
X139653677Y-79168865D01*
X139653677Y-79168865D01*
G37*
G36*
X136986677Y-77118865D02*
X137024364Y-77130298D01*
X137059103Y-77148866D01*
X137089548Y-77173852D01*
X137114534Y-77204297D01*
X137133102Y-77239036D01*
X137144535Y-77276723D01*
X137149000Y-77322061D01*
X137149000Y-78158739D01*
X137144535Y-78204077D01*
X137133102Y-78241764D01*
X137114534Y-78276503D01*
X137089548Y-78306948D01*
X137059103Y-78331934D01*
X137024364Y-78350502D01*
X136986677Y-78361935D01*
X136941339Y-78366400D01*
X135854661Y-78366400D01*
X135809323Y-78361935D01*
X135771636Y-78350502D01*
X135736897Y-78331934D01*
X135706452Y-78306948D01*
X135681466Y-78276503D01*
X135662898Y-78241764D01*
X135651465Y-78204077D01*
X135647000Y-78158739D01*
X135647000Y-77322061D01*
X135651465Y-77276723D01*
X135662898Y-77239036D01*
X135681466Y-77204297D01*
X135706452Y-77173852D01*
X135736897Y-77148866D01*
X135771636Y-77130298D01*
X135809323Y-77118865D01*
X135854661Y-77114400D01*
X136941339Y-77114400D01*
X136986677Y-77118865D01*
X136986677Y-77118865D01*
G37*
G36*
X139653677Y-77118865D02*
X139691364Y-77130298D01*
X139726103Y-77148866D01*
X139756548Y-77173852D01*
X139781534Y-77204297D01*
X139800102Y-77239036D01*
X139811535Y-77276723D01*
X139816000Y-77322061D01*
X139816000Y-78158739D01*
X139811535Y-78204077D01*
X139800102Y-78241764D01*
X139781534Y-78276503D01*
X139756548Y-78306948D01*
X139726103Y-78331934D01*
X139691364Y-78350502D01*
X139653677Y-78361935D01*
X139608339Y-78366400D01*
X138521661Y-78366400D01*
X138476323Y-78361935D01*
X138438636Y-78350502D01*
X138403897Y-78331934D01*
X138373452Y-78306948D01*
X138348466Y-78276503D01*
X138329898Y-78241764D01*
X138318465Y-78204077D01*
X138314000Y-78158739D01*
X138314000Y-77322061D01*
X138318465Y-77276723D01*
X138329898Y-77239036D01*
X138348466Y-77204297D01*
X138373452Y-77173852D01*
X138403897Y-77148866D01*
X138438636Y-77130298D01*
X138476323Y-77118865D01*
X138521661Y-77114400D01*
X139608339Y-77114400D01*
X139653677Y-77118865D01*
X139653677Y-77118865D01*
G37*
G36*
X134319677Y-77118865D02*
X134357364Y-77130298D01*
X134392103Y-77148866D01*
X134422548Y-77173852D01*
X134447534Y-77204297D01*
X134466102Y-77239036D01*
X134477535Y-77276723D01*
X134482000Y-77322061D01*
X134482000Y-78158739D01*
X134477535Y-78204077D01*
X134466102Y-78241764D01*
X134447534Y-78276503D01*
X134422548Y-78306948D01*
X134392103Y-78331934D01*
X134357364Y-78350502D01*
X134319677Y-78361935D01*
X134274339Y-78366400D01*
X133187661Y-78366400D01*
X133142323Y-78361935D01*
X133104636Y-78350502D01*
X133069897Y-78331934D01*
X133039452Y-78306948D01*
X133014466Y-78276503D01*
X132995898Y-78241764D01*
X132984465Y-78204077D01*
X132980000Y-78158739D01*
X132980000Y-77322061D01*
X132984465Y-77276723D01*
X132995898Y-77239036D01*
X133014466Y-77204297D01*
X133039452Y-77173852D01*
X133069897Y-77148866D01*
X133104636Y-77130298D01*
X133142323Y-77118865D01*
X133187661Y-77114400D01*
X134274339Y-77114400D01*
X134319677Y-77118865D01*
X134319677Y-77118865D01*
G37*
G36*
X124025677Y-76532965D02*
X124063364Y-76544398D01*
X124098103Y-76562966D01*
X124128548Y-76587952D01*
X124153534Y-76618397D01*
X124172102Y-76653136D01*
X124183535Y-76690823D01*
X124188000Y-76736161D01*
X124188000Y-77822839D01*
X124183535Y-77868177D01*
X124172102Y-77905864D01*
X124153534Y-77940603D01*
X124128548Y-77971048D01*
X124098103Y-77996034D01*
X124063364Y-78014602D01*
X124025677Y-78026035D01*
X123980339Y-78030500D01*
X123143661Y-78030500D01*
X123098323Y-78026035D01*
X123060636Y-78014602D01*
X123025897Y-77996034D01*
X122995452Y-77971048D01*
X122970466Y-77940603D01*
X122951898Y-77905864D01*
X122940465Y-77868177D01*
X122936000Y-77822839D01*
X122936000Y-76736161D01*
X122940465Y-76690823D01*
X122951898Y-76653136D01*
X122970466Y-76618397D01*
X122995452Y-76587952D01*
X123025897Y-76562966D01*
X123060636Y-76544398D01*
X123098323Y-76532965D01*
X123143661Y-76528500D01*
X123980339Y-76528500D01*
X124025677Y-76532965D01*
X124025677Y-76532965D01*
G37*
G36*
X130901677Y-76532965D02*
X130939364Y-76544398D01*
X130974103Y-76562966D01*
X131004548Y-76587952D01*
X131029534Y-76618397D01*
X131048102Y-76653136D01*
X131059535Y-76690823D01*
X131064000Y-76736161D01*
X131064000Y-77822839D01*
X131059535Y-77868177D01*
X131048102Y-77905864D01*
X131029534Y-77940603D01*
X131004548Y-77971048D01*
X130974103Y-77996034D01*
X130939364Y-78014602D01*
X130901677Y-78026035D01*
X130856339Y-78030500D01*
X130019661Y-78030500D01*
X129974323Y-78026035D01*
X129936636Y-78014602D01*
X129901897Y-77996034D01*
X129871452Y-77971048D01*
X129846466Y-77940603D01*
X129827898Y-77905864D01*
X129816465Y-77868177D01*
X129812000Y-77822839D01*
X129812000Y-76736161D01*
X129816465Y-76690823D01*
X129827898Y-76653136D01*
X129846466Y-76618397D01*
X129871452Y-76587952D01*
X129901897Y-76562966D01*
X129936636Y-76544398D01*
X129974323Y-76532965D01*
X130019661Y-76528500D01*
X130856339Y-76528500D01*
X130901677Y-76532965D01*
X130901677Y-76532965D01*
G37*
G36*
X126075677Y-76532965D02*
X126113364Y-76544398D01*
X126148103Y-76562966D01*
X126178548Y-76587952D01*
X126203534Y-76618397D01*
X126222102Y-76653136D01*
X126233535Y-76690823D01*
X126238000Y-76736161D01*
X126238000Y-77822839D01*
X126233535Y-77868177D01*
X126222102Y-77905864D01*
X126203534Y-77940603D01*
X126178548Y-77971048D01*
X126148103Y-77996034D01*
X126113364Y-78014602D01*
X126075677Y-78026035D01*
X126030339Y-78030500D01*
X125193661Y-78030500D01*
X125148323Y-78026035D01*
X125110636Y-78014602D01*
X125075897Y-77996034D01*
X125045452Y-77971048D01*
X125020466Y-77940603D01*
X125001898Y-77905864D01*
X124990465Y-77868177D01*
X124986000Y-77822839D01*
X124986000Y-76736161D01*
X124990465Y-76690823D01*
X125001898Y-76653136D01*
X125020466Y-76618397D01*
X125045452Y-76587952D01*
X125075897Y-76562966D01*
X125110636Y-76544398D01*
X125148323Y-76532965D01*
X125193661Y-76528500D01*
X126030339Y-76528500D01*
X126075677Y-76532965D01*
X126075677Y-76532965D01*
G37*
G36*
X128851677Y-76532965D02*
X128889364Y-76544398D01*
X128924103Y-76562966D01*
X128954548Y-76587952D01*
X128979534Y-76618397D01*
X128998102Y-76653136D01*
X129009535Y-76690823D01*
X129014000Y-76736161D01*
X129014000Y-77822839D01*
X129009535Y-77868177D01*
X128998102Y-77905864D01*
X128979534Y-77940603D01*
X128954548Y-77971048D01*
X128924103Y-77996034D01*
X128889364Y-78014602D01*
X128851677Y-78026035D01*
X128806339Y-78030500D01*
X127969661Y-78030500D01*
X127924323Y-78026035D01*
X127886636Y-78014602D01*
X127851897Y-77996034D01*
X127821452Y-77971048D01*
X127796466Y-77940603D01*
X127777898Y-77905864D01*
X127766465Y-77868177D01*
X127762000Y-77822839D01*
X127762000Y-76736161D01*
X127766465Y-76690823D01*
X127777898Y-76653136D01*
X127796466Y-76618397D01*
X127821452Y-76587952D01*
X127851897Y-76562966D01*
X127886636Y-76544398D01*
X127924323Y-76532965D01*
X127969661Y-76528500D01*
X128806339Y-76528500D01*
X128851677Y-76532965D01*
X128851677Y-76532965D01*
G37*
G36*
X134566677Y-74462865D02*
X134604364Y-74474298D01*
X134639103Y-74492866D01*
X134669548Y-74517852D01*
X134694534Y-74548297D01*
X134713102Y-74583036D01*
X134724535Y-74620723D01*
X134729000Y-74666061D01*
X134729000Y-75752739D01*
X134724535Y-75798077D01*
X134713102Y-75835764D01*
X134694534Y-75870503D01*
X134669548Y-75900948D01*
X134639103Y-75925934D01*
X134604364Y-75944502D01*
X134566677Y-75955935D01*
X134521339Y-75960400D01*
X133684661Y-75960400D01*
X133639323Y-75955935D01*
X133601636Y-75944502D01*
X133566897Y-75925934D01*
X133536452Y-75900948D01*
X133511466Y-75870503D01*
X133492898Y-75835764D01*
X133481465Y-75798077D01*
X133477000Y-75752739D01*
X133477000Y-74666061D01*
X133481465Y-74620723D01*
X133492898Y-74583036D01*
X133511466Y-74548297D01*
X133536452Y-74517852D01*
X133566897Y-74492866D01*
X133601636Y-74474298D01*
X133639323Y-74462865D01*
X133684661Y-74458400D01*
X134521339Y-74458400D01*
X134566677Y-74462865D01*
X134566677Y-74462865D01*
G37*
G36*
X136616677Y-74462865D02*
X136654364Y-74474298D01*
X136689103Y-74492866D01*
X136719548Y-74517852D01*
X136744534Y-74548297D01*
X136763102Y-74583036D01*
X136774535Y-74620723D01*
X136779000Y-74666061D01*
X136779000Y-75752739D01*
X136774535Y-75798077D01*
X136763102Y-75835764D01*
X136744534Y-75870503D01*
X136719548Y-75900948D01*
X136689103Y-75925934D01*
X136654364Y-75944502D01*
X136616677Y-75955935D01*
X136571339Y-75960400D01*
X135734661Y-75960400D01*
X135689323Y-75955935D01*
X135651636Y-75944502D01*
X135616897Y-75925934D01*
X135586452Y-75900948D01*
X135561466Y-75870503D01*
X135542898Y-75835764D01*
X135531465Y-75798077D01*
X135527000Y-75752739D01*
X135527000Y-74666061D01*
X135531465Y-74620723D01*
X135542898Y-74583036D01*
X135561466Y-74548297D01*
X135586452Y-74517852D01*
X135616897Y-74492866D01*
X135651636Y-74474298D01*
X135689323Y-74462865D01*
X135734661Y-74458400D01*
X136571339Y-74458400D01*
X136616677Y-74462865D01*
X136616677Y-74462865D01*
G37*
G36*
X124025677Y-73929465D02*
X124063364Y-73940898D01*
X124098103Y-73959466D01*
X124128548Y-73984452D01*
X124153534Y-74014897D01*
X124172102Y-74049636D01*
X124183535Y-74087323D01*
X124188000Y-74132661D01*
X124188000Y-75219339D01*
X124183535Y-75264677D01*
X124172102Y-75302364D01*
X124153534Y-75337103D01*
X124128548Y-75367548D01*
X124098103Y-75392534D01*
X124063364Y-75411102D01*
X124025677Y-75422535D01*
X123980339Y-75427000D01*
X123143661Y-75427000D01*
X123098323Y-75422535D01*
X123060636Y-75411102D01*
X123025897Y-75392534D01*
X122995452Y-75367548D01*
X122970466Y-75337103D01*
X122951898Y-75302364D01*
X122940465Y-75264677D01*
X122936000Y-75219339D01*
X122936000Y-74132661D01*
X122940465Y-74087323D01*
X122951898Y-74049636D01*
X122970466Y-74014897D01*
X122995452Y-73984452D01*
X123025897Y-73959466D01*
X123060636Y-73940898D01*
X123098323Y-73929465D01*
X123143661Y-73925000D01*
X123980339Y-73925000D01*
X124025677Y-73929465D01*
X124025677Y-73929465D01*
G37*
G36*
X126075677Y-73929465D02*
X126113364Y-73940898D01*
X126148103Y-73959466D01*
X126178548Y-73984452D01*
X126203534Y-74014897D01*
X126222102Y-74049636D01*
X126233535Y-74087323D01*
X126238000Y-74132661D01*
X126238000Y-75219339D01*
X126233535Y-75264677D01*
X126222102Y-75302364D01*
X126203534Y-75337103D01*
X126178548Y-75367548D01*
X126148103Y-75392534D01*
X126113364Y-75411102D01*
X126075677Y-75422535D01*
X126030339Y-75427000D01*
X125193661Y-75427000D01*
X125148323Y-75422535D01*
X125110636Y-75411102D01*
X125075897Y-75392534D01*
X125045452Y-75367548D01*
X125020466Y-75337103D01*
X125001898Y-75302364D01*
X124990465Y-75264677D01*
X124986000Y-75219339D01*
X124986000Y-74132661D01*
X124990465Y-74087323D01*
X125001898Y-74049636D01*
X125020466Y-74014897D01*
X125045452Y-73984452D01*
X125075897Y-73959466D01*
X125110636Y-73940898D01*
X125148323Y-73929465D01*
X125193661Y-73925000D01*
X126030339Y-73925000D01*
X126075677Y-73929465D01*
X126075677Y-73929465D01*
G37*
G36*
X128842677Y-73929465D02*
X128880364Y-73940898D01*
X128915103Y-73959466D01*
X128945548Y-73984452D01*
X128970534Y-74014897D01*
X128989102Y-74049636D01*
X129000535Y-74087323D01*
X129005000Y-74132661D01*
X129005000Y-75219339D01*
X129000535Y-75264677D01*
X128989102Y-75302364D01*
X128970534Y-75337103D01*
X128945548Y-75367548D01*
X128915103Y-75392534D01*
X128880364Y-75411102D01*
X128842677Y-75422535D01*
X128797339Y-75427000D01*
X127960661Y-75427000D01*
X127915323Y-75422535D01*
X127877636Y-75411102D01*
X127842897Y-75392534D01*
X127812452Y-75367548D01*
X127787466Y-75337103D01*
X127768898Y-75302364D01*
X127757465Y-75264677D01*
X127753000Y-75219339D01*
X127753000Y-74132661D01*
X127757465Y-74087323D01*
X127768898Y-74049636D01*
X127787466Y-74014897D01*
X127812452Y-73984452D01*
X127842897Y-73959466D01*
X127877636Y-73940898D01*
X127915323Y-73929465D01*
X127960661Y-73925000D01*
X128797339Y-73925000D01*
X128842677Y-73929465D01*
X128842677Y-73929465D01*
G37*
G36*
X130892677Y-73929465D02*
X130930364Y-73940898D01*
X130965103Y-73959466D01*
X130995548Y-73984452D01*
X131020534Y-74014897D01*
X131039102Y-74049636D01*
X131050535Y-74087323D01*
X131055000Y-74132661D01*
X131055000Y-75219339D01*
X131050535Y-75264677D01*
X131039102Y-75302364D01*
X131020534Y-75337103D01*
X130995548Y-75367548D01*
X130965103Y-75392534D01*
X130930364Y-75411102D01*
X130892677Y-75422535D01*
X130847339Y-75427000D01*
X130010661Y-75427000D01*
X129965323Y-75422535D01*
X129927636Y-75411102D01*
X129892897Y-75392534D01*
X129862452Y-75367548D01*
X129837466Y-75337103D01*
X129818898Y-75302364D01*
X129807465Y-75264677D01*
X129803000Y-75219339D01*
X129803000Y-74132661D01*
X129807465Y-74087323D01*
X129818898Y-74049636D01*
X129837466Y-74014897D01*
X129862452Y-73984452D01*
X129892897Y-73959466D01*
X129927636Y-73940898D01*
X129965323Y-73929465D01*
X130010661Y-73925000D01*
X130847339Y-73925000D01*
X130892677Y-73929465D01*
X130892677Y-73929465D01*
G37*
G36*
X125522943Y-70352519D02*
X125589127Y-70359037D01*
X125702353Y-70393384D01*
X125758967Y-70410557D01*
X125897587Y-70484652D01*
X125915491Y-70494222D01*
X125951229Y-70523552D01*
X126052686Y-70606814D01*
X126135948Y-70708271D01*
X126165278Y-70744009D01*
X126165279Y-70744011D01*
X126248943Y-70900533D01*
X126248943Y-70900534D01*
X126300463Y-71070373D01*
X126317859Y-71247000D01*
X126300463Y-71423627D01*
X126266116Y-71536853D01*
X126248943Y-71593467D01*
X126174848Y-71732087D01*
X126165278Y-71749991D01*
X126135948Y-71785729D01*
X126052686Y-71887186D01*
X125951229Y-71970448D01*
X125915491Y-71999778D01*
X125915489Y-71999779D01*
X125758967Y-72083443D01*
X125702353Y-72100616D01*
X125589127Y-72134963D01*
X125522943Y-72141481D01*
X125456760Y-72148000D01*
X125368240Y-72148000D01*
X125302057Y-72141481D01*
X125235873Y-72134963D01*
X125122647Y-72100616D01*
X125066033Y-72083443D01*
X124909511Y-71999779D01*
X124909509Y-71999778D01*
X124873771Y-71970448D01*
X124772314Y-71887186D01*
X124689052Y-71785729D01*
X124659722Y-71749991D01*
X124650152Y-71732087D01*
X124576057Y-71593467D01*
X124558884Y-71536853D01*
X124524537Y-71423627D01*
X124507141Y-71247000D01*
X124524537Y-71070373D01*
X124576057Y-70900534D01*
X124576057Y-70900533D01*
X124659721Y-70744011D01*
X124659722Y-70744009D01*
X124689052Y-70708271D01*
X124772314Y-70606814D01*
X124873771Y-70523552D01*
X124909509Y-70494222D01*
X124927413Y-70484652D01*
X125066033Y-70410557D01*
X125122647Y-70393384D01*
X125235873Y-70359037D01*
X125302057Y-70352519D01*
X125368240Y-70346000D01*
X125456760Y-70346000D01*
X125522943Y-70352519D01*
X125522943Y-70352519D01*
G37*
G36*
X122982943Y-70352519D02*
X123049127Y-70359037D01*
X123162353Y-70393384D01*
X123218967Y-70410557D01*
X123357587Y-70484652D01*
X123375491Y-70494222D01*
X123411229Y-70523552D01*
X123512686Y-70606814D01*
X123595948Y-70708271D01*
X123625278Y-70744009D01*
X123625279Y-70744011D01*
X123708943Y-70900533D01*
X123708943Y-70900534D01*
X123760463Y-71070373D01*
X123777859Y-71247000D01*
X123760463Y-71423627D01*
X123726116Y-71536853D01*
X123708943Y-71593467D01*
X123634848Y-71732087D01*
X123625278Y-71749991D01*
X123595948Y-71785729D01*
X123512686Y-71887186D01*
X123411229Y-71970448D01*
X123375491Y-71999778D01*
X123375489Y-71999779D01*
X123218967Y-72083443D01*
X123162353Y-72100616D01*
X123049127Y-72134963D01*
X122982943Y-72141481D01*
X122916760Y-72148000D01*
X122828240Y-72148000D01*
X122762057Y-72141481D01*
X122695873Y-72134963D01*
X122582647Y-72100616D01*
X122526033Y-72083443D01*
X122369511Y-71999779D01*
X122369509Y-71999778D01*
X122333771Y-71970448D01*
X122232314Y-71887186D01*
X122149052Y-71785729D01*
X122119722Y-71749991D01*
X122110152Y-71732087D01*
X122036057Y-71593467D01*
X122018884Y-71536853D01*
X121984537Y-71423627D01*
X121967141Y-71247000D01*
X121984537Y-71070373D01*
X122036057Y-70900534D01*
X122036057Y-70900533D01*
X122119721Y-70744011D01*
X122119722Y-70744009D01*
X122149052Y-70708271D01*
X122232314Y-70606814D01*
X122333771Y-70523552D01*
X122369509Y-70494222D01*
X122387413Y-70484652D01*
X122526033Y-70410557D01*
X122582647Y-70393384D01*
X122695873Y-70359037D01*
X122762057Y-70352519D01*
X122828240Y-70346000D01*
X122916760Y-70346000D01*
X122982943Y-70352519D01*
X122982943Y-70352519D01*
G37*
G36*
X128853500Y-72148000D02*
X127051500Y-72148000D01*
X127051500Y-70346000D01*
X128853500Y-70346000D01*
X128853500Y-72148000D01*
X128853500Y-72148000D01*
G37*
M02*
