G04 #@! TF.GenerationSoftware,KiCad,Pcbnew,(5.0.2)-1*
G04 #@! TF.CreationDate,2019-08-11T23:26:23-04:00*
G04 #@! TF.ProjectId,LTC3265,4c544333-3236-4352-9e6b-696361645f70,rev?*
G04 #@! TF.SameCoordinates,Original*
G04 #@! TF.FileFunction,Copper,L2,Bot*
G04 #@! TF.FilePolarity,Positive*
%FSLAX46Y46*%
G04 Gerber Fmt 4.6, Leading zero omitted, Abs format (unit mm)*
G04 Created by KiCad (PCBNEW (5.0.2)-1) date 8/11/2019 11:26:23 PM*
%MOMM*%
%LPD*%
G01*
G04 APERTURE LIST*
G04 #@! TA.AperFunction,ComponentPad*
%ADD10O,5.000000X2.500000*%
G04 #@! TD*
G04 #@! TA.AperFunction,ComponentPad*
%ADD11O,4.500000X2.250000*%
G04 #@! TD*
G04 #@! TA.AperFunction,ComponentPad*
%ADD12R,1.700000X1.700000*%
G04 #@! TD*
G04 #@! TA.AperFunction,ComponentPad*
%ADD13O,1.700000X1.700000*%
G04 #@! TD*
G04 #@! TA.AperFunction,ViaPad*
%ADD14C,0.600000*%
G04 #@! TD*
G04 #@! TA.AperFunction,ViaPad*
%ADD15C,0.800000*%
G04 #@! TD*
G04 #@! TA.AperFunction,Conductor*
%ADD16C,0.300000*%
G04 #@! TD*
G04 #@! TA.AperFunction,Conductor*
%ADD17C,0.400000*%
G04 #@! TD*
G04 #@! TA.AperFunction,Conductor*
%ADD18C,0.200000*%
G04 #@! TD*
G04 APERTURE END LIST*
D10*
G04 #@! TO.P,J1,1*
G04 #@! TO.N,+9V*
X108267500Y-87630000D03*
D11*
G04 #@! TO.P,J1,2*
G04 #@! TO.N,GND*
X108267500Y-81630000D03*
G04 #@! TD*
D12*
G04 #@! TO.P,J2,1*
G04 #@! TO.N,/+15V*
X127952500Y-71247000D03*
D13*
G04 #@! TO.P,J2,2*
G04 #@! TO.N,/-15V*
X125412500Y-71247000D03*
G04 #@! TO.P,J2,3*
G04 #@! TO.N,GND*
X122872500Y-71247000D03*
G04 #@! TD*
D14*
G04 #@! TO.N,GND*
X131381500Y-82359500D03*
X131381500Y-83883500D03*
D15*
X115824000Y-79184500D03*
X114109500Y-81851500D03*
X117411500Y-79184500D03*
X118935500Y-79184500D03*
X115443000Y-84582000D03*
X116967000Y-84582000D03*
X113855500Y-87630000D03*
X113855500Y-89344500D03*
X115697000Y-89662000D03*
X122555000Y-90043000D03*
X122555000Y-91567000D03*
X121221500Y-92773500D03*
X136271000Y-73558400D03*
X137858500Y-74320400D03*
X137858500Y-75717400D03*
X139001500Y-76225400D03*
X140589000Y-76669900D03*
X137350500Y-81622900D03*
X137350500Y-82892900D03*
X136461500Y-84035900D03*
X125476000Y-90043000D03*
X127063500Y-89535000D03*
X134874000Y-73558400D03*
X127000000Y-73660000D03*
X127000000Y-74930000D03*
X127000000Y-76200000D03*
X127000000Y-77470000D03*
D14*
G04 #@! TO.N,+9V*
X131381500Y-83121500D03*
D15*
X122491500Y-81580000D03*
G04 #@! TD*
D16*
G04 #@! TO.N,+9V*
X131381500Y-83121500D02*
X129032000Y-83121500D01*
X129032000Y-83121500D02*
X127508000Y-81597500D01*
D17*
X127490500Y-81580000D02*
X122491500Y-81580000D01*
X127508000Y-81597500D02*
X127490500Y-81580000D01*
G04 #@! TD*
D18*
G04 #@! TO.N,GND*
G36*
X141274129Y-69014411D02*
X141541574Y-69168821D01*
X141740083Y-69405394D01*
X141851436Y-69711334D01*
X141865001Y-69866384D01*
X141865000Y-92677191D01*
X141805589Y-93014130D01*
X141651178Y-93281576D01*
X141414607Y-93480082D01*
X141108666Y-93591436D01*
X140953628Y-93605000D01*
X102902809Y-93605000D01*
X102565870Y-93545589D01*
X102298424Y-93391178D01*
X102099918Y-93154607D01*
X101988564Y-92848666D01*
X101975000Y-92693628D01*
X101975000Y-87630000D01*
X105437134Y-87630000D01*
X105557432Y-88234780D01*
X105900012Y-88747488D01*
X106412720Y-89090068D01*
X106864840Y-89180000D01*
X109670160Y-89180000D01*
X110122280Y-89090068D01*
X110634988Y-88747488D01*
X110977568Y-88234780D01*
X111097866Y-87630000D01*
X110977568Y-87025220D01*
X110634988Y-86512512D01*
X110122280Y-86169932D01*
X109670160Y-86080000D01*
X106864840Y-86080000D01*
X106412720Y-86169932D01*
X105900012Y-86512512D01*
X105557432Y-87025220D01*
X105437134Y-87630000D01*
X101975000Y-87630000D01*
X101975000Y-81207868D01*
X105461699Y-81207868D01*
X105569018Y-81476000D01*
X106467451Y-81476000D01*
X106467450Y-81784000D01*
X105569018Y-81784000D01*
X105461699Y-82052132D01*
X105482483Y-82150913D01*
X105808189Y-82746522D01*
X106337032Y-83172150D01*
X106988500Y-83363000D01*
X108113500Y-83363000D01*
X108113500Y-82430050D01*
X108421500Y-82430050D01*
X108421500Y-83363000D01*
X109546500Y-83363000D01*
X110197968Y-83172150D01*
X110726811Y-82746522D01*
X111052517Y-82150913D01*
X111073301Y-82052132D01*
X110965982Y-81784000D01*
X110067550Y-81784000D01*
X110067550Y-81476000D01*
X110965982Y-81476000D01*
X110980086Y-81440761D01*
X121791500Y-81440761D01*
X121791500Y-81719239D01*
X121898068Y-81976518D01*
X122094982Y-82173432D01*
X122352261Y-82280000D01*
X122630739Y-82280000D01*
X122888018Y-82173432D01*
X122981450Y-82080000D01*
X127354105Y-82080000D01*
X128682462Y-83408357D01*
X128707568Y-83445932D01*
X128809489Y-83514033D01*
X128856417Y-83545390D01*
X128856418Y-83545390D01*
X128856419Y-83545391D01*
X128987679Y-83571500D01*
X128987682Y-83571500D01*
X129031999Y-83580315D01*
X129076316Y-83571500D01*
X130982971Y-83571500D01*
X131041627Y-83630156D01*
X131262153Y-83721500D01*
X131500847Y-83721500D01*
X131721373Y-83630156D01*
X131890156Y-83461373D01*
X131981500Y-83240847D01*
X131981500Y-83002153D01*
X131890156Y-82781627D01*
X131721373Y-82612844D01*
X131500847Y-82521500D01*
X131262153Y-82521500D01*
X131041627Y-82612844D01*
X130982971Y-82671500D01*
X129218396Y-82671500D01*
X127986359Y-81439464D01*
X127978989Y-81402411D01*
X127896373Y-81278767D01*
X127878877Y-81261271D01*
X127850980Y-81219520D01*
X127685590Y-81109011D01*
X127539743Y-81080000D01*
X127539741Y-81080000D01*
X127490500Y-81070205D01*
X127441259Y-81080000D01*
X122981450Y-81080000D01*
X122888018Y-80986568D01*
X122630739Y-80880000D01*
X122352261Y-80880000D01*
X122094982Y-80986568D01*
X121898068Y-81183482D01*
X121791500Y-81440761D01*
X110980086Y-81440761D01*
X111073301Y-81207868D01*
X111052517Y-81109087D01*
X110726811Y-80513478D01*
X110197968Y-80087850D01*
X109546500Y-79897000D01*
X108421500Y-79897000D01*
X108421500Y-80829950D01*
X108113500Y-80829950D01*
X108113500Y-79897000D01*
X106988500Y-79897000D01*
X106337032Y-80087850D01*
X105808189Y-80513478D01*
X105482483Y-81109087D01*
X105461699Y-81207868D01*
X101975000Y-81207868D01*
X101975000Y-71625911D01*
X121464585Y-71625911D01*
X121716759Y-72135854D01*
X122144884Y-72510477D01*
X122493590Y-72654903D01*
X122718500Y-72543889D01*
X122718500Y-71401000D01*
X121574644Y-71401000D01*
X121464585Y-71625911D01*
X101975000Y-71625911D01*
X101975000Y-70868089D01*
X121464585Y-70868089D01*
X121574644Y-71093000D01*
X122718500Y-71093000D01*
X122718500Y-69950111D01*
X123026500Y-69950111D01*
X123026500Y-71093000D01*
X123046500Y-71093000D01*
X123046500Y-71401000D01*
X123026500Y-71401000D01*
X123026500Y-72543889D01*
X123251410Y-72654903D01*
X123600116Y-72510477D01*
X124028241Y-72135854D01*
X124280415Y-71625911D01*
X124170357Y-71401002D01*
X124270604Y-71401002D01*
X124329224Y-71695707D01*
X124583397Y-72076103D01*
X124963793Y-72330276D01*
X125299239Y-72397000D01*
X125525761Y-72397000D01*
X125861207Y-72330276D01*
X126241603Y-72076103D01*
X126495776Y-71695707D01*
X126585029Y-71247000D01*
X126495776Y-70798293D01*
X126241603Y-70417897D01*
X126210329Y-70397000D01*
X126796623Y-70397000D01*
X126796623Y-72097000D01*
X126819907Y-72214054D01*
X126886212Y-72313288D01*
X126985446Y-72379593D01*
X127102500Y-72402877D01*
X128802500Y-72402877D01*
X128919554Y-72379593D01*
X129018788Y-72313288D01*
X129085093Y-72214054D01*
X129108377Y-72097000D01*
X129108377Y-70397000D01*
X129085093Y-70279946D01*
X129018788Y-70180712D01*
X128919554Y-70114407D01*
X128802500Y-70091123D01*
X127102500Y-70091123D01*
X126985446Y-70114407D01*
X126886212Y-70180712D01*
X126819907Y-70279946D01*
X126796623Y-70397000D01*
X126210329Y-70397000D01*
X125861207Y-70163724D01*
X125525761Y-70097000D01*
X125299239Y-70097000D01*
X124963793Y-70163724D01*
X124583397Y-70417897D01*
X124329224Y-70798293D01*
X124270604Y-71092998D01*
X124170357Y-71092998D01*
X124280415Y-70868089D01*
X124028241Y-70358146D01*
X123600116Y-69983523D01*
X123251410Y-69839097D01*
X123026500Y-69950111D01*
X122718500Y-69950111D01*
X122493590Y-69839097D01*
X122144884Y-69983523D01*
X121716759Y-70358146D01*
X121464585Y-70868089D01*
X101975000Y-70868089D01*
X101975000Y-69882808D01*
X102034411Y-69545871D01*
X102188821Y-69278426D01*
X102425394Y-69079917D01*
X102731334Y-68968564D01*
X102886372Y-68955000D01*
X140937192Y-68955000D01*
X141274129Y-69014411D01*
X141274129Y-69014411D01*
G37*
X141274129Y-69014411D02*
X141541574Y-69168821D01*
X141740083Y-69405394D01*
X141851436Y-69711334D01*
X141865001Y-69866384D01*
X141865000Y-92677191D01*
X141805589Y-93014130D01*
X141651178Y-93281576D01*
X141414607Y-93480082D01*
X141108666Y-93591436D01*
X140953628Y-93605000D01*
X102902809Y-93605000D01*
X102565870Y-93545589D01*
X102298424Y-93391178D01*
X102099918Y-93154607D01*
X101988564Y-92848666D01*
X101975000Y-92693628D01*
X101975000Y-87630000D01*
X105437134Y-87630000D01*
X105557432Y-88234780D01*
X105900012Y-88747488D01*
X106412720Y-89090068D01*
X106864840Y-89180000D01*
X109670160Y-89180000D01*
X110122280Y-89090068D01*
X110634988Y-88747488D01*
X110977568Y-88234780D01*
X111097866Y-87630000D01*
X110977568Y-87025220D01*
X110634988Y-86512512D01*
X110122280Y-86169932D01*
X109670160Y-86080000D01*
X106864840Y-86080000D01*
X106412720Y-86169932D01*
X105900012Y-86512512D01*
X105557432Y-87025220D01*
X105437134Y-87630000D01*
X101975000Y-87630000D01*
X101975000Y-81207868D01*
X105461699Y-81207868D01*
X105569018Y-81476000D01*
X106467451Y-81476000D01*
X106467450Y-81784000D01*
X105569018Y-81784000D01*
X105461699Y-82052132D01*
X105482483Y-82150913D01*
X105808189Y-82746522D01*
X106337032Y-83172150D01*
X106988500Y-83363000D01*
X108113500Y-83363000D01*
X108113500Y-82430050D01*
X108421500Y-82430050D01*
X108421500Y-83363000D01*
X109546500Y-83363000D01*
X110197968Y-83172150D01*
X110726811Y-82746522D01*
X111052517Y-82150913D01*
X111073301Y-82052132D01*
X110965982Y-81784000D01*
X110067550Y-81784000D01*
X110067550Y-81476000D01*
X110965982Y-81476000D01*
X110980086Y-81440761D01*
X121791500Y-81440761D01*
X121791500Y-81719239D01*
X121898068Y-81976518D01*
X122094982Y-82173432D01*
X122352261Y-82280000D01*
X122630739Y-82280000D01*
X122888018Y-82173432D01*
X122981450Y-82080000D01*
X127354105Y-82080000D01*
X128682462Y-83408357D01*
X128707568Y-83445932D01*
X128809489Y-83514033D01*
X128856417Y-83545390D01*
X128856418Y-83545390D01*
X128856419Y-83545391D01*
X128987679Y-83571500D01*
X128987682Y-83571500D01*
X129031999Y-83580315D01*
X129076316Y-83571500D01*
X130982971Y-83571500D01*
X131041627Y-83630156D01*
X131262153Y-83721500D01*
X131500847Y-83721500D01*
X131721373Y-83630156D01*
X131890156Y-83461373D01*
X131981500Y-83240847D01*
X131981500Y-83002153D01*
X131890156Y-82781627D01*
X131721373Y-82612844D01*
X131500847Y-82521500D01*
X131262153Y-82521500D01*
X131041627Y-82612844D01*
X130982971Y-82671500D01*
X129218396Y-82671500D01*
X127986359Y-81439464D01*
X127978989Y-81402411D01*
X127896373Y-81278767D01*
X127878877Y-81261271D01*
X127850980Y-81219520D01*
X127685590Y-81109011D01*
X127539743Y-81080000D01*
X127539741Y-81080000D01*
X127490500Y-81070205D01*
X127441259Y-81080000D01*
X122981450Y-81080000D01*
X122888018Y-80986568D01*
X122630739Y-80880000D01*
X122352261Y-80880000D01*
X122094982Y-80986568D01*
X121898068Y-81183482D01*
X121791500Y-81440761D01*
X110980086Y-81440761D01*
X111073301Y-81207868D01*
X111052517Y-81109087D01*
X110726811Y-80513478D01*
X110197968Y-80087850D01*
X109546500Y-79897000D01*
X108421500Y-79897000D01*
X108421500Y-80829950D01*
X108113500Y-80829950D01*
X108113500Y-79897000D01*
X106988500Y-79897000D01*
X106337032Y-80087850D01*
X105808189Y-80513478D01*
X105482483Y-81109087D01*
X105461699Y-81207868D01*
X101975000Y-81207868D01*
X101975000Y-71625911D01*
X121464585Y-71625911D01*
X121716759Y-72135854D01*
X122144884Y-72510477D01*
X122493590Y-72654903D01*
X122718500Y-72543889D01*
X122718500Y-71401000D01*
X121574644Y-71401000D01*
X121464585Y-71625911D01*
X101975000Y-71625911D01*
X101975000Y-70868089D01*
X121464585Y-70868089D01*
X121574644Y-71093000D01*
X122718500Y-71093000D01*
X122718500Y-69950111D01*
X123026500Y-69950111D01*
X123026500Y-71093000D01*
X123046500Y-71093000D01*
X123046500Y-71401000D01*
X123026500Y-71401000D01*
X123026500Y-72543889D01*
X123251410Y-72654903D01*
X123600116Y-72510477D01*
X124028241Y-72135854D01*
X124280415Y-71625911D01*
X124170357Y-71401002D01*
X124270604Y-71401002D01*
X124329224Y-71695707D01*
X124583397Y-72076103D01*
X124963793Y-72330276D01*
X125299239Y-72397000D01*
X125525761Y-72397000D01*
X125861207Y-72330276D01*
X126241603Y-72076103D01*
X126495776Y-71695707D01*
X126585029Y-71247000D01*
X126495776Y-70798293D01*
X126241603Y-70417897D01*
X126210329Y-70397000D01*
X126796623Y-70397000D01*
X126796623Y-72097000D01*
X126819907Y-72214054D01*
X126886212Y-72313288D01*
X126985446Y-72379593D01*
X127102500Y-72402877D01*
X128802500Y-72402877D01*
X128919554Y-72379593D01*
X129018788Y-72313288D01*
X129085093Y-72214054D01*
X129108377Y-72097000D01*
X129108377Y-70397000D01*
X129085093Y-70279946D01*
X129018788Y-70180712D01*
X128919554Y-70114407D01*
X128802500Y-70091123D01*
X127102500Y-70091123D01*
X126985446Y-70114407D01*
X126886212Y-70180712D01*
X126819907Y-70279946D01*
X126796623Y-70397000D01*
X126210329Y-70397000D01*
X125861207Y-70163724D01*
X125525761Y-70097000D01*
X125299239Y-70097000D01*
X124963793Y-70163724D01*
X124583397Y-70417897D01*
X124329224Y-70798293D01*
X124270604Y-71092998D01*
X124170357Y-71092998D01*
X124280415Y-70868089D01*
X124028241Y-70358146D01*
X123600116Y-69983523D01*
X123251410Y-69839097D01*
X123026500Y-69950111D01*
X122718500Y-69950111D01*
X122493590Y-69839097D01*
X122144884Y-69983523D01*
X121716759Y-70358146D01*
X121464585Y-70868089D01*
X101975000Y-70868089D01*
X101975000Y-69882808D01*
X102034411Y-69545871D01*
X102188821Y-69278426D01*
X102425394Y-69079917D01*
X102731334Y-68968564D01*
X102886372Y-68955000D01*
X140937192Y-68955000D01*
X141274129Y-69014411D01*
G36*
X108421500Y-81476000D02*
X109467450Y-81476000D01*
X109467451Y-81784000D01*
X108421500Y-81784000D01*
X108421500Y-81829950D01*
X108113500Y-81829950D01*
X108113500Y-81784000D01*
X107067550Y-81784000D01*
X107067550Y-81476000D01*
X108113500Y-81476000D01*
X108113500Y-81430050D01*
X108421500Y-81430050D01*
X108421500Y-81476000D01*
X108421500Y-81476000D01*
G37*
X108421500Y-81476000D02*
X109467450Y-81476000D01*
X109467451Y-81784000D01*
X108421500Y-81784000D01*
X108421500Y-81829950D01*
X108113500Y-81829950D01*
X108113500Y-81784000D01*
X107067550Y-81784000D01*
X107067550Y-81476000D01*
X108113500Y-81476000D01*
X108113500Y-81430050D01*
X108421500Y-81430050D01*
X108421500Y-81476000D01*
G04 #@! TD*
M02*
