G04 #@! TF.GenerationSoftware,KiCad,Pcbnew,(5.0.2)-1*
G04 #@! TF.CreationDate,2019-08-11T23:26:23-04:00*
G04 #@! TF.ProjectId,LTC3265,4c544333-3236-4352-9e6b-696361645f70,rev?*
G04 #@! TF.SameCoordinates,Original*
G04 #@! TF.FileFunction,Copper,L1,Top*
G04 #@! TF.FilePolarity,Positive*
%FSLAX46Y46*%
G04 Gerber Fmt 4.6, Leading zero omitted, Abs format (unit mm)*
G04 Created by KiCad (PCBNEW (5.0.2)-1) date 8/11/2019 11:26:23 PM*
%MOMM*%
%LPD*%
G01*
G04 APERTURE LIST*
G04 #@! TA.AperFunction,Conductor*
%ADD10C,0.100000*%
G04 #@! TD*
G04 #@! TA.AperFunction,SMDPad,CuDef*
%ADD11C,1.150000*%
G04 #@! TD*
G04 #@! TA.AperFunction,ComponentPad*
%ADD12O,5.000000X2.500000*%
G04 #@! TD*
G04 #@! TA.AperFunction,ComponentPad*
%ADD13O,4.500000X2.250000*%
G04 #@! TD*
G04 #@! TA.AperFunction,SMDPad,CuDef*
%ADD14R,1.450000X0.450000*%
G04 #@! TD*
G04 #@! TA.AperFunction,SMDPad,CuDef*
%ADD15R,3.000000X6.500000*%
G04 #@! TD*
G04 #@! TA.AperFunction,ComponentPad*
%ADD16R,1.700000X1.700000*%
G04 #@! TD*
G04 #@! TA.AperFunction,ComponentPad*
%ADD17O,1.700000X1.700000*%
G04 #@! TD*
G04 #@! TA.AperFunction,ViaPad*
%ADD18C,0.600000*%
G04 #@! TD*
G04 #@! TA.AperFunction,ViaPad*
%ADD19C,0.800000*%
G04 #@! TD*
G04 #@! TA.AperFunction,Conductor*
%ADD20C,0.300000*%
G04 #@! TD*
G04 #@! TA.AperFunction,Conductor*
%ADD21C,0.800000*%
G04 #@! TD*
G04 #@! TA.AperFunction,Conductor*
%ADD22C,0.400000*%
G04 #@! TD*
G04 #@! TA.AperFunction,Conductor*
%ADD23C,0.200000*%
G04 #@! TD*
G04 APERTURE END LIST*
D10*
G04 #@! TO.N,GND*
G04 #@! TO.C,CBYPN1*
G36*
X118704505Y-82803704D02*
X118728773Y-82807304D01*
X118752572Y-82813265D01*
X118775671Y-82821530D01*
X118797850Y-82832020D01*
X118818893Y-82844632D01*
X118838599Y-82859247D01*
X118856777Y-82875723D01*
X118873253Y-82893901D01*
X118887868Y-82913607D01*
X118900480Y-82934650D01*
X118910970Y-82956829D01*
X118919235Y-82979928D01*
X118925196Y-83003727D01*
X118928796Y-83027995D01*
X118930000Y-83052499D01*
X118930000Y-83952501D01*
X118928796Y-83977005D01*
X118925196Y-84001273D01*
X118919235Y-84025072D01*
X118910970Y-84048171D01*
X118900480Y-84070350D01*
X118887868Y-84091393D01*
X118873253Y-84111099D01*
X118856777Y-84129277D01*
X118838599Y-84145753D01*
X118818893Y-84160368D01*
X118797850Y-84172980D01*
X118775671Y-84183470D01*
X118752572Y-84191735D01*
X118728773Y-84197696D01*
X118704505Y-84201296D01*
X118680001Y-84202500D01*
X118029999Y-84202500D01*
X118005495Y-84201296D01*
X117981227Y-84197696D01*
X117957428Y-84191735D01*
X117934329Y-84183470D01*
X117912150Y-84172980D01*
X117891107Y-84160368D01*
X117871401Y-84145753D01*
X117853223Y-84129277D01*
X117836747Y-84111099D01*
X117822132Y-84091393D01*
X117809520Y-84070350D01*
X117799030Y-84048171D01*
X117790765Y-84025072D01*
X117784804Y-84001273D01*
X117781204Y-83977005D01*
X117780000Y-83952501D01*
X117780000Y-83052499D01*
X117781204Y-83027995D01*
X117784804Y-83003727D01*
X117790765Y-82979928D01*
X117799030Y-82956829D01*
X117809520Y-82934650D01*
X117822132Y-82913607D01*
X117836747Y-82893901D01*
X117853223Y-82875723D01*
X117871401Y-82859247D01*
X117891107Y-82844632D01*
X117912150Y-82832020D01*
X117934329Y-82821530D01*
X117957428Y-82813265D01*
X117981227Y-82807304D01*
X118005495Y-82803704D01*
X118029999Y-82802500D01*
X118680001Y-82802500D01*
X118704505Y-82803704D01*
X118704505Y-82803704D01*
G37*
D11*
G04 #@! TD*
G04 #@! TO.P,CBYPN1,1*
G04 #@! TO.N,GND*
X118355000Y-83502500D03*
D10*
G04 #@! TO.N,/BYP-*
G04 #@! TO.C,CBYPN1*
G36*
X120754505Y-82803704D02*
X120778773Y-82807304D01*
X120802572Y-82813265D01*
X120825671Y-82821530D01*
X120847850Y-82832020D01*
X120868893Y-82844632D01*
X120888599Y-82859247D01*
X120906777Y-82875723D01*
X120923253Y-82893901D01*
X120937868Y-82913607D01*
X120950480Y-82934650D01*
X120960970Y-82956829D01*
X120969235Y-82979928D01*
X120975196Y-83003727D01*
X120978796Y-83027995D01*
X120980000Y-83052499D01*
X120980000Y-83952501D01*
X120978796Y-83977005D01*
X120975196Y-84001273D01*
X120969235Y-84025072D01*
X120960970Y-84048171D01*
X120950480Y-84070350D01*
X120937868Y-84091393D01*
X120923253Y-84111099D01*
X120906777Y-84129277D01*
X120888599Y-84145753D01*
X120868893Y-84160368D01*
X120847850Y-84172980D01*
X120825671Y-84183470D01*
X120802572Y-84191735D01*
X120778773Y-84197696D01*
X120754505Y-84201296D01*
X120730001Y-84202500D01*
X120079999Y-84202500D01*
X120055495Y-84201296D01*
X120031227Y-84197696D01*
X120007428Y-84191735D01*
X119984329Y-84183470D01*
X119962150Y-84172980D01*
X119941107Y-84160368D01*
X119921401Y-84145753D01*
X119903223Y-84129277D01*
X119886747Y-84111099D01*
X119872132Y-84091393D01*
X119859520Y-84070350D01*
X119849030Y-84048171D01*
X119840765Y-84025072D01*
X119834804Y-84001273D01*
X119831204Y-83977005D01*
X119830000Y-83952501D01*
X119830000Y-83052499D01*
X119831204Y-83027995D01*
X119834804Y-83003727D01*
X119840765Y-82979928D01*
X119849030Y-82956829D01*
X119859520Y-82934650D01*
X119872132Y-82913607D01*
X119886747Y-82893901D01*
X119903223Y-82875723D01*
X119921401Y-82859247D01*
X119941107Y-82844632D01*
X119962150Y-82832020D01*
X119984329Y-82821530D01*
X120007428Y-82813265D01*
X120031227Y-82807304D01*
X120055495Y-82803704D01*
X120079999Y-82802500D01*
X120730001Y-82802500D01*
X120754505Y-82803704D01*
X120754505Y-82803704D01*
G37*
D11*
G04 #@! TD*
G04 #@! TO.P,CBYPN1,2*
G04 #@! TO.N,/BYP-*
X120405000Y-83502500D03*
D10*
G04 #@! TO.N,/BYP+*
G04 #@! TO.C,CBYPP1*
G36*
X133944505Y-81495604D02*
X133968773Y-81499204D01*
X133992572Y-81505165D01*
X134015671Y-81513430D01*
X134037850Y-81523920D01*
X134058893Y-81536532D01*
X134078599Y-81551147D01*
X134096777Y-81567623D01*
X134113253Y-81585801D01*
X134127868Y-81605507D01*
X134140480Y-81626550D01*
X134150970Y-81648729D01*
X134159235Y-81671828D01*
X134165196Y-81695627D01*
X134168796Y-81719895D01*
X134170000Y-81744399D01*
X134170000Y-82644401D01*
X134168796Y-82668905D01*
X134165196Y-82693173D01*
X134159235Y-82716972D01*
X134150970Y-82740071D01*
X134140480Y-82762250D01*
X134127868Y-82783293D01*
X134113253Y-82802999D01*
X134096777Y-82821177D01*
X134078599Y-82837653D01*
X134058893Y-82852268D01*
X134037850Y-82864880D01*
X134015671Y-82875370D01*
X133992572Y-82883635D01*
X133968773Y-82889596D01*
X133944505Y-82893196D01*
X133920001Y-82894400D01*
X133269999Y-82894400D01*
X133245495Y-82893196D01*
X133221227Y-82889596D01*
X133197428Y-82883635D01*
X133174329Y-82875370D01*
X133152150Y-82864880D01*
X133131107Y-82852268D01*
X133111401Y-82837653D01*
X133093223Y-82821177D01*
X133076747Y-82802999D01*
X133062132Y-82783293D01*
X133049520Y-82762250D01*
X133039030Y-82740071D01*
X133030765Y-82716972D01*
X133024804Y-82693173D01*
X133021204Y-82668905D01*
X133020000Y-82644401D01*
X133020000Y-81744399D01*
X133021204Y-81719895D01*
X133024804Y-81695627D01*
X133030765Y-81671828D01*
X133039030Y-81648729D01*
X133049520Y-81626550D01*
X133062132Y-81605507D01*
X133076747Y-81585801D01*
X133093223Y-81567623D01*
X133111401Y-81551147D01*
X133131107Y-81536532D01*
X133152150Y-81523920D01*
X133174329Y-81513430D01*
X133197428Y-81505165D01*
X133221227Y-81499204D01*
X133245495Y-81495604D01*
X133269999Y-81494400D01*
X133920001Y-81494400D01*
X133944505Y-81495604D01*
X133944505Y-81495604D01*
G37*
D11*
G04 #@! TD*
G04 #@! TO.P,CBYPP1,2*
G04 #@! TO.N,/BYP+*
X133595000Y-82194400D03*
D10*
G04 #@! TO.N,GND*
G04 #@! TO.C,CBYPP1*
G36*
X135994505Y-81495604D02*
X136018773Y-81499204D01*
X136042572Y-81505165D01*
X136065671Y-81513430D01*
X136087850Y-81523920D01*
X136108893Y-81536532D01*
X136128599Y-81551147D01*
X136146777Y-81567623D01*
X136163253Y-81585801D01*
X136177868Y-81605507D01*
X136190480Y-81626550D01*
X136200970Y-81648729D01*
X136209235Y-81671828D01*
X136215196Y-81695627D01*
X136218796Y-81719895D01*
X136220000Y-81744399D01*
X136220000Y-82644401D01*
X136218796Y-82668905D01*
X136215196Y-82693173D01*
X136209235Y-82716972D01*
X136200970Y-82740071D01*
X136190480Y-82762250D01*
X136177868Y-82783293D01*
X136163253Y-82802999D01*
X136146777Y-82821177D01*
X136128599Y-82837653D01*
X136108893Y-82852268D01*
X136087850Y-82864880D01*
X136065671Y-82875370D01*
X136042572Y-82883635D01*
X136018773Y-82889596D01*
X135994505Y-82893196D01*
X135970001Y-82894400D01*
X135319999Y-82894400D01*
X135295495Y-82893196D01*
X135271227Y-82889596D01*
X135247428Y-82883635D01*
X135224329Y-82875370D01*
X135202150Y-82864880D01*
X135181107Y-82852268D01*
X135161401Y-82837653D01*
X135143223Y-82821177D01*
X135126747Y-82802999D01*
X135112132Y-82783293D01*
X135099520Y-82762250D01*
X135089030Y-82740071D01*
X135080765Y-82716972D01*
X135074804Y-82693173D01*
X135071204Y-82668905D01*
X135070000Y-82644401D01*
X135070000Y-81744399D01*
X135071204Y-81719895D01*
X135074804Y-81695627D01*
X135080765Y-81671828D01*
X135089030Y-81648729D01*
X135099520Y-81626550D01*
X135112132Y-81605507D01*
X135126747Y-81585801D01*
X135143223Y-81567623D01*
X135161401Y-81551147D01*
X135181107Y-81536532D01*
X135202150Y-81523920D01*
X135224329Y-81513430D01*
X135247428Y-81505165D01*
X135271227Y-81499204D01*
X135295495Y-81495604D01*
X135319999Y-81494400D01*
X135970001Y-81494400D01*
X135994505Y-81495604D01*
X135994505Y-81495604D01*
G37*
D11*
G04 #@! TD*
G04 #@! TO.P,CBYPP1,1*
G04 #@! TO.N,GND*
X135645000Y-82194400D03*
D10*
G04 #@! TO.N,Net-(CFLY1-Pad1)*
G04 #@! TO.C,CFLY1*
G36*
X128483505Y-87312204D02*
X128507773Y-87315804D01*
X128531572Y-87321765D01*
X128554671Y-87330030D01*
X128576850Y-87340520D01*
X128597893Y-87353132D01*
X128617599Y-87367747D01*
X128635777Y-87384223D01*
X128652253Y-87402401D01*
X128666868Y-87422107D01*
X128679480Y-87443150D01*
X128689970Y-87465329D01*
X128698235Y-87488428D01*
X128704196Y-87512227D01*
X128707796Y-87536495D01*
X128709000Y-87560999D01*
X128709000Y-88461001D01*
X128707796Y-88485505D01*
X128704196Y-88509773D01*
X128698235Y-88533572D01*
X128689970Y-88556671D01*
X128679480Y-88578850D01*
X128666868Y-88599893D01*
X128652253Y-88619599D01*
X128635777Y-88637777D01*
X128617599Y-88654253D01*
X128597893Y-88668868D01*
X128576850Y-88681480D01*
X128554671Y-88691970D01*
X128531572Y-88700235D01*
X128507773Y-88706196D01*
X128483505Y-88709796D01*
X128459001Y-88711000D01*
X127808999Y-88711000D01*
X127784495Y-88709796D01*
X127760227Y-88706196D01*
X127736428Y-88700235D01*
X127713329Y-88691970D01*
X127691150Y-88681480D01*
X127670107Y-88668868D01*
X127650401Y-88654253D01*
X127632223Y-88637777D01*
X127615747Y-88619599D01*
X127601132Y-88599893D01*
X127588520Y-88578850D01*
X127578030Y-88556671D01*
X127569765Y-88533572D01*
X127563804Y-88509773D01*
X127560204Y-88485505D01*
X127559000Y-88461001D01*
X127559000Y-87560999D01*
X127560204Y-87536495D01*
X127563804Y-87512227D01*
X127569765Y-87488428D01*
X127578030Y-87465329D01*
X127588520Y-87443150D01*
X127601132Y-87422107D01*
X127615747Y-87402401D01*
X127632223Y-87384223D01*
X127650401Y-87367747D01*
X127670107Y-87353132D01*
X127691150Y-87340520D01*
X127713329Y-87330030D01*
X127736428Y-87321765D01*
X127760227Y-87315804D01*
X127784495Y-87312204D01*
X127808999Y-87311000D01*
X128459001Y-87311000D01*
X128483505Y-87312204D01*
X128483505Y-87312204D01*
G37*
D11*
G04 #@! TD*
G04 #@! TO.P,CFLY1,1*
G04 #@! TO.N,Net-(CFLY1-Pad1)*
X128134000Y-88011000D03*
D10*
G04 #@! TO.N,Net-(CFLY1-Pad2)*
G04 #@! TO.C,CFLY1*
G36*
X130533505Y-87312204D02*
X130557773Y-87315804D01*
X130581572Y-87321765D01*
X130604671Y-87330030D01*
X130626850Y-87340520D01*
X130647893Y-87353132D01*
X130667599Y-87367747D01*
X130685777Y-87384223D01*
X130702253Y-87402401D01*
X130716868Y-87422107D01*
X130729480Y-87443150D01*
X130739970Y-87465329D01*
X130748235Y-87488428D01*
X130754196Y-87512227D01*
X130757796Y-87536495D01*
X130759000Y-87560999D01*
X130759000Y-88461001D01*
X130757796Y-88485505D01*
X130754196Y-88509773D01*
X130748235Y-88533572D01*
X130739970Y-88556671D01*
X130729480Y-88578850D01*
X130716868Y-88599893D01*
X130702253Y-88619599D01*
X130685777Y-88637777D01*
X130667599Y-88654253D01*
X130647893Y-88668868D01*
X130626850Y-88681480D01*
X130604671Y-88691970D01*
X130581572Y-88700235D01*
X130557773Y-88706196D01*
X130533505Y-88709796D01*
X130509001Y-88711000D01*
X129858999Y-88711000D01*
X129834495Y-88709796D01*
X129810227Y-88706196D01*
X129786428Y-88700235D01*
X129763329Y-88691970D01*
X129741150Y-88681480D01*
X129720107Y-88668868D01*
X129700401Y-88654253D01*
X129682223Y-88637777D01*
X129665747Y-88619599D01*
X129651132Y-88599893D01*
X129638520Y-88578850D01*
X129628030Y-88556671D01*
X129619765Y-88533572D01*
X129613804Y-88509773D01*
X129610204Y-88485505D01*
X129609000Y-88461001D01*
X129609000Y-87560999D01*
X129610204Y-87536495D01*
X129613804Y-87512227D01*
X129619765Y-87488428D01*
X129628030Y-87465329D01*
X129638520Y-87443150D01*
X129651132Y-87422107D01*
X129665747Y-87402401D01*
X129682223Y-87384223D01*
X129700401Y-87367747D01*
X129720107Y-87353132D01*
X129741150Y-87340520D01*
X129763329Y-87330030D01*
X129786428Y-87321765D01*
X129810227Y-87315804D01*
X129834495Y-87312204D01*
X129858999Y-87311000D01*
X130509001Y-87311000D01*
X130533505Y-87312204D01*
X130533505Y-87312204D01*
G37*
D11*
G04 #@! TD*
G04 #@! TO.P,CFLY1,2*
G04 #@! TO.N,Net-(CFLY1-Pad2)*
X130184000Y-88011000D03*
D10*
G04 #@! TO.N,Net-(CFLY2-Pad2)*
G04 #@! TO.C,CFLY2*
G36*
X123911505Y-76580704D02*
X123935773Y-76584304D01*
X123959572Y-76590265D01*
X123982671Y-76598530D01*
X124004850Y-76609020D01*
X124025893Y-76621632D01*
X124045599Y-76636247D01*
X124063777Y-76652723D01*
X124080253Y-76670901D01*
X124094868Y-76690607D01*
X124107480Y-76711650D01*
X124117970Y-76733829D01*
X124126235Y-76756928D01*
X124132196Y-76780727D01*
X124135796Y-76804995D01*
X124137000Y-76829499D01*
X124137000Y-77729501D01*
X124135796Y-77754005D01*
X124132196Y-77778273D01*
X124126235Y-77802072D01*
X124117970Y-77825171D01*
X124107480Y-77847350D01*
X124094868Y-77868393D01*
X124080253Y-77888099D01*
X124063777Y-77906277D01*
X124045599Y-77922753D01*
X124025893Y-77937368D01*
X124004850Y-77949980D01*
X123982671Y-77960470D01*
X123959572Y-77968735D01*
X123935773Y-77974696D01*
X123911505Y-77978296D01*
X123887001Y-77979500D01*
X123236999Y-77979500D01*
X123212495Y-77978296D01*
X123188227Y-77974696D01*
X123164428Y-77968735D01*
X123141329Y-77960470D01*
X123119150Y-77949980D01*
X123098107Y-77937368D01*
X123078401Y-77922753D01*
X123060223Y-77906277D01*
X123043747Y-77888099D01*
X123029132Y-77868393D01*
X123016520Y-77847350D01*
X123006030Y-77825171D01*
X122997765Y-77802072D01*
X122991804Y-77778273D01*
X122988204Y-77754005D01*
X122987000Y-77729501D01*
X122987000Y-76829499D01*
X122988204Y-76804995D01*
X122991804Y-76780727D01*
X122997765Y-76756928D01*
X123006030Y-76733829D01*
X123016520Y-76711650D01*
X123029132Y-76690607D01*
X123043747Y-76670901D01*
X123060223Y-76652723D01*
X123078401Y-76636247D01*
X123098107Y-76621632D01*
X123119150Y-76609020D01*
X123141329Y-76598530D01*
X123164428Y-76590265D01*
X123188227Y-76584304D01*
X123212495Y-76580704D01*
X123236999Y-76579500D01*
X123887001Y-76579500D01*
X123911505Y-76580704D01*
X123911505Y-76580704D01*
G37*
D11*
G04 #@! TD*
G04 #@! TO.P,CFLY2,2*
G04 #@! TO.N,Net-(CFLY2-Pad2)*
X123562000Y-77279500D03*
D10*
G04 #@! TO.N,Net-(CFLY2-Pad1)*
G04 #@! TO.C,CFLY2*
G36*
X125961505Y-76580704D02*
X125985773Y-76584304D01*
X126009572Y-76590265D01*
X126032671Y-76598530D01*
X126054850Y-76609020D01*
X126075893Y-76621632D01*
X126095599Y-76636247D01*
X126113777Y-76652723D01*
X126130253Y-76670901D01*
X126144868Y-76690607D01*
X126157480Y-76711650D01*
X126167970Y-76733829D01*
X126176235Y-76756928D01*
X126182196Y-76780727D01*
X126185796Y-76804995D01*
X126187000Y-76829499D01*
X126187000Y-77729501D01*
X126185796Y-77754005D01*
X126182196Y-77778273D01*
X126176235Y-77802072D01*
X126167970Y-77825171D01*
X126157480Y-77847350D01*
X126144868Y-77868393D01*
X126130253Y-77888099D01*
X126113777Y-77906277D01*
X126095599Y-77922753D01*
X126075893Y-77937368D01*
X126054850Y-77949980D01*
X126032671Y-77960470D01*
X126009572Y-77968735D01*
X125985773Y-77974696D01*
X125961505Y-77978296D01*
X125937001Y-77979500D01*
X125286999Y-77979500D01*
X125262495Y-77978296D01*
X125238227Y-77974696D01*
X125214428Y-77968735D01*
X125191329Y-77960470D01*
X125169150Y-77949980D01*
X125148107Y-77937368D01*
X125128401Y-77922753D01*
X125110223Y-77906277D01*
X125093747Y-77888099D01*
X125079132Y-77868393D01*
X125066520Y-77847350D01*
X125056030Y-77825171D01*
X125047765Y-77802072D01*
X125041804Y-77778273D01*
X125038204Y-77754005D01*
X125037000Y-77729501D01*
X125037000Y-76829499D01*
X125038204Y-76804995D01*
X125041804Y-76780727D01*
X125047765Y-76756928D01*
X125056030Y-76733829D01*
X125066520Y-76711650D01*
X125079132Y-76690607D01*
X125093747Y-76670901D01*
X125110223Y-76652723D01*
X125128401Y-76636247D01*
X125148107Y-76621632D01*
X125169150Y-76609020D01*
X125191329Y-76598530D01*
X125214428Y-76590265D01*
X125238227Y-76584304D01*
X125262495Y-76580704D01*
X125286999Y-76579500D01*
X125937001Y-76579500D01*
X125961505Y-76580704D01*
X125961505Y-76580704D01*
G37*
D11*
G04 #@! TD*
G04 #@! TO.P,CFLY2,1*
G04 #@! TO.N,Net-(CFLY2-Pad1)*
X125612000Y-77279500D03*
D10*
G04 #@! TO.N,GND*
G04 #@! TO.C,Cin1*
G36*
X116298505Y-80189204D02*
X116322773Y-80192804D01*
X116346572Y-80198765D01*
X116369671Y-80207030D01*
X116391850Y-80217520D01*
X116412893Y-80230132D01*
X116432599Y-80244747D01*
X116450777Y-80261223D01*
X116467253Y-80279401D01*
X116481868Y-80299107D01*
X116494480Y-80320150D01*
X116504970Y-80342329D01*
X116513235Y-80365428D01*
X116519196Y-80389227D01*
X116522796Y-80413495D01*
X116524000Y-80437999D01*
X116524000Y-81088001D01*
X116522796Y-81112505D01*
X116519196Y-81136773D01*
X116513235Y-81160572D01*
X116504970Y-81183671D01*
X116494480Y-81205850D01*
X116481868Y-81226893D01*
X116467253Y-81246599D01*
X116450777Y-81264777D01*
X116432599Y-81281253D01*
X116412893Y-81295868D01*
X116391850Y-81308480D01*
X116369671Y-81318970D01*
X116346572Y-81327235D01*
X116322773Y-81333196D01*
X116298505Y-81336796D01*
X116274001Y-81338000D01*
X115373999Y-81338000D01*
X115349495Y-81336796D01*
X115325227Y-81333196D01*
X115301428Y-81327235D01*
X115278329Y-81318970D01*
X115256150Y-81308480D01*
X115235107Y-81295868D01*
X115215401Y-81281253D01*
X115197223Y-81264777D01*
X115180747Y-81246599D01*
X115166132Y-81226893D01*
X115153520Y-81205850D01*
X115143030Y-81183671D01*
X115134765Y-81160572D01*
X115128804Y-81136773D01*
X115125204Y-81112505D01*
X115124000Y-81088001D01*
X115124000Y-80437999D01*
X115125204Y-80413495D01*
X115128804Y-80389227D01*
X115134765Y-80365428D01*
X115143030Y-80342329D01*
X115153520Y-80320150D01*
X115166132Y-80299107D01*
X115180747Y-80279401D01*
X115197223Y-80261223D01*
X115215401Y-80244747D01*
X115235107Y-80230132D01*
X115256150Y-80217520D01*
X115278329Y-80207030D01*
X115301428Y-80198765D01*
X115325227Y-80192804D01*
X115349495Y-80189204D01*
X115373999Y-80188000D01*
X116274001Y-80188000D01*
X116298505Y-80189204D01*
X116298505Y-80189204D01*
G37*
D11*
G04 #@! TD*
G04 #@! TO.P,Cin1,2*
G04 #@! TO.N,GND*
X115824000Y-80763000D03*
D10*
G04 #@! TO.N,+9V*
G04 #@! TO.C,Cin1*
G36*
X116298505Y-82239204D02*
X116322773Y-82242804D01*
X116346572Y-82248765D01*
X116369671Y-82257030D01*
X116391850Y-82267520D01*
X116412893Y-82280132D01*
X116432599Y-82294747D01*
X116450777Y-82311223D01*
X116467253Y-82329401D01*
X116481868Y-82349107D01*
X116494480Y-82370150D01*
X116504970Y-82392329D01*
X116513235Y-82415428D01*
X116519196Y-82439227D01*
X116522796Y-82463495D01*
X116524000Y-82487999D01*
X116524000Y-83138001D01*
X116522796Y-83162505D01*
X116519196Y-83186773D01*
X116513235Y-83210572D01*
X116504970Y-83233671D01*
X116494480Y-83255850D01*
X116481868Y-83276893D01*
X116467253Y-83296599D01*
X116450777Y-83314777D01*
X116432599Y-83331253D01*
X116412893Y-83345868D01*
X116391850Y-83358480D01*
X116369671Y-83368970D01*
X116346572Y-83377235D01*
X116322773Y-83383196D01*
X116298505Y-83386796D01*
X116274001Y-83388000D01*
X115373999Y-83388000D01*
X115349495Y-83386796D01*
X115325227Y-83383196D01*
X115301428Y-83377235D01*
X115278329Y-83368970D01*
X115256150Y-83358480D01*
X115235107Y-83345868D01*
X115215401Y-83331253D01*
X115197223Y-83314777D01*
X115180747Y-83296599D01*
X115166132Y-83276893D01*
X115153520Y-83255850D01*
X115143030Y-83233671D01*
X115134765Y-83210572D01*
X115128804Y-83186773D01*
X115125204Y-83162505D01*
X115124000Y-83138001D01*
X115124000Y-82487999D01*
X115125204Y-82463495D01*
X115128804Y-82439227D01*
X115134765Y-82415428D01*
X115143030Y-82392329D01*
X115153520Y-82370150D01*
X115166132Y-82349107D01*
X115180747Y-82329401D01*
X115197223Y-82311223D01*
X115215401Y-82294747D01*
X115235107Y-82280132D01*
X115256150Y-82267520D01*
X115278329Y-82257030D01*
X115301428Y-82248765D01*
X115325227Y-82242804D01*
X115349495Y-82239204D01*
X115373999Y-82238000D01*
X116274001Y-82238000D01*
X116298505Y-82239204D01*
X116298505Y-82239204D01*
G37*
D11*
G04 #@! TD*
G04 #@! TO.P,Cin1,1*
G04 #@! TO.N,+9V*
X115824000Y-82813000D03*
D10*
G04 #@! TO.N,+9V*
G04 #@! TO.C,Cin2*
G36*
X120754505Y-80200204D02*
X120778773Y-80203804D01*
X120802572Y-80209765D01*
X120825671Y-80218030D01*
X120847850Y-80228520D01*
X120868893Y-80241132D01*
X120888599Y-80255747D01*
X120906777Y-80272223D01*
X120923253Y-80290401D01*
X120937868Y-80310107D01*
X120950480Y-80331150D01*
X120960970Y-80353329D01*
X120969235Y-80376428D01*
X120975196Y-80400227D01*
X120978796Y-80424495D01*
X120980000Y-80448999D01*
X120980000Y-81349001D01*
X120978796Y-81373505D01*
X120975196Y-81397773D01*
X120969235Y-81421572D01*
X120960970Y-81444671D01*
X120950480Y-81466850D01*
X120937868Y-81487893D01*
X120923253Y-81507599D01*
X120906777Y-81525777D01*
X120888599Y-81542253D01*
X120868893Y-81556868D01*
X120847850Y-81569480D01*
X120825671Y-81579970D01*
X120802572Y-81588235D01*
X120778773Y-81594196D01*
X120754505Y-81597796D01*
X120730001Y-81599000D01*
X120079999Y-81599000D01*
X120055495Y-81597796D01*
X120031227Y-81594196D01*
X120007428Y-81588235D01*
X119984329Y-81579970D01*
X119962150Y-81569480D01*
X119941107Y-81556868D01*
X119921401Y-81542253D01*
X119903223Y-81525777D01*
X119886747Y-81507599D01*
X119872132Y-81487893D01*
X119859520Y-81466850D01*
X119849030Y-81444671D01*
X119840765Y-81421572D01*
X119834804Y-81397773D01*
X119831204Y-81373505D01*
X119830000Y-81349001D01*
X119830000Y-80448999D01*
X119831204Y-80424495D01*
X119834804Y-80400227D01*
X119840765Y-80376428D01*
X119849030Y-80353329D01*
X119859520Y-80331150D01*
X119872132Y-80310107D01*
X119886747Y-80290401D01*
X119903223Y-80272223D01*
X119921401Y-80255747D01*
X119941107Y-80241132D01*
X119962150Y-80228520D01*
X119984329Y-80218030D01*
X120007428Y-80209765D01*
X120031227Y-80203804D01*
X120055495Y-80200204D01*
X120079999Y-80199000D01*
X120730001Y-80199000D01*
X120754505Y-80200204D01*
X120754505Y-80200204D01*
G37*
D11*
G04 #@! TD*
G04 #@! TO.P,Cin2,1*
G04 #@! TO.N,+9V*
X120405000Y-80899000D03*
D10*
G04 #@! TO.N,GND*
G04 #@! TO.C,Cin2*
G36*
X118704505Y-80200204D02*
X118728773Y-80203804D01*
X118752572Y-80209765D01*
X118775671Y-80218030D01*
X118797850Y-80228520D01*
X118818893Y-80241132D01*
X118838599Y-80255747D01*
X118856777Y-80272223D01*
X118873253Y-80290401D01*
X118887868Y-80310107D01*
X118900480Y-80331150D01*
X118910970Y-80353329D01*
X118919235Y-80376428D01*
X118925196Y-80400227D01*
X118928796Y-80424495D01*
X118930000Y-80448999D01*
X118930000Y-81349001D01*
X118928796Y-81373505D01*
X118925196Y-81397773D01*
X118919235Y-81421572D01*
X118910970Y-81444671D01*
X118900480Y-81466850D01*
X118887868Y-81487893D01*
X118873253Y-81507599D01*
X118856777Y-81525777D01*
X118838599Y-81542253D01*
X118818893Y-81556868D01*
X118797850Y-81569480D01*
X118775671Y-81579970D01*
X118752572Y-81588235D01*
X118728773Y-81594196D01*
X118704505Y-81597796D01*
X118680001Y-81599000D01*
X118029999Y-81599000D01*
X118005495Y-81597796D01*
X117981227Y-81594196D01*
X117957428Y-81588235D01*
X117934329Y-81579970D01*
X117912150Y-81569480D01*
X117891107Y-81556868D01*
X117871401Y-81542253D01*
X117853223Y-81525777D01*
X117836747Y-81507599D01*
X117822132Y-81487893D01*
X117809520Y-81466850D01*
X117799030Y-81444671D01*
X117790765Y-81421572D01*
X117784804Y-81397773D01*
X117781204Y-81373505D01*
X117780000Y-81349001D01*
X117780000Y-80448999D01*
X117781204Y-80424495D01*
X117784804Y-80400227D01*
X117790765Y-80376428D01*
X117799030Y-80353329D01*
X117809520Y-80331150D01*
X117822132Y-80310107D01*
X117836747Y-80290401D01*
X117853223Y-80272223D01*
X117871401Y-80255747D01*
X117891107Y-80241132D01*
X117912150Y-80228520D01*
X117934329Y-80218030D01*
X117957428Y-80209765D01*
X117981227Y-80203804D01*
X118005495Y-80200204D01*
X118029999Y-80199000D01*
X118680001Y-80199000D01*
X118704505Y-80200204D01*
X118704505Y-80200204D01*
G37*
D11*
G04 #@! TD*
G04 #@! TO.P,Cin2,2*
G04 #@! TO.N,GND*
X118355000Y-80899000D03*
D10*
G04 #@! TO.N,GND*
G04 #@! TO.C,CLDON1*
G36*
X121326005Y-89852204D02*
X121350273Y-89855804D01*
X121374072Y-89861765D01*
X121397171Y-89870030D01*
X121419350Y-89880520D01*
X121440393Y-89893132D01*
X121460099Y-89907747D01*
X121478277Y-89924223D01*
X121494753Y-89942401D01*
X121509368Y-89962107D01*
X121521980Y-89983150D01*
X121532470Y-90005329D01*
X121540735Y-90028428D01*
X121546696Y-90052227D01*
X121550296Y-90076495D01*
X121551500Y-90100999D01*
X121551500Y-91001001D01*
X121550296Y-91025505D01*
X121546696Y-91049773D01*
X121540735Y-91073572D01*
X121532470Y-91096671D01*
X121521980Y-91118850D01*
X121509368Y-91139893D01*
X121494753Y-91159599D01*
X121478277Y-91177777D01*
X121460099Y-91194253D01*
X121440393Y-91208868D01*
X121419350Y-91221480D01*
X121397171Y-91231970D01*
X121374072Y-91240235D01*
X121350273Y-91246196D01*
X121326005Y-91249796D01*
X121301501Y-91251000D01*
X120651499Y-91251000D01*
X120626995Y-91249796D01*
X120602727Y-91246196D01*
X120578928Y-91240235D01*
X120555829Y-91231970D01*
X120533650Y-91221480D01*
X120512607Y-91208868D01*
X120492901Y-91194253D01*
X120474723Y-91177777D01*
X120458247Y-91159599D01*
X120443632Y-91139893D01*
X120431020Y-91118850D01*
X120420530Y-91096671D01*
X120412265Y-91073572D01*
X120406304Y-91049773D01*
X120402704Y-91025505D01*
X120401500Y-91001001D01*
X120401500Y-90100999D01*
X120402704Y-90076495D01*
X120406304Y-90052227D01*
X120412265Y-90028428D01*
X120420530Y-90005329D01*
X120431020Y-89983150D01*
X120443632Y-89962107D01*
X120458247Y-89942401D01*
X120474723Y-89924223D01*
X120492901Y-89907747D01*
X120512607Y-89893132D01*
X120533650Y-89880520D01*
X120555829Y-89870030D01*
X120578928Y-89861765D01*
X120602727Y-89855804D01*
X120626995Y-89852204D01*
X120651499Y-89851000D01*
X121301501Y-89851000D01*
X121326005Y-89852204D01*
X121326005Y-89852204D01*
G37*
D11*
G04 #@! TD*
G04 #@! TO.P,CLDON1,1*
G04 #@! TO.N,GND*
X120976500Y-90551000D03*
D10*
G04 #@! TO.N,/-15V*
G04 #@! TO.C,CLDON1*
G36*
X119276005Y-89852204D02*
X119300273Y-89855804D01*
X119324072Y-89861765D01*
X119347171Y-89870030D01*
X119369350Y-89880520D01*
X119390393Y-89893132D01*
X119410099Y-89907747D01*
X119428277Y-89924223D01*
X119444753Y-89942401D01*
X119459368Y-89962107D01*
X119471980Y-89983150D01*
X119482470Y-90005329D01*
X119490735Y-90028428D01*
X119496696Y-90052227D01*
X119500296Y-90076495D01*
X119501500Y-90100999D01*
X119501500Y-91001001D01*
X119500296Y-91025505D01*
X119496696Y-91049773D01*
X119490735Y-91073572D01*
X119482470Y-91096671D01*
X119471980Y-91118850D01*
X119459368Y-91139893D01*
X119444753Y-91159599D01*
X119428277Y-91177777D01*
X119410099Y-91194253D01*
X119390393Y-91208868D01*
X119369350Y-91221480D01*
X119347171Y-91231970D01*
X119324072Y-91240235D01*
X119300273Y-91246196D01*
X119276005Y-91249796D01*
X119251501Y-91251000D01*
X118601499Y-91251000D01*
X118576995Y-91249796D01*
X118552727Y-91246196D01*
X118528928Y-91240235D01*
X118505829Y-91231970D01*
X118483650Y-91221480D01*
X118462607Y-91208868D01*
X118442901Y-91194253D01*
X118424723Y-91177777D01*
X118408247Y-91159599D01*
X118393632Y-91139893D01*
X118381020Y-91118850D01*
X118370530Y-91096671D01*
X118362265Y-91073572D01*
X118356304Y-91049773D01*
X118352704Y-91025505D01*
X118351500Y-91001001D01*
X118351500Y-90100999D01*
X118352704Y-90076495D01*
X118356304Y-90052227D01*
X118362265Y-90028428D01*
X118370530Y-90005329D01*
X118381020Y-89983150D01*
X118393632Y-89962107D01*
X118408247Y-89942401D01*
X118424723Y-89924223D01*
X118442901Y-89907747D01*
X118462607Y-89893132D01*
X118483650Y-89880520D01*
X118505829Y-89870030D01*
X118528928Y-89861765D01*
X118552727Y-89855804D01*
X118576995Y-89852204D01*
X118601499Y-89851000D01*
X119251501Y-89851000D01*
X119276005Y-89852204D01*
X119276005Y-89852204D01*
G37*
D11*
G04 #@! TD*
G04 #@! TO.P,CLDON1,2*
G04 #@! TO.N,/-15V*
X118926500Y-90551000D03*
D10*
G04 #@! TO.N,GND*
G04 #@! TO.C,CLDOP1*
G36*
X136502505Y-74510604D02*
X136526773Y-74514204D01*
X136550572Y-74520165D01*
X136573671Y-74528430D01*
X136595850Y-74538920D01*
X136616893Y-74551532D01*
X136636599Y-74566147D01*
X136654777Y-74582623D01*
X136671253Y-74600801D01*
X136685868Y-74620507D01*
X136698480Y-74641550D01*
X136708970Y-74663729D01*
X136717235Y-74686828D01*
X136723196Y-74710627D01*
X136726796Y-74734895D01*
X136728000Y-74759399D01*
X136728000Y-75659401D01*
X136726796Y-75683905D01*
X136723196Y-75708173D01*
X136717235Y-75731972D01*
X136708970Y-75755071D01*
X136698480Y-75777250D01*
X136685868Y-75798293D01*
X136671253Y-75817999D01*
X136654777Y-75836177D01*
X136636599Y-75852653D01*
X136616893Y-75867268D01*
X136595850Y-75879880D01*
X136573671Y-75890370D01*
X136550572Y-75898635D01*
X136526773Y-75904596D01*
X136502505Y-75908196D01*
X136478001Y-75909400D01*
X135827999Y-75909400D01*
X135803495Y-75908196D01*
X135779227Y-75904596D01*
X135755428Y-75898635D01*
X135732329Y-75890370D01*
X135710150Y-75879880D01*
X135689107Y-75867268D01*
X135669401Y-75852653D01*
X135651223Y-75836177D01*
X135634747Y-75817999D01*
X135620132Y-75798293D01*
X135607520Y-75777250D01*
X135597030Y-75755071D01*
X135588765Y-75731972D01*
X135582804Y-75708173D01*
X135579204Y-75683905D01*
X135578000Y-75659401D01*
X135578000Y-74759399D01*
X135579204Y-74734895D01*
X135582804Y-74710627D01*
X135588765Y-74686828D01*
X135597030Y-74663729D01*
X135607520Y-74641550D01*
X135620132Y-74620507D01*
X135634747Y-74600801D01*
X135651223Y-74582623D01*
X135669401Y-74566147D01*
X135689107Y-74551532D01*
X135710150Y-74538920D01*
X135732329Y-74528430D01*
X135755428Y-74520165D01*
X135779227Y-74514204D01*
X135803495Y-74510604D01*
X135827999Y-74509400D01*
X136478001Y-74509400D01*
X136502505Y-74510604D01*
X136502505Y-74510604D01*
G37*
D11*
G04 #@! TD*
G04 #@! TO.P,CLDOP1,2*
G04 #@! TO.N,GND*
X136153000Y-75209400D03*
D10*
G04 #@! TO.N,/+15V*
G04 #@! TO.C,CLDOP1*
G36*
X134452505Y-74510604D02*
X134476773Y-74514204D01*
X134500572Y-74520165D01*
X134523671Y-74528430D01*
X134545850Y-74538920D01*
X134566893Y-74551532D01*
X134586599Y-74566147D01*
X134604777Y-74582623D01*
X134621253Y-74600801D01*
X134635868Y-74620507D01*
X134648480Y-74641550D01*
X134658970Y-74663729D01*
X134667235Y-74686828D01*
X134673196Y-74710627D01*
X134676796Y-74734895D01*
X134678000Y-74759399D01*
X134678000Y-75659401D01*
X134676796Y-75683905D01*
X134673196Y-75708173D01*
X134667235Y-75731972D01*
X134658970Y-75755071D01*
X134648480Y-75777250D01*
X134635868Y-75798293D01*
X134621253Y-75817999D01*
X134604777Y-75836177D01*
X134586599Y-75852653D01*
X134566893Y-75867268D01*
X134545850Y-75879880D01*
X134523671Y-75890370D01*
X134500572Y-75898635D01*
X134476773Y-75904596D01*
X134452505Y-75908196D01*
X134428001Y-75909400D01*
X133777999Y-75909400D01*
X133753495Y-75908196D01*
X133729227Y-75904596D01*
X133705428Y-75898635D01*
X133682329Y-75890370D01*
X133660150Y-75879880D01*
X133639107Y-75867268D01*
X133619401Y-75852653D01*
X133601223Y-75836177D01*
X133584747Y-75817999D01*
X133570132Y-75798293D01*
X133557520Y-75777250D01*
X133547030Y-75755071D01*
X133538765Y-75731972D01*
X133532804Y-75708173D01*
X133529204Y-75683905D01*
X133528000Y-75659401D01*
X133528000Y-74759399D01*
X133529204Y-74734895D01*
X133532804Y-74710627D01*
X133538765Y-74686828D01*
X133547030Y-74663729D01*
X133557520Y-74641550D01*
X133570132Y-74620507D01*
X133584747Y-74600801D01*
X133601223Y-74582623D01*
X133619401Y-74566147D01*
X133639107Y-74551532D01*
X133660150Y-74538920D01*
X133682329Y-74528430D01*
X133705428Y-74520165D01*
X133729227Y-74514204D01*
X133753495Y-74510604D01*
X133777999Y-74509400D01*
X134428001Y-74509400D01*
X134452505Y-74510604D01*
X134452505Y-74510604D01*
G37*
D11*
G04 #@! TD*
G04 #@! TO.P,CLDOP1,1*
G04 #@! TO.N,/+15V*
X134103000Y-75209400D03*
D10*
G04 #@! TO.N,/-15V*
G04 #@! TO.C,COPTN1*
G36*
X118775005Y-87700204D02*
X118799273Y-87703804D01*
X118823072Y-87709765D01*
X118846171Y-87718030D01*
X118868350Y-87728520D01*
X118889393Y-87741132D01*
X118909099Y-87755747D01*
X118927277Y-87772223D01*
X118943753Y-87790401D01*
X118958368Y-87810107D01*
X118970980Y-87831150D01*
X118981470Y-87853329D01*
X118989735Y-87876428D01*
X118995696Y-87900227D01*
X118999296Y-87924495D01*
X119000500Y-87948999D01*
X119000500Y-88599001D01*
X118999296Y-88623505D01*
X118995696Y-88647773D01*
X118989735Y-88671572D01*
X118981470Y-88694671D01*
X118970980Y-88716850D01*
X118958368Y-88737893D01*
X118943753Y-88757599D01*
X118927277Y-88775777D01*
X118909099Y-88792253D01*
X118889393Y-88806868D01*
X118868350Y-88819480D01*
X118846171Y-88829970D01*
X118823072Y-88838235D01*
X118799273Y-88844196D01*
X118775005Y-88847796D01*
X118750501Y-88849000D01*
X117850499Y-88849000D01*
X117825995Y-88847796D01*
X117801727Y-88844196D01*
X117777928Y-88838235D01*
X117754829Y-88829970D01*
X117732650Y-88819480D01*
X117711607Y-88806868D01*
X117691901Y-88792253D01*
X117673723Y-88775777D01*
X117657247Y-88757599D01*
X117642632Y-88737893D01*
X117630020Y-88716850D01*
X117619530Y-88694671D01*
X117611265Y-88671572D01*
X117605304Y-88647773D01*
X117601704Y-88623505D01*
X117600500Y-88599001D01*
X117600500Y-87948999D01*
X117601704Y-87924495D01*
X117605304Y-87900227D01*
X117611265Y-87876428D01*
X117619530Y-87853329D01*
X117630020Y-87831150D01*
X117642632Y-87810107D01*
X117657247Y-87790401D01*
X117673723Y-87772223D01*
X117691901Y-87755747D01*
X117711607Y-87741132D01*
X117732650Y-87728520D01*
X117754829Y-87718030D01*
X117777928Y-87709765D01*
X117801727Y-87703804D01*
X117825995Y-87700204D01*
X117850499Y-87699000D01*
X118750501Y-87699000D01*
X118775005Y-87700204D01*
X118775005Y-87700204D01*
G37*
D11*
G04 #@! TD*
G04 #@! TO.P,COPTN1,1*
G04 #@! TO.N,/-15V*
X118300500Y-88274000D03*
D10*
G04 #@! TO.N,/ADJ-*
G04 #@! TO.C,COPTN1*
G36*
X118775005Y-85650204D02*
X118799273Y-85653804D01*
X118823072Y-85659765D01*
X118846171Y-85668030D01*
X118868350Y-85678520D01*
X118889393Y-85691132D01*
X118909099Y-85705747D01*
X118927277Y-85722223D01*
X118943753Y-85740401D01*
X118958368Y-85760107D01*
X118970980Y-85781150D01*
X118981470Y-85803329D01*
X118989735Y-85826428D01*
X118995696Y-85850227D01*
X118999296Y-85874495D01*
X119000500Y-85898999D01*
X119000500Y-86549001D01*
X118999296Y-86573505D01*
X118995696Y-86597773D01*
X118989735Y-86621572D01*
X118981470Y-86644671D01*
X118970980Y-86666850D01*
X118958368Y-86687893D01*
X118943753Y-86707599D01*
X118927277Y-86725777D01*
X118909099Y-86742253D01*
X118889393Y-86756868D01*
X118868350Y-86769480D01*
X118846171Y-86779970D01*
X118823072Y-86788235D01*
X118799273Y-86794196D01*
X118775005Y-86797796D01*
X118750501Y-86799000D01*
X117850499Y-86799000D01*
X117825995Y-86797796D01*
X117801727Y-86794196D01*
X117777928Y-86788235D01*
X117754829Y-86779970D01*
X117732650Y-86769480D01*
X117711607Y-86756868D01*
X117691901Y-86742253D01*
X117673723Y-86725777D01*
X117657247Y-86707599D01*
X117642632Y-86687893D01*
X117630020Y-86666850D01*
X117619530Y-86644671D01*
X117611265Y-86621572D01*
X117605304Y-86597773D01*
X117601704Y-86573505D01*
X117600500Y-86549001D01*
X117600500Y-85898999D01*
X117601704Y-85874495D01*
X117605304Y-85850227D01*
X117611265Y-85826428D01*
X117619530Y-85803329D01*
X117630020Y-85781150D01*
X117642632Y-85760107D01*
X117657247Y-85740401D01*
X117673723Y-85722223D01*
X117691901Y-85705747D01*
X117711607Y-85691132D01*
X117732650Y-85678520D01*
X117754829Y-85668030D01*
X117777928Y-85659765D01*
X117801727Y-85653804D01*
X117825995Y-85650204D01*
X117850499Y-85649000D01*
X118750501Y-85649000D01*
X118775005Y-85650204D01*
X118775005Y-85650204D01*
G37*
D11*
G04 #@! TD*
G04 #@! TO.P,COPTN1,2*
G04 #@! TO.N,/ADJ-*
X118300500Y-86224000D03*
D10*
G04 #@! TO.N,/+15V*
G04 #@! TO.C,COPTP1*
G36*
X134205505Y-77166604D02*
X134229773Y-77170204D01*
X134253572Y-77176165D01*
X134276671Y-77184430D01*
X134298850Y-77194920D01*
X134319893Y-77207532D01*
X134339599Y-77222147D01*
X134357777Y-77238623D01*
X134374253Y-77256801D01*
X134388868Y-77276507D01*
X134401480Y-77297550D01*
X134411970Y-77319729D01*
X134420235Y-77342828D01*
X134426196Y-77366627D01*
X134429796Y-77390895D01*
X134431000Y-77415399D01*
X134431000Y-78065401D01*
X134429796Y-78089905D01*
X134426196Y-78114173D01*
X134420235Y-78137972D01*
X134411970Y-78161071D01*
X134401480Y-78183250D01*
X134388868Y-78204293D01*
X134374253Y-78223999D01*
X134357777Y-78242177D01*
X134339599Y-78258653D01*
X134319893Y-78273268D01*
X134298850Y-78285880D01*
X134276671Y-78296370D01*
X134253572Y-78304635D01*
X134229773Y-78310596D01*
X134205505Y-78314196D01*
X134181001Y-78315400D01*
X133280999Y-78315400D01*
X133256495Y-78314196D01*
X133232227Y-78310596D01*
X133208428Y-78304635D01*
X133185329Y-78296370D01*
X133163150Y-78285880D01*
X133142107Y-78273268D01*
X133122401Y-78258653D01*
X133104223Y-78242177D01*
X133087747Y-78223999D01*
X133073132Y-78204293D01*
X133060520Y-78183250D01*
X133050030Y-78161071D01*
X133041765Y-78137972D01*
X133035804Y-78114173D01*
X133032204Y-78089905D01*
X133031000Y-78065401D01*
X133031000Y-77415399D01*
X133032204Y-77390895D01*
X133035804Y-77366627D01*
X133041765Y-77342828D01*
X133050030Y-77319729D01*
X133060520Y-77297550D01*
X133073132Y-77276507D01*
X133087747Y-77256801D01*
X133104223Y-77238623D01*
X133122401Y-77222147D01*
X133142107Y-77207532D01*
X133163150Y-77194920D01*
X133185329Y-77184430D01*
X133208428Y-77176165D01*
X133232227Y-77170204D01*
X133256495Y-77166604D01*
X133280999Y-77165400D01*
X134181001Y-77165400D01*
X134205505Y-77166604D01*
X134205505Y-77166604D01*
G37*
D11*
G04 #@! TD*
G04 #@! TO.P,COPTP1,2*
G04 #@! TO.N,/+15V*
X133731000Y-77740400D03*
D10*
G04 #@! TO.N,/ADJ+*
G04 #@! TO.C,COPTP1*
G36*
X134205505Y-79216604D02*
X134229773Y-79220204D01*
X134253572Y-79226165D01*
X134276671Y-79234430D01*
X134298850Y-79244920D01*
X134319893Y-79257532D01*
X134339599Y-79272147D01*
X134357777Y-79288623D01*
X134374253Y-79306801D01*
X134388868Y-79326507D01*
X134401480Y-79347550D01*
X134411970Y-79369729D01*
X134420235Y-79392828D01*
X134426196Y-79416627D01*
X134429796Y-79440895D01*
X134431000Y-79465399D01*
X134431000Y-80115401D01*
X134429796Y-80139905D01*
X134426196Y-80164173D01*
X134420235Y-80187972D01*
X134411970Y-80211071D01*
X134401480Y-80233250D01*
X134388868Y-80254293D01*
X134374253Y-80273999D01*
X134357777Y-80292177D01*
X134339599Y-80308653D01*
X134319893Y-80323268D01*
X134298850Y-80335880D01*
X134276671Y-80346370D01*
X134253572Y-80354635D01*
X134229773Y-80360596D01*
X134205505Y-80364196D01*
X134181001Y-80365400D01*
X133280999Y-80365400D01*
X133256495Y-80364196D01*
X133232227Y-80360596D01*
X133208428Y-80354635D01*
X133185329Y-80346370D01*
X133163150Y-80335880D01*
X133142107Y-80323268D01*
X133122401Y-80308653D01*
X133104223Y-80292177D01*
X133087747Y-80273999D01*
X133073132Y-80254293D01*
X133060520Y-80233250D01*
X133050030Y-80211071D01*
X133041765Y-80187972D01*
X133035804Y-80164173D01*
X133032204Y-80139905D01*
X133031000Y-80115401D01*
X133031000Y-79465399D01*
X133032204Y-79440895D01*
X133035804Y-79416627D01*
X133041765Y-79392828D01*
X133050030Y-79369729D01*
X133060520Y-79347550D01*
X133073132Y-79326507D01*
X133087747Y-79306801D01*
X133104223Y-79288623D01*
X133122401Y-79272147D01*
X133142107Y-79257532D01*
X133163150Y-79244920D01*
X133185329Y-79234430D01*
X133208428Y-79226165D01*
X133232227Y-79220204D01*
X133256495Y-79216604D01*
X133280999Y-79215400D01*
X134181001Y-79215400D01*
X134205505Y-79216604D01*
X134205505Y-79216604D01*
G37*
D11*
G04 #@! TD*
G04 #@! TO.P,COPTP1,1*
G04 #@! TO.N,/ADJ+*
X133731000Y-79790400D03*
D10*
G04 #@! TO.N,Net-(CVOUTN1-Pad1)*
G04 #@! TO.C,CVOUTN1*
G36*
X124165505Y-87312204D02*
X124189773Y-87315804D01*
X124213572Y-87321765D01*
X124236671Y-87330030D01*
X124258850Y-87340520D01*
X124279893Y-87353132D01*
X124299599Y-87367747D01*
X124317777Y-87384223D01*
X124334253Y-87402401D01*
X124348868Y-87422107D01*
X124361480Y-87443150D01*
X124371970Y-87465329D01*
X124380235Y-87488428D01*
X124386196Y-87512227D01*
X124389796Y-87536495D01*
X124391000Y-87560999D01*
X124391000Y-88461001D01*
X124389796Y-88485505D01*
X124386196Y-88509773D01*
X124380235Y-88533572D01*
X124371970Y-88556671D01*
X124361480Y-88578850D01*
X124348868Y-88599893D01*
X124334253Y-88619599D01*
X124317777Y-88637777D01*
X124299599Y-88654253D01*
X124279893Y-88668868D01*
X124258850Y-88681480D01*
X124236671Y-88691970D01*
X124213572Y-88700235D01*
X124189773Y-88706196D01*
X124165505Y-88709796D01*
X124141001Y-88711000D01*
X123490999Y-88711000D01*
X123466495Y-88709796D01*
X123442227Y-88706196D01*
X123418428Y-88700235D01*
X123395329Y-88691970D01*
X123373150Y-88681480D01*
X123352107Y-88668868D01*
X123332401Y-88654253D01*
X123314223Y-88637777D01*
X123297747Y-88619599D01*
X123283132Y-88599893D01*
X123270520Y-88578850D01*
X123260030Y-88556671D01*
X123251765Y-88533572D01*
X123245804Y-88509773D01*
X123242204Y-88485505D01*
X123241000Y-88461001D01*
X123241000Y-87560999D01*
X123242204Y-87536495D01*
X123245804Y-87512227D01*
X123251765Y-87488428D01*
X123260030Y-87465329D01*
X123270520Y-87443150D01*
X123283132Y-87422107D01*
X123297747Y-87402401D01*
X123314223Y-87384223D01*
X123332401Y-87367747D01*
X123352107Y-87353132D01*
X123373150Y-87340520D01*
X123395329Y-87330030D01*
X123418428Y-87321765D01*
X123442227Y-87315804D01*
X123466495Y-87312204D01*
X123490999Y-87311000D01*
X124141001Y-87311000D01*
X124165505Y-87312204D01*
X124165505Y-87312204D01*
G37*
D11*
G04 #@! TD*
G04 #@! TO.P,CVOUTN1,1*
G04 #@! TO.N,Net-(CVOUTN1-Pad1)*
X123816000Y-88011000D03*
D10*
G04 #@! TO.N,GND*
G04 #@! TO.C,CVOUTN1*
G36*
X126215505Y-87312204D02*
X126239773Y-87315804D01*
X126263572Y-87321765D01*
X126286671Y-87330030D01*
X126308850Y-87340520D01*
X126329893Y-87353132D01*
X126349599Y-87367747D01*
X126367777Y-87384223D01*
X126384253Y-87402401D01*
X126398868Y-87422107D01*
X126411480Y-87443150D01*
X126421970Y-87465329D01*
X126430235Y-87488428D01*
X126436196Y-87512227D01*
X126439796Y-87536495D01*
X126441000Y-87560999D01*
X126441000Y-88461001D01*
X126439796Y-88485505D01*
X126436196Y-88509773D01*
X126430235Y-88533572D01*
X126421970Y-88556671D01*
X126411480Y-88578850D01*
X126398868Y-88599893D01*
X126384253Y-88619599D01*
X126367777Y-88637777D01*
X126349599Y-88654253D01*
X126329893Y-88668868D01*
X126308850Y-88681480D01*
X126286671Y-88691970D01*
X126263572Y-88700235D01*
X126239773Y-88706196D01*
X126215505Y-88709796D01*
X126191001Y-88711000D01*
X125540999Y-88711000D01*
X125516495Y-88709796D01*
X125492227Y-88706196D01*
X125468428Y-88700235D01*
X125445329Y-88691970D01*
X125423150Y-88681480D01*
X125402107Y-88668868D01*
X125382401Y-88654253D01*
X125364223Y-88637777D01*
X125347747Y-88619599D01*
X125333132Y-88599893D01*
X125320520Y-88578850D01*
X125310030Y-88556671D01*
X125301765Y-88533572D01*
X125295804Y-88509773D01*
X125292204Y-88485505D01*
X125291000Y-88461001D01*
X125291000Y-87560999D01*
X125292204Y-87536495D01*
X125295804Y-87512227D01*
X125301765Y-87488428D01*
X125310030Y-87465329D01*
X125320520Y-87443150D01*
X125333132Y-87422107D01*
X125347747Y-87402401D01*
X125364223Y-87384223D01*
X125382401Y-87367747D01*
X125402107Y-87353132D01*
X125423150Y-87340520D01*
X125445329Y-87330030D01*
X125468428Y-87321765D01*
X125492227Y-87315804D01*
X125516495Y-87312204D01*
X125540999Y-87311000D01*
X126191001Y-87311000D01*
X126215505Y-87312204D01*
X126215505Y-87312204D01*
G37*
D11*
G04 #@! TD*
G04 #@! TO.P,CVOUTN1,2*
G04 #@! TO.N,GND*
X125866000Y-88011000D03*
D10*
G04 #@! TO.N,/VOUT+*
G04 #@! TO.C,CVOUTP1*
G36*
X130787505Y-76580704D02*
X130811773Y-76584304D01*
X130835572Y-76590265D01*
X130858671Y-76598530D01*
X130880850Y-76609020D01*
X130901893Y-76621632D01*
X130921599Y-76636247D01*
X130939777Y-76652723D01*
X130956253Y-76670901D01*
X130970868Y-76690607D01*
X130983480Y-76711650D01*
X130993970Y-76733829D01*
X131002235Y-76756928D01*
X131008196Y-76780727D01*
X131011796Y-76804995D01*
X131013000Y-76829499D01*
X131013000Y-77729501D01*
X131011796Y-77754005D01*
X131008196Y-77778273D01*
X131002235Y-77802072D01*
X130993970Y-77825171D01*
X130983480Y-77847350D01*
X130970868Y-77868393D01*
X130956253Y-77888099D01*
X130939777Y-77906277D01*
X130921599Y-77922753D01*
X130901893Y-77937368D01*
X130880850Y-77949980D01*
X130858671Y-77960470D01*
X130835572Y-77968735D01*
X130811773Y-77974696D01*
X130787505Y-77978296D01*
X130763001Y-77979500D01*
X130112999Y-77979500D01*
X130088495Y-77978296D01*
X130064227Y-77974696D01*
X130040428Y-77968735D01*
X130017329Y-77960470D01*
X129995150Y-77949980D01*
X129974107Y-77937368D01*
X129954401Y-77922753D01*
X129936223Y-77906277D01*
X129919747Y-77888099D01*
X129905132Y-77868393D01*
X129892520Y-77847350D01*
X129882030Y-77825171D01*
X129873765Y-77802072D01*
X129867804Y-77778273D01*
X129864204Y-77754005D01*
X129863000Y-77729501D01*
X129863000Y-76829499D01*
X129864204Y-76804995D01*
X129867804Y-76780727D01*
X129873765Y-76756928D01*
X129882030Y-76733829D01*
X129892520Y-76711650D01*
X129905132Y-76690607D01*
X129919747Y-76670901D01*
X129936223Y-76652723D01*
X129954401Y-76636247D01*
X129974107Y-76621632D01*
X129995150Y-76609020D01*
X130017329Y-76598530D01*
X130040428Y-76590265D01*
X130064227Y-76584304D01*
X130088495Y-76580704D01*
X130112999Y-76579500D01*
X130763001Y-76579500D01*
X130787505Y-76580704D01*
X130787505Y-76580704D01*
G37*
D11*
G04 #@! TD*
G04 #@! TO.P,CVOUTP1,2*
G04 #@! TO.N,/VOUT+*
X130438000Y-77279500D03*
D10*
G04 #@! TO.N,GND*
G04 #@! TO.C,CVOUTP1*
G36*
X128737505Y-76580704D02*
X128761773Y-76584304D01*
X128785572Y-76590265D01*
X128808671Y-76598530D01*
X128830850Y-76609020D01*
X128851893Y-76621632D01*
X128871599Y-76636247D01*
X128889777Y-76652723D01*
X128906253Y-76670901D01*
X128920868Y-76690607D01*
X128933480Y-76711650D01*
X128943970Y-76733829D01*
X128952235Y-76756928D01*
X128958196Y-76780727D01*
X128961796Y-76804995D01*
X128963000Y-76829499D01*
X128963000Y-77729501D01*
X128961796Y-77754005D01*
X128958196Y-77778273D01*
X128952235Y-77802072D01*
X128943970Y-77825171D01*
X128933480Y-77847350D01*
X128920868Y-77868393D01*
X128906253Y-77888099D01*
X128889777Y-77906277D01*
X128871599Y-77922753D01*
X128851893Y-77937368D01*
X128830850Y-77949980D01*
X128808671Y-77960470D01*
X128785572Y-77968735D01*
X128761773Y-77974696D01*
X128737505Y-77978296D01*
X128713001Y-77979500D01*
X128062999Y-77979500D01*
X128038495Y-77978296D01*
X128014227Y-77974696D01*
X127990428Y-77968735D01*
X127967329Y-77960470D01*
X127945150Y-77949980D01*
X127924107Y-77937368D01*
X127904401Y-77922753D01*
X127886223Y-77906277D01*
X127869747Y-77888099D01*
X127855132Y-77868393D01*
X127842520Y-77847350D01*
X127832030Y-77825171D01*
X127823765Y-77802072D01*
X127817804Y-77778273D01*
X127814204Y-77754005D01*
X127813000Y-77729501D01*
X127813000Y-76829499D01*
X127814204Y-76804995D01*
X127817804Y-76780727D01*
X127823765Y-76756928D01*
X127832030Y-76733829D01*
X127842520Y-76711650D01*
X127855132Y-76690607D01*
X127869747Y-76670901D01*
X127886223Y-76652723D01*
X127904401Y-76636247D01*
X127924107Y-76621632D01*
X127945150Y-76609020D01*
X127967329Y-76598530D01*
X127990428Y-76590265D01*
X128014227Y-76584304D01*
X128038495Y-76580704D01*
X128062999Y-76579500D01*
X128713001Y-76579500D01*
X128737505Y-76580704D01*
X128737505Y-76580704D01*
G37*
D11*
G04 #@! TD*
G04 #@! TO.P,CVOUTP1,1*
G04 #@! TO.N,GND*
X128388000Y-77279500D03*
D12*
G04 #@! TO.P,J1,1*
G04 #@! TO.N,+9V*
X108267500Y-87630000D03*
D13*
G04 #@! TO.P,J1,2*
G04 #@! TO.N,GND*
X108267500Y-81630000D03*
G04 #@! TD*
D10*
G04 #@! TO.N,/-15V*
G04 #@! TO.C,RLDON1*
G36*
X121315005Y-87700204D02*
X121339273Y-87703804D01*
X121363072Y-87709765D01*
X121386171Y-87718030D01*
X121408350Y-87728520D01*
X121429393Y-87741132D01*
X121449099Y-87755747D01*
X121467277Y-87772223D01*
X121483753Y-87790401D01*
X121498368Y-87810107D01*
X121510980Y-87831150D01*
X121521470Y-87853329D01*
X121529735Y-87876428D01*
X121535696Y-87900227D01*
X121539296Y-87924495D01*
X121540500Y-87948999D01*
X121540500Y-88599001D01*
X121539296Y-88623505D01*
X121535696Y-88647773D01*
X121529735Y-88671572D01*
X121521470Y-88694671D01*
X121510980Y-88716850D01*
X121498368Y-88737893D01*
X121483753Y-88757599D01*
X121467277Y-88775777D01*
X121449099Y-88792253D01*
X121429393Y-88806868D01*
X121408350Y-88819480D01*
X121386171Y-88829970D01*
X121363072Y-88838235D01*
X121339273Y-88844196D01*
X121315005Y-88847796D01*
X121290501Y-88849000D01*
X120390499Y-88849000D01*
X120365995Y-88847796D01*
X120341727Y-88844196D01*
X120317928Y-88838235D01*
X120294829Y-88829970D01*
X120272650Y-88819480D01*
X120251607Y-88806868D01*
X120231901Y-88792253D01*
X120213723Y-88775777D01*
X120197247Y-88757599D01*
X120182632Y-88737893D01*
X120170020Y-88716850D01*
X120159530Y-88694671D01*
X120151265Y-88671572D01*
X120145304Y-88647773D01*
X120141704Y-88623505D01*
X120140500Y-88599001D01*
X120140500Y-87948999D01*
X120141704Y-87924495D01*
X120145304Y-87900227D01*
X120151265Y-87876428D01*
X120159530Y-87853329D01*
X120170020Y-87831150D01*
X120182632Y-87810107D01*
X120197247Y-87790401D01*
X120213723Y-87772223D01*
X120231901Y-87755747D01*
X120251607Y-87741132D01*
X120272650Y-87728520D01*
X120294829Y-87718030D01*
X120317928Y-87709765D01*
X120341727Y-87703804D01*
X120365995Y-87700204D01*
X120390499Y-87699000D01*
X121290501Y-87699000D01*
X121315005Y-87700204D01*
X121315005Y-87700204D01*
G37*
D11*
G04 #@! TD*
G04 #@! TO.P,RLDON1,2*
G04 #@! TO.N,/-15V*
X120840500Y-88274000D03*
D10*
G04 #@! TO.N,/ADJ-*
G04 #@! TO.C,RLDON1*
G36*
X121315005Y-85650204D02*
X121339273Y-85653804D01*
X121363072Y-85659765D01*
X121386171Y-85668030D01*
X121408350Y-85678520D01*
X121429393Y-85691132D01*
X121449099Y-85705747D01*
X121467277Y-85722223D01*
X121483753Y-85740401D01*
X121498368Y-85760107D01*
X121510980Y-85781150D01*
X121521470Y-85803329D01*
X121529735Y-85826428D01*
X121535696Y-85850227D01*
X121539296Y-85874495D01*
X121540500Y-85898999D01*
X121540500Y-86549001D01*
X121539296Y-86573505D01*
X121535696Y-86597773D01*
X121529735Y-86621572D01*
X121521470Y-86644671D01*
X121510980Y-86666850D01*
X121498368Y-86687893D01*
X121483753Y-86707599D01*
X121467277Y-86725777D01*
X121449099Y-86742253D01*
X121429393Y-86756868D01*
X121408350Y-86769480D01*
X121386171Y-86779970D01*
X121363072Y-86788235D01*
X121339273Y-86794196D01*
X121315005Y-86797796D01*
X121290501Y-86799000D01*
X120390499Y-86799000D01*
X120365995Y-86797796D01*
X120341727Y-86794196D01*
X120317928Y-86788235D01*
X120294829Y-86779970D01*
X120272650Y-86769480D01*
X120251607Y-86756868D01*
X120231901Y-86742253D01*
X120213723Y-86725777D01*
X120197247Y-86707599D01*
X120182632Y-86687893D01*
X120170020Y-86666850D01*
X120159530Y-86644671D01*
X120151265Y-86621572D01*
X120145304Y-86597773D01*
X120141704Y-86573505D01*
X120140500Y-86549001D01*
X120140500Y-85898999D01*
X120141704Y-85874495D01*
X120145304Y-85850227D01*
X120151265Y-85826428D01*
X120159530Y-85803329D01*
X120170020Y-85781150D01*
X120182632Y-85760107D01*
X120197247Y-85740401D01*
X120213723Y-85722223D01*
X120231901Y-85705747D01*
X120251607Y-85691132D01*
X120272650Y-85678520D01*
X120294829Y-85668030D01*
X120317928Y-85659765D01*
X120341727Y-85653804D01*
X120365995Y-85650204D01*
X120390499Y-85649000D01*
X121290501Y-85649000D01*
X121315005Y-85650204D01*
X121315005Y-85650204D01*
G37*
D11*
G04 #@! TD*
G04 #@! TO.P,RLDON1,1*
G04 #@! TO.N,/ADJ-*
X120840500Y-86224000D03*
D10*
G04 #@! TO.N,GND*
G04 #@! TO.C,RLDON2*
G36*
X116171505Y-87700204D02*
X116195773Y-87703804D01*
X116219572Y-87709765D01*
X116242671Y-87718030D01*
X116264850Y-87728520D01*
X116285893Y-87741132D01*
X116305599Y-87755747D01*
X116323777Y-87772223D01*
X116340253Y-87790401D01*
X116354868Y-87810107D01*
X116367480Y-87831150D01*
X116377970Y-87853329D01*
X116386235Y-87876428D01*
X116392196Y-87900227D01*
X116395796Y-87924495D01*
X116397000Y-87948999D01*
X116397000Y-88599001D01*
X116395796Y-88623505D01*
X116392196Y-88647773D01*
X116386235Y-88671572D01*
X116377970Y-88694671D01*
X116367480Y-88716850D01*
X116354868Y-88737893D01*
X116340253Y-88757599D01*
X116323777Y-88775777D01*
X116305599Y-88792253D01*
X116285893Y-88806868D01*
X116264850Y-88819480D01*
X116242671Y-88829970D01*
X116219572Y-88838235D01*
X116195773Y-88844196D01*
X116171505Y-88847796D01*
X116147001Y-88849000D01*
X115246999Y-88849000D01*
X115222495Y-88847796D01*
X115198227Y-88844196D01*
X115174428Y-88838235D01*
X115151329Y-88829970D01*
X115129150Y-88819480D01*
X115108107Y-88806868D01*
X115088401Y-88792253D01*
X115070223Y-88775777D01*
X115053747Y-88757599D01*
X115039132Y-88737893D01*
X115026520Y-88716850D01*
X115016030Y-88694671D01*
X115007765Y-88671572D01*
X115001804Y-88647773D01*
X114998204Y-88623505D01*
X114997000Y-88599001D01*
X114997000Y-87948999D01*
X114998204Y-87924495D01*
X115001804Y-87900227D01*
X115007765Y-87876428D01*
X115016030Y-87853329D01*
X115026520Y-87831150D01*
X115039132Y-87810107D01*
X115053747Y-87790401D01*
X115070223Y-87772223D01*
X115088401Y-87755747D01*
X115108107Y-87741132D01*
X115129150Y-87728520D01*
X115151329Y-87718030D01*
X115174428Y-87709765D01*
X115198227Y-87703804D01*
X115222495Y-87700204D01*
X115246999Y-87699000D01*
X116147001Y-87699000D01*
X116171505Y-87700204D01*
X116171505Y-87700204D01*
G37*
D11*
G04 #@! TD*
G04 #@! TO.P,RLDON2,1*
G04 #@! TO.N,GND*
X115697000Y-88274000D03*
D10*
G04 #@! TO.N,/ADJ-*
G04 #@! TO.C,RLDON2*
G36*
X116171505Y-85650204D02*
X116195773Y-85653804D01*
X116219572Y-85659765D01*
X116242671Y-85668030D01*
X116264850Y-85678520D01*
X116285893Y-85691132D01*
X116305599Y-85705747D01*
X116323777Y-85722223D01*
X116340253Y-85740401D01*
X116354868Y-85760107D01*
X116367480Y-85781150D01*
X116377970Y-85803329D01*
X116386235Y-85826428D01*
X116392196Y-85850227D01*
X116395796Y-85874495D01*
X116397000Y-85898999D01*
X116397000Y-86549001D01*
X116395796Y-86573505D01*
X116392196Y-86597773D01*
X116386235Y-86621572D01*
X116377970Y-86644671D01*
X116367480Y-86666850D01*
X116354868Y-86687893D01*
X116340253Y-86707599D01*
X116323777Y-86725777D01*
X116305599Y-86742253D01*
X116285893Y-86756868D01*
X116264850Y-86769480D01*
X116242671Y-86779970D01*
X116219572Y-86788235D01*
X116195773Y-86794196D01*
X116171505Y-86797796D01*
X116147001Y-86799000D01*
X115246999Y-86799000D01*
X115222495Y-86797796D01*
X115198227Y-86794196D01*
X115174428Y-86788235D01*
X115151329Y-86779970D01*
X115129150Y-86769480D01*
X115108107Y-86756868D01*
X115088401Y-86742253D01*
X115070223Y-86725777D01*
X115053747Y-86707599D01*
X115039132Y-86687893D01*
X115026520Y-86666850D01*
X115016030Y-86644671D01*
X115007765Y-86621572D01*
X115001804Y-86597773D01*
X114998204Y-86573505D01*
X114997000Y-86549001D01*
X114997000Y-85898999D01*
X114998204Y-85874495D01*
X115001804Y-85850227D01*
X115007765Y-85826428D01*
X115016030Y-85803329D01*
X115026520Y-85781150D01*
X115039132Y-85760107D01*
X115053747Y-85740401D01*
X115070223Y-85722223D01*
X115088401Y-85705747D01*
X115108107Y-85691132D01*
X115129150Y-85678520D01*
X115151329Y-85668030D01*
X115174428Y-85659765D01*
X115198227Y-85653804D01*
X115222495Y-85650204D01*
X115246999Y-85649000D01*
X116147001Y-85649000D01*
X116171505Y-85650204D01*
X116171505Y-85650204D01*
G37*
D11*
G04 #@! TD*
G04 #@! TO.P,RLDON2,2*
G04 #@! TO.N,/ADJ-*
X115697000Y-86224000D03*
D10*
G04 #@! TO.N,/+15V*
G04 #@! TO.C,RLDOP1*
G36*
X136872505Y-77166604D02*
X136896773Y-77170204D01*
X136920572Y-77176165D01*
X136943671Y-77184430D01*
X136965850Y-77194920D01*
X136986893Y-77207532D01*
X137006599Y-77222147D01*
X137024777Y-77238623D01*
X137041253Y-77256801D01*
X137055868Y-77276507D01*
X137068480Y-77297550D01*
X137078970Y-77319729D01*
X137087235Y-77342828D01*
X137093196Y-77366627D01*
X137096796Y-77390895D01*
X137098000Y-77415399D01*
X137098000Y-78065401D01*
X137096796Y-78089905D01*
X137093196Y-78114173D01*
X137087235Y-78137972D01*
X137078970Y-78161071D01*
X137068480Y-78183250D01*
X137055868Y-78204293D01*
X137041253Y-78223999D01*
X137024777Y-78242177D01*
X137006599Y-78258653D01*
X136986893Y-78273268D01*
X136965850Y-78285880D01*
X136943671Y-78296370D01*
X136920572Y-78304635D01*
X136896773Y-78310596D01*
X136872505Y-78314196D01*
X136848001Y-78315400D01*
X135947999Y-78315400D01*
X135923495Y-78314196D01*
X135899227Y-78310596D01*
X135875428Y-78304635D01*
X135852329Y-78296370D01*
X135830150Y-78285880D01*
X135809107Y-78273268D01*
X135789401Y-78258653D01*
X135771223Y-78242177D01*
X135754747Y-78223999D01*
X135740132Y-78204293D01*
X135727520Y-78183250D01*
X135717030Y-78161071D01*
X135708765Y-78137972D01*
X135702804Y-78114173D01*
X135699204Y-78089905D01*
X135698000Y-78065401D01*
X135698000Y-77415399D01*
X135699204Y-77390895D01*
X135702804Y-77366627D01*
X135708765Y-77342828D01*
X135717030Y-77319729D01*
X135727520Y-77297550D01*
X135740132Y-77276507D01*
X135754747Y-77256801D01*
X135771223Y-77238623D01*
X135789401Y-77222147D01*
X135809107Y-77207532D01*
X135830150Y-77194920D01*
X135852329Y-77184430D01*
X135875428Y-77176165D01*
X135899227Y-77170204D01*
X135923495Y-77166604D01*
X135947999Y-77165400D01*
X136848001Y-77165400D01*
X136872505Y-77166604D01*
X136872505Y-77166604D01*
G37*
D11*
G04 #@! TD*
G04 #@! TO.P,RLDOP1,1*
G04 #@! TO.N,/+15V*
X136398000Y-77740400D03*
D10*
G04 #@! TO.N,/ADJ+*
G04 #@! TO.C,RLDOP1*
G36*
X136872505Y-79216604D02*
X136896773Y-79220204D01*
X136920572Y-79226165D01*
X136943671Y-79234430D01*
X136965850Y-79244920D01*
X136986893Y-79257532D01*
X137006599Y-79272147D01*
X137024777Y-79288623D01*
X137041253Y-79306801D01*
X137055868Y-79326507D01*
X137068480Y-79347550D01*
X137078970Y-79369729D01*
X137087235Y-79392828D01*
X137093196Y-79416627D01*
X137096796Y-79440895D01*
X137098000Y-79465399D01*
X137098000Y-80115401D01*
X137096796Y-80139905D01*
X137093196Y-80164173D01*
X137087235Y-80187972D01*
X137078970Y-80211071D01*
X137068480Y-80233250D01*
X137055868Y-80254293D01*
X137041253Y-80273999D01*
X137024777Y-80292177D01*
X137006599Y-80308653D01*
X136986893Y-80323268D01*
X136965850Y-80335880D01*
X136943671Y-80346370D01*
X136920572Y-80354635D01*
X136896773Y-80360596D01*
X136872505Y-80364196D01*
X136848001Y-80365400D01*
X135947999Y-80365400D01*
X135923495Y-80364196D01*
X135899227Y-80360596D01*
X135875428Y-80354635D01*
X135852329Y-80346370D01*
X135830150Y-80335880D01*
X135809107Y-80323268D01*
X135789401Y-80308653D01*
X135771223Y-80292177D01*
X135754747Y-80273999D01*
X135740132Y-80254293D01*
X135727520Y-80233250D01*
X135717030Y-80211071D01*
X135708765Y-80187972D01*
X135702804Y-80164173D01*
X135699204Y-80139905D01*
X135698000Y-80115401D01*
X135698000Y-79465399D01*
X135699204Y-79440895D01*
X135702804Y-79416627D01*
X135708765Y-79392828D01*
X135717030Y-79369729D01*
X135727520Y-79347550D01*
X135740132Y-79326507D01*
X135754747Y-79306801D01*
X135771223Y-79288623D01*
X135789401Y-79272147D01*
X135809107Y-79257532D01*
X135830150Y-79244920D01*
X135852329Y-79234430D01*
X135875428Y-79226165D01*
X135899227Y-79220204D01*
X135923495Y-79216604D01*
X135947999Y-79215400D01*
X136848001Y-79215400D01*
X136872505Y-79216604D01*
X136872505Y-79216604D01*
G37*
D11*
G04 #@! TD*
G04 #@! TO.P,RLDOP1,2*
G04 #@! TO.N,/ADJ+*
X136398000Y-79790400D03*
D10*
G04 #@! TO.N,/ADJ+*
G04 #@! TO.C,RLDOP2*
G36*
X139539505Y-79216604D02*
X139563773Y-79220204D01*
X139587572Y-79226165D01*
X139610671Y-79234430D01*
X139632850Y-79244920D01*
X139653893Y-79257532D01*
X139673599Y-79272147D01*
X139691777Y-79288623D01*
X139708253Y-79306801D01*
X139722868Y-79326507D01*
X139735480Y-79347550D01*
X139745970Y-79369729D01*
X139754235Y-79392828D01*
X139760196Y-79416627D01*
X139763796Y-79440895D01*
X139765000Y-79465399D01*
X139765000Y-80115401D01*
X139763796Y-80139905D01*
X139760196Y-80164173D01*
X139754235Y-80187972D01*
X139745970Y-80211071D01*
X139735480Y-80233250D01*
X139722868Y-80254293D01*
X139708253Y-80273999D01*
X139691777Y-80292177D01*
X139673599Y-80308653D01*
X139653893Y-80323268D01*
X139632850Y-80335880D01*
X139610671Y-80346370D01*
X139587572Y-80354635D01*
X139563773Y-80360596D01*
X139539505Y-80364196D01*
X139515001Y-80365400D01*
X138614999Y-80365400D01*
X138590495Y-80364196D01*
X138566227Y-80360596D01*
X138542428Y-80354635D01*
X138519329Y-80346370D01*
X138497150Y-80335880D01*
X138476107Y-80323268D01*
X138456401Y-80308653D01*
X138438223Y-80292177D01*
X138421747Y-80273999D01*
X138407132Y-80254293D01*
X138394520Y-80233250D01*
X138384030Y-80211071D01*
X138375765Y-80187972D01*
X138369804Y-80164173D01*
X138366204Y-80139905D01*
X138365000Y-80115401D01*
X138365000Y-79465399D01*
X138366204Y-79440895D01*
X138369804Y-79416627D01*
X138375765Y-79392828D01*
X138384030Y-79369729D01*
X138394520Y-79347550D01*
X138407132Y-79326507D01*
X138421747Y-79306801D01*
X138438223Y-79288623D01*
X138456401Y-79272147D01*
X138476107Y-79257532D01*
X138497150Y-79244920D01*
X138519329Y-79234430D01*
X138542428Y-79226165D01*
X138566227Y-79220204D01*
X138590495Y-79216604D01*
X138614999Y-79215400D01*
X139515001Y-79215400D01*
X139539505Y-79216604D01*
X139539505Y-79216604D01*
G37*
D11*
G04 #@! TD*
G04 #@! TO.P,RLDOP2,2*
G04 #@! TO.N,/ADJ+*
X139065000Y-79790400D03*
D10*
G04 #@! TO.N,GND*
G04 #@! TO.C,RLDOP2*
G36*
X139539505Y-77166604D02*
X139563773Y-77170204D01*
X139587572Y-77176165D01*
X139610671Y-77184430D01*
X139632850Y-77194920D01*
X139653893Y-77207532D01*
X139673599Y-77222147D01*
X139691777Y-77238623D01*
X139708253Y-77256801D01*
X139722868Y-77276507D01*
X139735480Y-77297550D01*
X139745970Y-77319729D01*
X139754235Y-77342828D01*
X139760196Y-77366627D01*
X139763796Y-77390895D01*
X139765000Y-77415399D01*
X139765000Y-78065401D01*
X139763796Y-78089905D01*
X139760196Y-78114173D01*
X139754235Y-78137972D01*
X139745970Y-78161071D01*
X139735480Y-78183250D01*
X139722868Y-78204293D01*
X139708253Y-78223999D01*
X139691777Y-78242177D01*
X139673599Y-78258653D01*
X139653893Y-78273268D01*
X139632850Y-78285880D01*
X139610671Y-78296370D01*
X139587572Y-78304635D01*
X139563773Y-78310596D01*
X139539505Y-78314196D01*
X139515001Y-78315400D01*
X138614999Y-78315400D01*
X138590495Y-78314196D01*
X138566227Y-78310596D01*
X138542428Y-78304635D01*
X138519329Y-78296370D01*
X138497150Y-78285880D01*
X138476107Y-78273268D01*
X138456401Y-78258653D01*
X138438223Y-78242177D01*
X138421747Y-78223999D01*
X138407132Y-78204293D01*
X138394520Y-78183250D01*
X138384030Y-78161071D01*
X138375765Y-78137972D01*
X138369804Y-78114173D01*
X138366204Y-78089905D01*
X138365000Y-78065401D01*
X138365000Y-77415399D01*
X138366204Y-77390895D01*
X138369804Y-77366627D01*
X138375765Y-77342828D01*
X138384030Y-77319729D01*
X138394520Y-77297550D01*
X138407132Y-77276507D01*
X138421747Y-77256801D01*
X138438223Y-77238623D01*
X138456401Y-77222147D01*
X138476107Y-77207532D01*
X138497150Y-77194920D01*
X138519329Y-77184430D01*
X138542428Y-77176165D01*
X138566227Y-77170204D01*
X138590495Y-77166604D01*
X138614999Y-77165400D01*
X139515001Y-77165400D01*
X139539505Y-77166604D01*
X139539505Y-77166604D01*
G37*
D11*
G04 #@! TD*
G04 #@! TO.P,RLDOP2,1*
G04 #@! TO.N,GND*
X139065000Y-77740400D03*
D14*
G04 #@! TO.P,U1,1*
G04 #@! TO.N,Net-(U1-Pad1)*
X124050000Y-79630000D03*
G04 #@! TO.P,U1,2*
G04 #@! TO.N,Net-(CFLY2-Pad1)*
X124050000Y-80280000D03*
G04 #@! TO.P,U1,3*
G04 #@! TO.N,Net-(CFLY2-Pad2)*
X124050000Y-80930000D03*
G04 #@! TO.P,U1,4*
G04 #@! TO.N,+9V*
X124050000Y-81580000D03*
G04 #@! TO.P,U1,5*
X124050000Y-82220000D03*
G04 #@! TO.P,U1,6*
G04 #@! TO.N,/BYP-*
X124050000Y-82880000D03*
G04 #@! TO.P,U1,7*
G04 #@! TO.N,/ADJ-*
X124050000Y-83520000D03*
G04 #@! TO.P,U1,8*
G04 #@! TO.N,/-15V*
X124050000Y-84170000D03*
G04 #@! TO.P,U1,9*
G04 #@! TO.N,Net-(CVOUTN1-Pad1)*
X124050000Y-84820000D03*
G04 #@! TO.P,U1,10*
G04 #@! TO.N,Net-(CFLY1-Pad1)*
X124050000Y-85470000D03*
G04 #@! TO.P,U1,11*
G04 #@! TO.N,Net-(U1-Pad11)*
X129950000Y-85470000D03*
G04 #@! TO.P,U1,12*
G04 #@! TO.N,Net-(CFLY1-Pad2)*
X129950000Y-84820000D03*
G04 #@! TO.P,U1,13*
G04 #@! TO.N,/VOUT+*
X129950000Y-84170000D03*
G04 #@! TO.P,U1,14*
G04 #@! TO.N,GND*
X129950000Y-83520000D03*
G04 #@! TO.P,U1,15*
G04 #@! TO.N,+9V*
X129950000Y-82880000D03*
G04 #@! TO.P,U1,16*
G04 #@! TO.N,GND*
X129950000Y-82220000D03*
G04 #@! TO.P,U1,17*
G04 #@! TO.N,/BYP+*
X129950000Y-81580000D03*
G04 #@! TO.P,U1,18*
G04 #@! TO.N,/ADJ+*
X129950000Y-80930000D03*
G04 #@! TO.P,U1,19*
G04 #@! TO.N,/+15V*
X129950000Y-80280000D03*
G04 #@! TO.P,U1,20*
G04 #@! TO.N,/VOUT+*
X129950000Y-79630000D03*
D15*
G04 #@! TO.P,U1,21*
G04 #@! TO.N,GND*
X127000000Y-82550000D03*
G04 #@! TD*
D10*
G04 #@! TO.N,/-15V*
G04 #@! TO.C,CLDON2*
G36*
X123911505Y-73977204D02*
X123935773Y-73980804D01*
X123959572Y-73986765D01*
X123982671Y-73995030D01*
X124004850Y-74005520D01*
X124025893Y-74018132D01*
X124045599Y-74032747D01*
X124063777Y-74049223D01*
X124080253Y-74067401D01*
X124094868Y-74087107D01*
X124107480Y-74108150D01*
X124117970Y-74130329D01*
X124126235Y-74153428D01*
X124132196Y-74177227D01*
X124135796Y-74201495D01*
X124137000Y-74225999D01*
X124137000Y-75126001D01*
X124135796Y-75150505D01*
X124132196Y-75174773D01*
X124126235Y-75198572D01*
X124117970Y-75221671D01*
X124107480Y-75243850D01*
X124094868Y-75264893D01*
X124080253Y-75284599D01*
X124063777Y-75302777D01*
X124045599Y-75319253D01*
X124025893Y-75333868D01*
X124004850Y-75346480D01*
X123982671Y-75356970D01*
X123959572Y-75365235D01*
X123935773Y-75371196D01*
X123911505Y-75374796D01*
X123887001Y-75376000D01*
X123236999Y-75376000D01*
X123212495Y-75374796D01*
X123188227Y-75371196D01*
X123164428Y-75365235D01*
X123141329Y-75356970D01*
X123119150Y-75346480D01*
X123098107Y-75333868D01*
X123078401Y-75319253D01*
X123060223Y-75302777D01*
X123043747Y-75284599D01*
X123029132Y-75264893D01*
X123016520Y-75243850D01*
X123006030Y-75221671D01*
X122997765Y-75198572D01*
X122991804Y-75174773D01*
X122988204Y-75150505D01*
X122987000Y-75126001D01*
X122987000Y-74225999D01*
X122988204Y-74201495D01*
X122991804Y-74177227D01*
X122997765Y-74153428D01*
X123006030Y-74130329D01*
X123016520Y-74108150D01*
X123029132Y-74087107D01*
X123043747Y-74067401D01*
X123060223Y-74049223D01*
X123078401Y-74032747D01*
X123098107Y-74018132D01*
X123119150Y-74005520D01*
X123141329Y-73995030D01*
X123164428Y-73986765D01*
X123188227Y-73980804D01*
X123212495Y-73977204D01*
X123236999Y-73976000D01*
X123887001Y-73976000D01*
X123911505Y-73977204D01*
X123911505Y-73977204D01*
G37*
D11*
G04 #@! TD*
G04 #@! TO.P,CLDON2,1*
G04 #@! TO.N,/-15V*
X123562000Y-74676000D03*
D10*
G04 #@! TO.N,GND*
G04 #@! TO.C,CLDON2*
G36*
X125961505Y-73977204D02*
X125985773Y-73980804D01*
X126009572Y-73986765D01*
X126032671Y-73995030D01*
X126054850Y-74005520D01*
X126075893Y-74018132D01*
X126095599Y-74032747D01*
X126113777Y-74049223D01*
X126130253Y-74067401D01*
X126144868Y-74087107D01*
X126157480Y-74108150D01*
X126167970Y-74130329D01*
X126176235Y-74153428D01*
X126182196Y-74177227D01*
X126185796Y-74201495D01*
X126187000Y-74225999D01*
X126187000Y-75126001D01*
X126185796Y-75150505D01*
X126182196Y-75174773D01*
X126176235Y-75198572D01*
X126167970Y-75221671D01*
X126157480Y-75243850D01*
X126144868Y-75264893D01*
X126130253Y-75284599D01*
X126113777Y-75302777D01*
X126095599Y-75319253D01*
X126075893Y-75333868D01*
X126054850Y-75346480D01*
X126032671Y-75356970D01*
X126009572Y-75365235D01*
X125985773Y-75371196D01*
X125961505Y-75374796D01*
X125937001Y-75376000D01*
X125286999Y-75376000D01*
X125262495Y-75374796D01*
X125238227Y-75371196D01*
X125214428Y-75365235D01*
X125191329Y-75356970D01*
X125169150Y-75346480D01*
X125148107Y-75333868D01*
X125128401Y-75319253D01*
X125110223Y-75302777D01*
X125093747Y-75284599D01*
X125079132Y-75264893D01*
X125066520Y-75243850D01*
X125056030Y-75221671D01*
X125047765Y-75198572D01*
X125041804Y-75174773D01*
X125038204Y-75150505D01*
X125037000Y-75126001D01*
X125037000Y-74225999D01*
X125038204Y-74201495D01*
X125041804Y-74177227D01*
X125047765Y-74153428D01*
X125056030Y-74130329D01*
X125066520Y-74108150D01*
X125079132Y-74087107D01*
X125093747Y-74067401D01*
X125110223Y-74049223D01*
X125128401Y-74032747D01*
X125148107Y-74018132D01*
X125169150Y-74005520D01*
X125191329Y-73995030D01*
X125214428Y-73986765D01*
X125238227Y-73980804D01*
X125262495Y-73977204D01*
X125286999Y-73976000D01*
X125937001Y-73976000D01*
X125961505Y-73977204D01*
X125961505Y-73977204D01*
G37*
D11*
G04 #@! TD*
G04 #@! TO.P,CLDON2,2*
G04 #@! TO.N,GND*
X125612000Y-74676000D03*
D10*
G04 #@! TO.N,GND*
G04 #@! TO.C,CLDOP2*
G36*
X128728505Y-73977204D02*
X128752773Y-73980804D01*
X128776572Y-73986765D01*
X128799671Y-73995030D01*
X128821850Y-74005520D01*
X128842893Y-74018132D01*
X128862599Y-74032747D01*
X128880777Y-74049223D01*
X128897253Y-74067401D01*
X128911868Y-74087107D01*
X128924480Y-74108150D01*
X128934970Y-74130329D01*
X128943235Y-74153428D01*
X128949196Y-74177227D01*
X128952796Y-74201495D01*
X128954000Y-74225999D01*
X128954000Y-75126001D01*
X128952796Y-75150505D01*
X128949196Y-75174773D01*
X128943235Y-75198572D01*
X128934970Y-75221671D01*
X128924480Y-75243850D01*
X128911868Y-75264893D01*
X128897253Y-75284599D01*
X128880777Y-75302777D01*
X128862599Y-75319253D01*
X128842893Y-75333868D01*
X128821850Y-75346480D01*
X128799671Y-75356970D01*
X128776572Y-75365235D01*
X128752773Y-75371196D01*
X128728505Y-75374796D01*
X128704001Y-75376000D01*
X128053999Y-75376000D01*
X128029495Y-75374796D01*
X128005227Y-75371196D01*
X127981428Y-75365235D01*
X127958329Y-75356970D01*
X127936150Y-75346480D01*
X127915107Y-75333868D01*
X127895401Y-75319253D01*
X127877223Y-75302777D01*
X127860747Y-75284599D01*
X127846132Y-75264893D01*
X127833520Y-75243850D01*
X127823030Y-75221671D01*
X127814765Y-75198572D01*
X127808804Y-75174773D01*
X127805204Y-75150505D01*
X127804000Y-75126001D01*
X127804000Y-74225999D01*
X127805204Y-74201495D01*
X127808804Y-74177227D01*
X127814765Y-74153428D01*
X127823030Y-74130329D01*
X127833520Y-74108150D01*
X127846132Y-74087107D01*
X127860747Y-74067401D01*
X127877223Y-74049223D01*
X127895401Y-74032747D01*
X127915107Y-74018132D01*
X127936150Y-74005520D01*
X127958329Y-73995030D01*
X127981428Y-73986765D01*
X128005227Y-73980804D01*
X128029495Y-73977204D01*
X128053999Y-73976000D01*
X128704001Y-73976000D01*
X128728505Y-73977204D01*
X128728505Y-73977204D01*
G37*
D11*
G04 #@! TD*
G04 #@! TO.P,CLDOP2,2*
G04 #@! TO.N,GND*
X128379000Y-74676000D03*
D10*
G04 #@! TO.N,/+15V*
G04 #@! TO.C,CLDOP2*
G36*
X130778505Y-73977204D02*
X130802773Y-73980804D01*
X130826572Y-73986765D01*
X130849671Y-73995030D01*
X130871850Y-74005520D01*
X130892893Y-74018132D01*
X130912599Y-74032747D01*
X130930777Y-74049223D01*
X130947253Y-74067401D01*
X130961868Y-74087107D01*
X130974480Y-74108150D01*
X130984970Y-74130329D01*
X130993235Y-74153428D01*
X130999196Y-74177227D01*
X131002796Y-74201495D01*
X131004000Y-74225999D01*
X131004000Y-75126001D01*
X131002796Y-75150505D01*
X130999196Y-75174773D01*
X130993235Y-75198572D01*
X130984970Y-75221671D01*
X130974480Y-75243850D01*
X130961868Y-75264893D01*
X130947253Y-75284599D01*
X130930777Y-75302777D01*
X130912599Y-75319253D01*
X130892893Y-75333868D01*
X130871850Y-75346480D01*
X130849671Y-75356970D01*
X130826572Y-75365235D01*
X130802773Y-75371196D01*
X130778505Y-75374796D01*
X130754001Y-75376000D01*
X130103999Y-75376000D01*
X130079495Y-75374796D01*
X130055227Y-75371196D01*
X130031428Y-75365235D01*
X130008329Y-75356970D01*
X129986150Y-75346480D01*
X129965107Y-75333868D01*
X129945401Y-75319253D01*
X129927223Y-75302777D01*
X129910747Y-75284599D01*
X129896132Y-75264893D01*
X129883520Y-75243850D01*
X129873030Y-75221671D01*
X129864765Y-75198572D01*
X129858804Y-75174773D01*
X129855204Y-75150505D01*
X129854000Y-75126001D01*
X129854000Y-74225999D01*
X129855204Y-74201495D01*
X129858804Y-74177227D01*
X129864765Y-74153428D01*
X129873030Y-74130329D01*
X129883520Y-74108150D01*
X129896132Y-74087107D01*
X129910747Y-74067401D01*
X129927223Y-74049223D01*
X129945401Y-74032747D01*
X129965107Y-74018132D01*
X129986150Y-74005520D01*
X130008329Y-73995030D01*
X130031428Y-73986765D01*
X130055227Y-73980804D01*
X130079495Y-73977204D01*
X130103999Y-73976000D01*
X130754001Y-73976000D01*
X130778505Y-73977204D01*
X130778505Y-73977204D01*
G37*
D11*
G04 #@! TD*
G04 #@! TO.P,CLDOP2,1*
G04 #@! TO.N,/+15V*
X130429000Y-74676000D03*
D16*
G04 #@! TO.P,J2,1*
G04 #@! TO.N,/+15V*
X127952500Y-71247000D03*
D17*
G04 #@! TO.P,J2,2*
G04 #@! TO.N,/-15V*
X125412500Y-71247000D03*
G04 #@! TO.P,J2,3*
G04 #@! TO.N,GND*
X122872500Y-71247000D03*
G04 #@! TD*
D18*
G04 #@! TO.N,GND*
X131381500Y-82359500D03*
X131381500Y-83883500D03*
D19*
X115824000Y-79184500D03*
X114109500Y-81851500D03*
X117411500Y-79184500D03*
X118935500Y-79184500D03*
X115443000Y-84582000D03*
X116967000Y-84582000D03*
X113855500Y-87630000D03*
X113855500Y-89344500D03*
X115697000Y-89662000D03*
X122555000Y-90043000D03*
X122555000Y-91567000D03*
X121221500Y-92773500D03*
X136271000Y-73558400D03*
X137858500Y-74320400D03*
X137858500Y-75717400D03*
X139001500Y-76225400D03*
X140589000Y-76669900D03*
X137350500Y-81622900D03*
X137350500Y-82892900D03*
X136461500Y-84035900D03*
X125476000Y-90043000D03*
X127063500Y-89535000D03*
X134874000Y-73558400D03*
X127000000Y-73660000D03*
X127000000Y-74930000D03*
X127000000Y-76200000D03*
X127000000Y-77470000D03*
D18*
G04 #@! TO.N,+9V*
X131381500Y-83121500D03*
D19*
X122491500Y-81580000D03*
G04 #@! TD*
D20*
G04 #@! TO.N,GND*
X131242000Y-82220000D02*
X131381500Y-82359500D01*
X129950000Y-82220000D02*
X131242000Y-82220000D01*
X131181498Y-83883500D02*
X131381500Y-83883500D01*
X130817998Y-83520000D02*
X131181498Y-83883500D01*
X129950000Y-83520000D02*
X130817998Y-83520000D01*
D21*
X109134500Y-80763000D02*
X108267500Y-81630000D01*
X115824000Y-80763000D02*
X109134500Y-80763000D01*
D22*
G04 #@! TO.N,Net-(CFLY1-Pad1)*
X127510628Y-87387628D02*
X128134000Y-88011000D01*
X127033990Y-86910990D02*
X127510628Y-87387628D01*
X124865990Y-86910990D02*
X127033990Y-86910990D01*
X124050000Y-86095000D02*
X124865990Y-86910990D01*
X124050000Y-85470000D02*
X124050000Y-86095000D01*
G04 #@! TO.N,Net-(CFLY1-Pad2)*
X130807372Y-87387628D02*
X130184000Y-88011000D01*
X131075001Y-87119999D02*
X130807372Y-87387628D01*
X131075001Y-84924999D02*
X131075001Y-87119999D01*
X130970002Y-84820000D02*
X131075001Y-84924999D01*
X129950000Y-84820000D02*
X130970002Y-84820000D01*
G04 #@! TO.N,Net-(CFLY2-Pad2)*
X122938628Y-77902872D02*
X123562000Y-77279500D01*
X122324989Y-78516511D02*
X122938628Y-77902872D01*
X122324989Y-80435233D02*
X122324989Y-78516511D01*
X122819756Y-80930000D02*
X122324989Y-80435233D01*
X124050000Y-80930000D02*
X122819756Y-80930000D01*
G04 #@! TO.N,Net-(CFLY2-Pad1)*
X124988628Y-77902872D02*
X125612000Y-77279500D01*
X124511990Y-78379510D02*
X124988628Y-77902872D01*
X123630488Y-78379510D02*
X124511990Y-78379510D01*
X122924999Y-79084999D02*
X123630488Y-78379510D01*
X122924999Y-80175001D02*
X122924999Y-79084999D01*
X123029998Y-80280000D02*
X122924999Y-80175001D01*
X124050000Y-80280000D02*
X123029998Y-80280000D01*
G04 #@! TO.N,+9V*
X124050000Y-81580000D02*
X124963200Y-81580000D01*
X124866398Y-82220000D02*
X124050000Y-82220000D01*
X124963200Y-82123198D02*
X124866398Y-82220000D01*
X124963200Y-81580000D02*
X124963200Y-82123198D01*
X122491500Y-81580000D02*
X124050000Y-81580000D01*
D20*
X131216500Y-83121500D02*
X131381500Y-83121500D01*
X130975000Y-82880000D02*
X131216500Y-83121500D01*
X129950000Y-82880000D02*
X130975000Y-82880000D01*
D22*
X121086000Y-81580000D02*
X120405000Y-80899000D01*
X122491500Y-81580000D02*
X121086000Y-81580000D01*
X119781628Y-81522372D02*
X120405000Y-80899000D01*
X119114372Y-82189628D02*
X119781628Y-81522372D01*
X116447372Y-82189628D02*
X119114372Y-82189628D01*
X115824000Y-82813000D02*
X116447372Y-82189628D01*
D21*
X111007000Y-87630000D02*
X108267500Y-87630000D01*
X115824000Y-82813000D02*
X111007000Y-87630000D01*
G04 #@! TO.N,/-15V*
X120840500Y-88274000D02*
X118300500Y-88274000D01*
X118545500Y-88519000D02*
X118300500Y-88274000D01*
D22*
X122925000Y-84170000D02*
X124050000Y-84170000D01*
X122726458Y-84170000D02*
X122925000Y-84170000D01*
X122324989Y-84571469D02*
X122726458Y-84170000D01*
X122324989Y-87589511D02*
X122324989Y-84571469D01*
X121640500Y-88274000D02*
X122324989Y-87589511D01*
X120840500Y-88274000D02*
X121640500Y-88274000D01*
D21*
X118926500Y-88900000D02*
X118300500Y-88274000D01*
X118926500Y-90551000D02*
X118926500Y-88900000D01*
X123562000Y-73097500D02*
X125412500Y-71247000D01*
X123562000Y-74676000D02*
X123562000Y-73097500D01*
X118303128Y-91174372D02*
X118926500Y-90551000D01*
X107945563Y-91174372D02*
X118303128Y-91174372D01*
X105167490Y-88396299D02*
X107945563Y-91174372D01*
X105167490Y-81165478D02*
X105167490Y-88396299D01*
X111656968Y-74676000D02*
X105167490Y-81165478D01*
X123562000Y-74676000D02*
X111656968Y-74676000D01*
G04 #@! TO.N,/+15V*
X133731000Y-77740400D02*
X136398000Y-77740400D01*
X133731000Y-75581400D02*
X134103000Y-75209400D01*
X133731000Y-77740400D02*
X133731000Y-75581400D01*
X127952500Y-71700500D02*
X127952500Y-71501000D01*
X130429000Y-73723500D02*
X127952500Y-71247000D01*
X130429000Y-74676000D02*
X130429000Y-73723500D01*
D22*
X133107628Y-78363772D02*
X133731000Y-77740400D01*
X132630990Y-78840410D02*
X133107628Y-78363772D01*
X132630990Y-79291552D02*
X132630990Y-78840410D01*
X131642542Y-80280000D02*
X132630990Y-79291552D01*
X129950000Y-80280000D02*
X131642542Y-80280000D01*
D21*
X130962400Y-75209400D02*
X130429000Y-74676000D01*
X134103000Y-75209400D02*
X130962400Y-75209400D01*
D22*
G04 #@! TO.N,Net-(CVOUTN1-Pad1)*
X122924999Y-87119999D02*
X123816000Y-88011000D01*
X122924999Y-84820001D02*
X122924999Y-87119999D01*
X124050000Y-84820000D02*
X122924999Y-84820001D01*
G04 #@! TO.N,/BYP-*
X121027500Y-82880000D02*
X124050000Y-82880000D01*
X120405000Y-83502500D02*
X121027500Y-82880000D01*
G04 #@! TO.N,/BYP+*
X132980600Y-81580000D02*
X133595000Y-82194400D01*
X129950000Y-81580000D02*
X132980600Y-81580000D01*
D21*
G04 #@! TO.N,/ADJ-*
X120840500Y-86224000D02*
X115697000Y-86224000D01*
D22*
X120840500Y-85549000D02*
X120840500Y-86224000D01*
X120840500Y-85207416D02*
X120840500Y-85549000D01*
X122527916Y-83520000D02*
X120840500Y-85207416D01*
X124050000Y-83520000D02*
X122527916Y-83520000D01*
D21*
G04 #@! TO.N,/ADJ+*
X133731000Y-79790400D02*
X139065000Y-79790400D01*
D22*
X132591400Y-80930000D02*
X133731000Y-79790400D01*
X129950000Y-80930000D02*
X132591400Y-80930000D01*
D20*
G04 #@! TO.N,/VOUT+*
X128925000Y-79630000D02*
X129950000Y-79630000D01*
X128874999Y-79680001D02*
X128925000Y-79630000D01*
X128874999Y-84119999D02*
X128874999Y-79680001D01*
X128925000Y-84170000D02*
X128874999Y-84119999D01*
X129950000Y-84170000D02*
X128925000Y-84170000D01*
D22*
X129950000Y-79630000D02*
X131444000Y-79630000D01*
X131444000Y-79630000D02*
X131572000Y-79502000D01*
X131572000Y-78413500D02*
X130438000Y-77279500D01*
X131572000Y-79502000D02*
X131572000Y-78413500D01*
G04 #@! TD*
D23*
G04 #@! TO.N,GND*
G36*
X141274129Y-69014411D02*
X141541574Y-69168821D01*
X141740083Y-69405394D01*
X141851436Y-69711334D01*
X141865001Y-69866384D01*
X141865000Y-92677191D01*
X141805589Y-93014130D01*
X141651178Y-93281576D01*
X141414607Y-93480082D01*
X141108666Y-93591436D01*
X140953628Y-93605000D01*
X102902809Y-93605000D01*
X102565870Y-93545589D01*
X102298424Y-93391178D01*
X102099918Y-93154607D01*
X101988564Y-92848666D01*
X101975000Y-92693628D01*
X101975000Y-81165478D01*
X104453778Y-81165478D01*
X104467490Y-81234413D01*
X104467491Y-88327359D01*
X104453778Y-88396299D01*
X104467491Y-88465239D01*
X104508106Y-88669425D01*
X104662820Y-88900970D01*
X104721264Y-88940021D01*
X107401842Y-91620601D01*
X107440892Y-91679043D01*
X107499334Y-91718093D01*
X107499336Y-91718095D01*
X107672436Y-91833757D01*
X107718603Y-91842940D01*
X107876623Y-91874372D01*
X107876626Y-91874372D01*
X107945563Y-91888084D01*
X108014499Y-91874372D01*
X118234193Y-91874372D01*
X118303128Y-91888084D01*
X118372063Y-91874372D01*
X118372068Y-91874372D01*
X118576254Y-91833757D01*
X118807799Y-91679043D01*
X118846852Y-91620596D01*
X118910571Y-91556877D01*
X119251501Y-91556877D01*
X119464226Y-91514563D01*
X119644565Y-91394065D01*
X119765063Y-91213726D01*
X119793500Y-91070765D01*
X119793500Y-91371938D01*
X119886062Y-91595404D01*
X120057095Y-91766437D01*
X120280561Y-91859000D01*
X120670500Y-91859000D01*
X120822500Y-91707000D01*
X120822500Y-90705000D01*
X121130500Y-90705000D01*
X121130500Y-91707000D01*
X121282500Y-91859000D01*
X121672439Y-91859000D01*
X121895905Y-91766437D01*
X122066938Y-91595404D01*
X122159500Y-91371938D01*
X122159500Y-90857000D01*
X122007500Y-90705000D01*
X121130500Y-90705000D01*
X120822500Y-90705000D01*
X120802500Y-90705000D01*
X120802500Y-90397000D01*
X120822500Y-90397000D01*
X120822500Y-89395000D01*
X121130500Y-89395000D01*
X121130500Y-90397000D01*
X122007500Y-90397000D01*
X122159500Y-90245000D01*
X122159500Y-89730062D01*
X122066938Y-89506596D01*
X121895905Y-89335563D01*
X121672439Y-89243000D01*
X121282500Y-89243000D01*
X121130500Y-89395000D01*
X120822500Y-89395000D01*
X120670500Y-89243000D01*
X120280561Y-89243000D01*
X120057095Y-89335563D01*
X119886062Y-89506596D01*
X119793500Y-89730062D01*
X119793500Y-90031235D01*
X119765063Y-89888274D01*
X119644565Y-89707935D01*
X119626500Y-89695864D01*
X119626500Y-88974000D01*
X119985364Y-88974000D01*
X119997435Y-88992065D01*
X120177774Y-89112563D01*
X120390499Y-89154877D01*
X121290501Y-89154877D01*
X121503226Y-89112563D01*
X121683565Y-88992065D01*
X121804063Y-88811726D01*
X121816586Y-88748769D01*
X121835590Y-88744989D01*
X122000980Y-88634480D01*
X122028876Y-88592730D01*
X122643722Y-87977885D01*
X122685469Y-87949991D01*
X122795978Y-87784601D01*
X122810332Y-87712438D01*
X122935123Y-87837229D01*
X122935123Y-88461001D01*
X122977437Y-88673726D01*
X123097935Y-88854065D01*
X123278274Y-88974563D01*
X123490999Y-89016877D01*
X124141001Y-89016877D01*
X124353726Y-88974563D01*
X124534065Y-88854065D01*
X124654563Y-88673726D01*
X124683000Y-88530765D01*
X124683000Y-88831938D01*
X124775562Y-89055404D01*
X124946595Y-89226437D01*
X125170061Y-89319000D01*
X125560000Y-89319000D01*
X125712000Y-89167000D01*
X125712000Y-88165000D01*
X126020000Y-88165000D01*
X126020000Y-89167000D01*
X126172000Y-89319000D01*
X126561939Y-89319000D01*
X126785405Y-89226437D01*
X126956438Y-89055404D01*
X127049000Y-88831938D01*
X127049000Y-88317000D01*
X126897000Y-88165000D01*
X126020000Y-88165000D01*
X125712000Y-88165000D01*
X125692000Y-88165000D01*
X125692000Y-87857000D01*
X125712000Y-87857000D01*
X125712000Y-87837000D01*
X126020000Y-87837000D01*
X126020000Y-87857000D01*
X126897000Y-87857000D01*
X127049000Y-87705000D01*
X127049000Y-87633107D01*
X127191894Y-87776001D01*
X127191897Y-87776003D01*
X127253123Y-87837229D01*
X127253123Y-88461001D01*
X127295437Y-88673726D01*
X127415935Y-88854065D01*
X127596274Y-88974563D01*
X127808999Y-89016877D01*
X128459001Y-89016877D01*
X128671726Y-88974563D01*
X128852065Y-88854065D01*
X128972563Y-88673726D01*
X129014877Y-88461001D01*
X129014877Y-87560999D01*
X128972563Y-87348274D01*
X128852065Y-87167935D01*
X128671726Y-87047437D01*
X128459001Y-87005123D01*
X127835230Y-87005123D01*
X127422366Y-86592260D01*
X127394470Y-86550510D01*
X127229080Y-86440001D01*
X127083233Y-86410990D01*
X127083231Y-86410990D01*
X127068200Y-86408000D01*
X127154002Y-86408000D01*
X127154002Y-86256002D01*
X127306000Y-86408000D01*
X128620939Y-86408000D01*
X128844405Y-86315437D01*
X129015438Y-86144404D01*
X129089608Y-85965340D01*
X129107946Y-85977593D01*
X129225000Y-86000877D01*
X130575001Y-86000877D01*
X130575002Y-86912892D01*
X130488641Y-86999253D01*
X130488638Y-86999255D01*
X130482770Y-87005123D01*
X129858999Y-87005123D01*
X129646274Y-87047437D01*
X129465935Y-87167935D01*
X129345437Y-87348274D01*
X129303123Y-87560999D01*
X129303123Y-88461001D01*
X129345437Y-88673726D01*
X129465935Y-88854065D01*
X129646274Y-88974563D01*
X129858999Y-89016877D01*
X130509001Y-89016877D01*
X130721726Y-88974563D01*
X130902065Y-88854065D01*
X131022563Y-88673726D01*
X131064877Y-88461001D01*
X131064877Y-87837230D01*
X131195745Y-87706362D01*
X131195747Y-87706359D01*
X131393730Y-87508376D01*
X131435481Y-87480479D01*
X131545990Y-87315089D01*
X131549118Y-87299363D01*
X131584797Y-87119999D01*
X131575001Y-87070753D01*
X131575001Y-84974240D01*
X131584796Y-84924998D01*
X131569268Y-84846936D01*
X131545990Y-84729909D01*
X131435481Y-84564519D01*
X131393731Y-84536623D01*
X131358379Y-84501271D01*
X131330482Y-84459520D01*
X131165092Y-84349011D01*
X131019245Y-84320000D01*
X131019243Y-84320000D01*
X130980877Y-84312368D01*
X130980877Y-84276396D01*
X131019405Y-84260437D01*
X131190438Y-84089404D01*
X131283000Y-83865938D01*
X131283000Y-83784500D01*
X131190194Y-83691694D01*
X131262153Y-83721500D01*
X131500847Y-83721500D01*
X131721373Y-83630156D01*
X131890156Y-83461373D01*
X131981500Y-83240847D01*
X131981500Y-83002153D01*
X131890156Y-82781627D01*
X131721373Y-82612844D01*
X131500847Y-82521500D01*
X131283000Y-82521500D01*
X131283000Y-82484500D01*
X131131000Y-82332500D01*
X130104000Y-82332500D01*
X130104000Y-82349123D01*
X129796000Y-82349123D01*
X129796000Y-82332500D01*
X129776000Y-82332500D01*
X129776000Y-82110877D01*
X130675000Y-82110877D01*
X130691977Y-82107500D01*
X131131000Y-82107500D01*
X131158500Y-82080000D01*
X132714123Y-82080000D01*
X132714123Y-82644401D01*
X132756437Y-82857126D01*
X132876935Y-83037465D01*
X133057274Y-83157963D01*
X133269999Y-83200277D01*
X133920001Y-83200277D01*
X134132726Y-83157963D01*
X134313065Y-83037465D01*
X134433563Y-82857126D01*
X134462000Y-82714165D01*
X134462000Y-83015338D01*
X134554562Y-83238804D01*
X134725595Y-83409837D01*
X134949061Y-83502400D01*
X135339000Y-83502400D01*
X135491000Y-83350400D01*
X135491000Y-82348400D01*
X135799000Y-82348400D01*
X135799000Y-83350400D01*
X135951000Y-83502400D01*
X136340939Y-83502400D01*
X136564405Y-83409837D01*
X136735438Y-83238804D01*
X136828000Y-83015338D01*
X136828000Y-82500400D01*
X136676000Y-82348400D01*
X135799000Y-82348400D01*
X135491000Y-82348400D01*
X135471000Y-82348400D01*
X135471000Y-82040400D01*
X135491000Y-82040400D01*
X135491000Y-81038400D01*
X135799000Y-81038400D01*
X135799000Y-82040400D01*
X136676000Y-82040400D01*
X136828000Y-81888400D01*
X136828000Y-81373462D01*
X136735438Y-81149996D01*
X136564405Y-80978963D01*
X136340939Y-80886400D01*
X135951000Y-80886400D01*
X135799000Y-81038400D01*
X135491000Y-81038400D01*
X135339000Y-80886400D01*
X134949061Y-80886400D01*
X134725595Y-80978963D01*
X134554562Y-81149996D01*
X134462000Y-81373462D01*
X134462000Y-81674635D01*
X134433563Y-81531674D01*
X134313065Y-81351335D01*
X134132726Y-81230837D01*
X133920001Y-81188523D01*
X133294689Y-81188523D01*
X133175690Y-81109011D01*
X133128819Y-81099688D01*
X133557230Y-80671277D01*
X134181001Y-80671277D01*
X134393726Y-80628963D01*
X134574065Y-80508465D01*
X134586136Y-80490400D01*
X135542864Y-80490400D01*
X135554935Y-80508465D01*
X135735274Y-80628963D01*
X135947999Y-80671277D01*
X136848001Y-80671277D01*
X137060726Y-80628963D01*
X137241065Y-80508465D01*
X137253136Y-80490400D01*
X138209864Y-80490400D01*
X138221935Y-80508465D01*
X138402274Y-80628963D01*
X138614999Y-80671277D01*
X139515001Y-80671277D01*
X139727726Y-80628963D01*
X139908065Y-80508465D01*
X140028563Y-80328126D01*
X140070877Y-80115401D01*
X140070877Y-79465399D01*
X140028563Y-79252674D01*
X139908065Y-79072335D01*
X139727726Y-78951837D01*
X139584765Y-78923400D01*
X139885938Y-78923400D01*
X140109404Y-78830838D01*
X140280437Y-78659805D01*
X140373000Y-78436339D01*
X140373000Y-78046400D01*
X140221000Y-77894400D01*
X139219000Y-77894400D01*
X139219000Y-77914400D01*
X138911000Y-77914400D01*
X138911000Y-77894400D01*
X137909000Y-77894400D01*
X137757000Y-78046400D01*
X137757000Y-78436339D01*
X137849563Y-78659805D01*
X138020596Y-78830838D01*
X138244062Y-78923400D01*
X138545235Y-78923400D01*
X138402274Y-78951837D01*
X138221935Y-79072335D01*
X138209864Y-79090400D01*
X137253136Y-79090400D01*
X137241065Y-79072335D01*
X137060726Y-78951837D01*
X136848001Y-78909523D01*
X135947999Y-78909523D01*
X135735274Y-78951837D01*
X135554935Y-79072335D01*
X135542864Y-79090400D01*
X134586136Y-79090400D01*
X134574065Y-79072335D01*
X134393726Y-78951837D01*
X134181001Y-78909523D01*
X133280999Y-78909523D01*
X133266000Y-78912506D01*
X133496001Y-78682506D01*
X133496003Y-78682503D01*
X133557229Y-78621277D01*
X134181001Y-78621277D01*
X134393726Y-78578963D01*
X134574065Y-78458465D01*
X134586136Y-78440400D01*
X135542864Y-78440400D01*
X135554935Y-78458465D01*
X135735274Y-78578963D01*
X135947999Y-78621277D01*
X136848001Y-78621277D01*
X137060726Y-78578963D01*
X137241065Y-78458465D01*
X137361563Y-78278126D01*
X137403877Y-78065401D01*
X137403877Y-77415399D01*
X137361563Y-77202674D01*
X137255850Y-77044461D01*
X137757000Y-77044461D01*
X137757000Y-77434400D01*
X137909000Y-77586400D01*
X138911000Y-77586400D01*
X138911000Y-76709400D01*
X139219000Y-76709400D01*
X139219000Y-77586400D01*
X140221000Y-77586400D01*
X140373000Y-77434400D01*
X140373000Y-77044461D01*
X140280437Y-76820995D01*
X140109404Y-76649962D01*
X139885938Y-76557400D01*
X139371000Y-76557400D01*
X139219000Y-76709400D01*
X138911000Y-76709400D01*
X138759000Y-76557400D01*
X138244062Y-76557400D01*
X138020596Y-76649962D01*
X137849563Y-76820995D01*
X137757000Y-77044461D01*
X137255850Y-77044461D01*
X137241065Y-77022335D01*
X137060726Y-76901837D01*
X136848001Y-76859523D01*
X135947999Y-76859523D01*
X135735274Y-76901837D01*
X135554935Y-77022335D01*
X135542864Y-77040400D01*
X134586136Y-77040400D01*
X134574065Y-77022335D01*
X134431000Y-76926743D01*
X134431000Y-76214680D01*
X134640726Y-76172963D01*
X134821065Y-76052465D01*
X134941563Y-75872126D01*
X134970000Y-75729165D01*
X134970000Y-76030338D01*
X135062562Y-76253804D01*
X135233595Y-76424837D01*
X135457061Y-76517400D01*
X135847000Y-76517400D01*
X135999000Y-76365400D01*
X135999000Y-75363400D01*
X136307000Y-75363400D01*
X136307000Y-76365400D01*
X136459000Y-76517400D01*
X136848939Y-76517400D01*
X137072405Y-76424837D01*
X137243438Y-76253804D01*
X137336000Y-76030338D01*
X137336000Y-75515400D01*
X137184000Y-75363400D01*
X136307000Y-75363400D01*
X135999000Y-75363400D01*
X135979000Y-75363400D01*
X135979000Y-75055400D01*
X135999000Y-75055400D01*
X135999000Y-74053400D01*
X136307000Y-74053400D01*
X136307000Y-75055400D01*
X137184000Y-75055400D01*
X137336000Y-74903400D01*
X137336000Y-74388462D01*
X137243438Y-74164996D01*
X137072405Y-73993963D01*
X136848939Y-73901400D01*
X136459000Y-73901400D01*
X136307000Y-74053400D01*
X135999000Y-74053400D01*
X135847000Y-73901400D01*
X135457061Y-73901400D01*
X135233595Y-73993963D01*
X135062562Y-74164996D01*
X134970000Y-74388462D01*
X134970000Y-74689635D01*
X134941563Y-74546674D01*
X134821065Y-74366335D01*
X134640726Y-74245837D01*
X134428001Y-74203523D01*
X133777999Y-74203523D01*
X133565274Y-74245837D01*
X133384935Y-74366335D01*
X133289343Y-74509400D01*
X131309877Y-74509400D01*
X131309877Y-74225999D01*
X131267563Y-74013274D01*
X131147065Y-73832935D01*
X131129000Y-73820864D01*
X131129000Y-73792435D01*
X131142712Y-73723500D01*
X131129000Y-73654565D01*
X131129000Y-73654560D01*
X131088385Y-73450374D01*
X130933671Y-73218829D01*
X130875226Y-73179777D01*
X129108377Y-71412929D01*
X129108377Y-70397000D01*
X129085093Y-70279946D01*
X129018788Y-70180712D01*
X128919554Y-70114407D01*
X128802500Y-70091123D01*
X127102500Y-70091123D01*
X126985446Y-70114407D01*
X126886212Y-70180712D01*
X126819907Y-70279946D01*
X126796623Y-70397000D01*
X126796623Y-72097000D01*
X126819907Y-72214054D01*
X126886212Y-72313288D01*
X126985446Y-72379593D01*
X127102500Y-72402877D01*
X127895510Y-72402877D01*
X127952500Y-72414213D01*
X128009490Y-72402877D01*
X128118429Y-72402877D01*
X129089641Y-73374090D01*
X129074939Y-73368000D01*
X128685000Y-73368000D01*
X128533000Y-73520000D01*
X128533000Y-74522000D01*
X128553000Y-74522000D01*
X128553000Y-74830000D01*
X128533000Y-74830000D01*
X128533000Y-75832000D01*
X128683250Y-75982250D01*
X128542000Y-76123500D01*
X128542000Y-77125500D01*
X128562000Y-77125500D01*
X128562000Y-77433500D01*
X128542000Y-77433500D01*
X128542000Y-78435500D01*
X128694000Y-78587500D01*
X129083939Y-78587500D01*
X129307405Y-78494937D01*
X129478438Y-78323904D01*
X129571000Y-78100438D01*
X129571000Y-77799265D01*
X129599437Y-77942226D01*
X129719935Y-78122565D01*
X129900274Y-78243063D01*
X130112999Y-78285377D01*
X130736770Y-78285377D01*
X131072001Y-78620608D01*
X131072000Y-79130000D01*
X130803418Y-79130000D01*
X130792054Y-79122407D01*
X130675000Y-79099123D01*
X129225000Y-79099123D01*
X129107946Y-79122407D01*
X129089608Y-79134660D01*
X129015438Y-78955596D01*
X128844405Y-78784563D01*
X128620939Y-78692000D01*
X127306000Y-78692000D01*
X127154000Y-78844000D01*
X127154000Y-82396000D01*
X127174000Y-82396000D01*
X127174000Y-82704000D01*
X127154000Y-82704000D01*
X127154000Y-82724000D01*
X126846000Y-82724000D01*
X126846000Y-82704000D01*
X126826000Y-82704000D01*
X126826000Y-82396000D01*
X126846000Y-82396000D01*
X126846000Y-78844000D01*
X126694000Y-78692000D01*
X125379061Y-78692000D01*
X125155595Y-78784563D01*
X124984562Y-78955596D01*
X124910392Y-79134660D01*
X124892054Y-79122407D01*
X124775000Y-79099123D01*
X123617981Y-79099123D01*
X123837595Y-78879510D01*
X124462749Y-78879510D01*
X124511990Y-78889305D01*
X124561231Y-78879510D01*
X124561233Y-78879510D01*
X124707080Y-78850499D01*
X124872470Y-78739990D01*
X124900366Y-78698240D01*
X125313230Y-78285377D01*
X125937001Y-78285377D01*
X126149726Y-78243063D01*
X126330065Y-78122565D01*
X126450563Y-77942226D01*
X126492877Y-77729501D01*
X126492877Y-77585500D01*
X127205000Y-77585500D01*
X127205000Y-78100438D01*
X127297562Y-78323904D01*
X127468595Y-78494937D01*
X127692061Y-78587500D01*
X128082000Y-78587500D01*
X128234000Y-78435500D01*
X128234000Y-77433500D01*
X127357000Y-77433500D01*
X127205000Y-77585500D01*
X126492877Y-77585500D01*
X126492877Y-76829499D01*
X126450563Y-76616774D01*
X126330065Y-76436435D01*
X126149726Y-76315937D01*
X125937001Y-76273623D01*
X125286999Y-76273623D01*
X125074274Y-76315937D01*
X124893935Y-76436435D01*
X124773437Y-76616774D01*
X124731123Y-76829499D01*
X124731123Y-77453271D01*
X124669897Y-77514497D01*
X124669894Y-77514499D01*
X124439894Y-77744500D01*
X124442877Y-77729501D01*
X124442877Y-76829499D01*
X124400563Y-76616774D01*
X124280065Y-76436435D01*
X124099726Y-76315937D01*
X123887001Y-76273623D01*
X123236999Y-76273623D01*
X123024274Y-76315937D01*
X122843935Y-76436435D01*
X122723437Y-76616774D01*
X122681123Y-76829499D01*
X122681123Y-77453271D01*
X122619897Y-77514497D01*
X122619894Y-77514499D01*
X122006257Y-78128137D01*
X121964510Y-78156031D01*
X121936616Y-78197778D01*
X121854001Y-78321421D01*
X121815194Y-78516511D01*
X121824990Y-78565757D01*
X121824989Y-80385991D01*
X121815194Y-80435233D01*
X121824989Y-80484474D01*
X121824989Y-80484475D01*
X121854000Y-80630322D01*
X121964509Y-80795713D01*
X122006259Y-80823609D01*
X122147475Y-80964825D01*
X122094982Y-80986568D01*
X122001550Y-81080000D01*
X121293107Y-81080000D01*
X121285877Y-81072770D01*
X121285877Y-80448999D01*
X121243563Y-80236274D01*
X121123065Y-80055935D01*
X120942726Y-79935437D01*
X120730001Y-79893123D01*
X120079999Y-79893123D01*
X119867274Y-79935437D01*
X119686935Y-80055935D01*
X119566437Y-80236274D01*
X119538000Y-80379235D01*
X119538000Y-80078062D01*
X119445438Y-79854596D01*
X119274405Y-79683563D01*
X119050939Y-79591000D01*
X118661000Y-79591000D01*
X118509000Y-79743000D01*
X118509000Y-80745000D01*
X118529000Y-80745000D01*
X118529000Y-81053000D01*
X118509000Y-81053000D01*
X118509000Y-81073000D01*
X118201000Y-81073000D01*
X118201000Y-81053000D01*
X117324000Y-81053000D01*
X117172000Y-81205000D01*
X117172000Y-81689628D01*
X117032214Y-81689628D01*
X117039437Y-81682405D01*
X117132000Y-81458939D01*
X117132000Y-81069000D01*
X116980000Y-80917000D01*
X115978000Y-80917000D01*
X115978000Y-80937000D01*
X115670000Y-80937000D01*
X115670000Y-80917000D01*
X114668000Y-80917000D01*
X114516000Y-81069000D01*
X114516000Y-81458939D01*
X114608563Y-81682405D01*
X114779596Y-81853438D01*
X115003062Y-81946000D01*
X115304235Y-81946000D01*
X115161274Y-81974437D01*
X114980935Y-82094935D01*
X114860437Y-82275274D01*
X114818123Y-82487999D01*
X114818123Y-82828928D01*
X110835080Y-86811972D01*
X110634988Y-86512512D01*
X110122280Y-86169932D01*
X109670160Y-86080000D01*
X106864840Y-86080000D01*
X106412720Y-86169932D01*
X105900012Y-86512512D01*
X105867490Y-86561185D01*
X105867490Y-82794249D01*
X106337032Y-83172150D01*
X106988500Y-83363000D01*
X108113500Y-83363000D01*
X108113500Y-82430050D01*
X108421500Y-82430050D01*
X108421500Y-83363000D01*
X109546500Y-83363000D01*
X110197968Y-83172150D01*
X110726811Y-82746522D01*
X111052517Y-82150913D01*
X111073301Y-82052132D01*
X110965982Y-81784000D01*
X110067550Y-81784000D01*
X110067550Y-81476000D01*
X110965982Y-81476000D01*
X111073301Y-81207868D01*
X111052517Y-81109087D01*
X110726811Y-80513478D01*
X110197968Y-80087850D01*
X110127005Y-80067061D01*
X114516000Y-80067061D01*
X114516000Y-80457000D01*
X114668000Y-80609000D01*
X115670000Y-80609000D01*
X115670000Y-79732000D01*
X115978000Y-79732000D01*
X115978000Y-80609000D01*
X116980000Y-80609000D01*
X117132000Y-80457000D01*
X117132000Y-80078062D01*
X117172000Y-80078062D01*
X117172000Y-80593000D01*
X117324000Y-80745000D01*
X118201000Y-80745000D01*
X118201000Y-79743000D01*
X118049000Y-79591000D01*
X117659061Y-79591000D01*
X117435595Y-79683563D01*
X117264562Y-79854596D01*
X117172000Y-80078062D01*
X117132000Y-80078062D01*
X117132000Y-80067061D01*
X117039437Y-79843595D01*
X116868404Y-79672562D01*
X116644938Y-79580000D01*
X116130000Y-79580000D01*
X115978000Y-79732000D01*
X115670000Y-79732000D01*
X115518000Y-79580000D01*
X115003062Y-79580000D01*
X114779596Y-79672562D01*
X114608563Y-79843595D01*
X114516000Y-80067061D01*
X110127005Y-80067061D01*
X109546500Y-79897000D01*
X108421500Y-79897000D01*
X108421500Y-80829950D01*
X108113500Y-80829950D01*
X108113500Y-79897000D01*
X107425916Y-79897000D01*
X111946917Y-75376000D01*
X122748343Y-75376000D01*
X122843935Y-75519065D01*
X123024274Y-75639563D01*
X123236999Y-75681877D01*
X123887001Y-75681877D01*
X124099726Y-75639563D01*
X124280065Y-75519065D01*
X124400563Y-75338726D01*
X124429000Y-75195765D01*
X124429000Y-75496938D01*
X124521562Y-75720404D01*
X124692595Y-75891437D01*
X124916061Y-75984000D01*
X125306000Y-75984000D01*
X125458000Y-75832000D01*
X125458000Y-74830000D01*
X125766000Y-74830000D01*
X125766000Y-75832000D01*
X125918000Y-75984000D01*
X126307939Y-75984000D01*
X126531405Y-75891437D01*
X126702438Y-75720404D01*
X126795000Y-75496938D01*
X126795000Y-74982000D01*
X127196000Y-74982000D01*
X127196000Y-75496938D01*
X127288562Y-75720404D01*
X127459595Y-75891437D01*
X127672472Y-75979614D01*
X127468595Y-76064063D01*
X127297562Y-76235096D01*
X127205000Y-76458562D01*
X127205000Y-76973500D01*
X127357000Y-77125500D01*
X128234000Y-77125500D01*
X128234000Y-76123500D01*
X128083750Y-75973250D01*
X128225000Y-75832000D01*
X128225000Y-74830000D01*
X127348000Y-74830000D01*
X127196000Y-74982000D01*
X126795000Y-74982000D01*
X126643000Y-74830000D01*
X125766000Y-74830000D01*
X125458000Y-74830000D01*
X125438000Y-74830000D01*
X125438000Y-74522000D01*
X125458000Y-74522000D01*
X125458000Y-73520000D01*
X125766000Y-73520000D01*
X125766000Y-74522000D01*
X126643000Y-74522000D01*
X126795000Y-74370000D01*
X126795000Y-73855062D01*
X127196000Y-73855062D01*
X127196000Y-74370000D01*
X127348000Y-74522000D01*
X128225000Y-74522000D01*
X128225000Y-73520000D01*
X128073000Y-73368000D01*
X127683061Y-73368000D01*
X127459595Y-73460563D01*
X127288562Y-73631596D01*
X127196000Y-73855062D01*
X126795000Y-73855062D01*
X126702438Y-73631596D01*
X126531405Y-73460563D01*
X126307939Y-73368000D01*
X125918000Y-73368000D01*
X125766000Y-73520000D01*
X125458000Y-73520000D01*
X125306000Y-73368000D01*
X124916061Y-73368000D01*
X124692595Y-73460563D01*
X124521562Y-73631596D01*
X124429000Y-73855062D01*
X124429000Y-74156235D01*
X124400563Y-74013274D01*
X124280065Y-73832935D01*
X124262000Y-73820864D01*
X124262000Y-73387448D01*
X125260212Y-72389237D01*
X125299239Y-72397000D01*
X125525761Y-72397000D01*
X125861207Y-72330276D01*
X126241603Y-72076103D01*
X126495776Y-71695707D01*
X126585029Y-71247000D01*
X126495776Y-70798293D01*
X126241603Y-70417897D01*
X125861207Y-70163724D01*
X125525761Y-70097000D01*
X125299239Y-70097000D01*
X124963793Y-70163724D01*
X124583397Y-70417897D01*
X124329224Y-70798293D01*
X124270604Y-71092998D01*
X124170357Y-71092998D01*
X124280415Y-70868089D01*
X124028241Y-70358146D01*
X123600116Y-69983523D01*
X123251410Y-69839097D01*
X123026500Y-69950111D01*
X123026500Y-71093000D01*
X123046500Y-71093000D01*
X123046500Y-71401000D01*
X123026500Y-71401000D01*
X123026500Y-72543889D01*
X123086357Y-72573434D01*
X123057330Y-72592829D01*
X123018278Y-72651274D01*
X122902616Y-72824374D01*
X122848288Y-73097500D01*
X122862001Y-73166440D01*
X122862001Y-73820864D01*
X122843935Y-73832935D01*
X122748343Y-73976000D01*
X111725903Y-73976000D01*
X111656968Y-73962288D01*
X111588033Y-73976000D01*
X111588028Y-73976000D01*
X111383842Y-74016615D01*
X111152297Y-74171329D01*
X111113245Y-74229774D01*
X104721264Y-80621756D01*
X104662819Y-80660808D01*
X104508105Y-80892353D01*
X104467490Y-81096539D01*
X104467490Y-81096543D01*
X104453778Y-81165478D01*
X101975000Y-81165478D01*
X101975000Y-71625911D01*
X121464585Y-71625911D01*
X121716759Y-72135854D01*
X122144884Y-72510477D01*
X122493590Y-72654903D01*
X122718500Y-72543889D01*
X122718500Y-71401000D01*
X121574644Y-71401000D01*
X121464585Y-71625911D01*
X101975000Y-71625911D01*
X101975000Y-70868089D01*
X121464585Y-70868089D01*
X121574644Y-71093000D01*
X122718500Y-71093000D01*
X122718500Y-69950111D01*
X122493590Y-69839097D01*
X122144884Y-69983523D01*
X121716759Y-70358146D01*
X121464585Y-70868089D01*
X101975000Y-70868089D01*
X101975000Y-69882808D01*
X102034411Y-69545871D01*
X102188821Y-69278426D01*
X102425394Y-69079917D01*
X102731334Y-68968564D01*
X102886372Y-68955000D01*
X140937192Y-68955000D01*
X141274129Y-69014411D01*
X141274129Y-69014411D01*
G37*
X141274129Y-69014411D02*
X141541574Y-69168821D01*
X141740083Y-69405394D01*
X141851436Y-69711334D01*
X141865001Y-69866384D01*
X141865000Y-92677191D01*
X141805589Y-93014130D01*
X141651178Y-93281576D01*
X141414607Y-93480082D01*
X141108666Y-93591436D01*
X140953628Y-93605000D01*
X102902809Y-93605000D01*
X102565870Y-93545589D01*
X102298424Y-93391178D01*
X102099918Y-93154607D01*
X101988564Y-92848666D01*
X101975000Y-92693628D01*
X101975000Y-81165478D01*
X104453778Y-81165478D01*
X104467490Y-81234413D01*
X104467491Y-88327359D01*
X104453778Y-88396299D01*
X104467491Y-88465239D01*
X104508106Y-88669425D01*
X104662820Y-88900970D01*
X104721264Y-88940021D01*
X107401842Y-91620601D01*
X107440892Y-91679043D01*
X107499334Y-91718093D01*
X107499336Y-91718095D01*
X107672436Y-91833757D01*
X107718603Y-91842940D01*
X107876623Y-91874372D01*
X107876626Y-91874372D01*
X107945563Y-91888084D01*
X108014499Y-91874372D01*
X118234193Y-91874372D01*
X118303128Y-91888084D01*
X118372063Y-91874372D01*
X118372068Y-91874372D01*
X118576254Y-91833757D01*
X118807799Y-91679043D01*
X118846852Y-91620596D01*
X118910571Y-91556877D01*
X119251501Y-91556877D01*
X119464226Y-91514563D01*
X119644565Y-91394065D01*
X119765063Y-91213726D01*
X119793500Y-91070765D01*
X119793500Y-91371938D01*
X119886062Y-91595404D01*
X120057095Y-91766437D01*
X120280561Y-91859000D01*
X120670500Y-91859000D01*
X120822500Y-91707000D01*
X120822500Y-90705000D01*
X121130500Y-90705000D01*
X121130500Y-91707000D01*
X121282500Y-91859000D01*
X121672439Y-91859000D01*
X121895905Y-91766437D01*
X122066938Y-91595404D01*
X122159500Y-91371938D01*
X122159500Y-90857000D01*
X122007500Y-90705000D01*
X121130500Y-90705000D01*
X120822500Y-90705000D01*
X120802500Y-90705000D01*
X120802500Y-90397000D01*
X120822500Y-90397000D01*
X120822500Y-89395000D01*
X121130500Y-89395000D01*
X121130500Y-90397000D01*
X122007500Y-90397000D01*
X122159500Y-90245000D01*
X122159500Y-89730062D01*
X122066938Y-89506596D01*
X121895905Y-89335563D01*
X121672439Y-89243000D01*
X121282500Y-89243000D01*
X121130500Y-89395000D01*
X120822500Y-89395000D01*
X120670500Y-89243000D01*
X120280561Y-89243000D01*
X120057095Y-89335563D01*
X119886062Y-89506596D01*
X119793500Y-89730062D01*
X119793500Y-90031235D01*
X119765063Y-89888274D01*
X119644565Y-89707935D01*
X119626500Y-89695864D01*
X119626500Y-88974000D01*
X119985364Y-88974000D01*
X119997435Y-88992065D01*
X120177774Y-89112563D01*
X120390499Y-89154877D01*
X121290501Y-89154877D01*
X121503226Y-89112563D01*
X121683565Y-88992065D01*
X121804063Y-88811726D01*
X121816586Y-88748769D01*
X121835590Y-88744989D01*
X122000980Y-88634480D01*
X122028876Y-88592730D01*
X122643722Y-87977885D01*
X122685469Y-87949991D01*
X122795978Y-87784601D01*
X122810332Y-87712438D01*
X122935123Y-87837229D01*
X122935123Y-88461001D01*
X122977437Y-88673726D01*
X123097935Y-88854065D01*
X123278274Y-88974563D01*
X123490999Y-89016877D01*
X124141001Y-89016877D01*
X124353726Y-88974563D01*
X124534065Y-88854065D01*
X124654563Y-88673726D01*
X124683000Y-88530765D01*
X124683000Y-88831938D01*
X124775562Y-89055404D01*
X124946595Y-89226437D01*
X125170061Y-89319000D01*
X125560000Y-89319000D01*
X125712000Y-89167000D01*
X125712000Y-88165000D01*
X126020000Y-88165000D01*
X126020000Y-89167000D01*
X126172000Y-89319000D01*
X126561939Y-89319000D01*
X126785405Y-89226437D01*
X126956438Y-89055404D01*
X127049000Y-88831938D01*
X127049000Y-88317000D01*
X126897000Y-88165000D01*
X126020000Y-88165000D01*
X125712000Y-88165000D01*
X125692000Y-88165000D01*
X125692000Y-87857000D01*
X125712000Y-87857000D01*
X125712000Y-87837000D01*
X126020000Y-87837000D01*
X126020000Y-87857000D01*
X126897000Y-87857000D01*
X127049000Y-87705000D01*
X127049000Y-87633107D01*
X127191894Y-87776001D01*
X127191897Y-87776003D01*
X127253123Y-87837229D01*
X127253123Y-88461001D01*
X127295437Y-88673726D01*
X127415935Y-88854065D01*
X127596274Y-88974563D01*
X127808999Y-89016877D01*
X128459001Y-89016877D01*
X128671726Y-88974563D01*
X128852065Y-88854065D01*
X128972563Y-88673726D01*
X129014877Y-88461001D01*
X129014877Y-87560999D01*
X128972563Y-87348274D01*
X128852065Y-87167935D01*
X128671726Y-87047437D01*
X128459001Y-87005123D01*
X127835230Y-87005123D01*
X127422366Y-86592260D01*
X127394470Y-86550510D01*
X127229080Y-86440001D01*
X127083233Y-86410990D01*
X127083231Y-86410990D01*
X127068200Y-86408000D01*
X127154002Y-86408000D01*
X127154002Y-86256002D01*
X127306000Y-86408000D01*
X128620939Y-86408000D01*
X128844405Y-86315437D01*
X129015438Y-86144404D01*
X129089608Y-85965340D01*
X129107946Y-85977593D01*
X129225000Y-86000877D01*
X130575001Y-86000877D01*
X130575002Y-86912892D01*
X130488641Y-86999253D01*
X130488638Y-86999255D01*
X130482770Y-87005123D01*
X129858999Y-87005123D01*
X129646274Y-87047437D01*
X129465935Y-87167935D01*
X129345437Y-87348274D01*
X129303123Y-87560999D01*
X129303123Y-88461001D01*
X129345437Y-88673726D01*
X129465935Y-88854065D01*
X129646274Y-88974563D01*
X129858999Y-89016877D01*
X130509001Y-89016877D01*
X130721726Y-88974563D01*
X130902065Y-88854065D01*
X131022563Y-88673726D01*
X131064877Y-88461001D01*
X131064877Y-87837230D01*
X131195745Y-87706362D01*
X131195747Y-87706359D01*
X131393730Y-87508376D01*
X131435481Y-87480479D01*
X131545990Y-87315089D01*
X131549118Y-87299363D01*
X131584797Y-87119999D01*
X131575001Y-87070753D01*
X131575001Y-84974240D01*
X131584796Y-84924998D01*
X131569268Y-84846936D01*
X131545990Y-84729909D01*
X131435481Y-84564519D01*
X131393731Y-84536623D01*
X131358379Y-84501271D01*
X131330482Y-84459520D01*
X131165092Y-84349011D01*
X131019245Y-84320000D01*
X131019243Y-84320000D01*
X130980877Y-84312368D01*
X130980877Y-84276396D01*
X131019405Y-84260437D01*
X131190438Y-84089404D01*
X131283000Y-83865938D01*
X131283000Y-83784500D01*
X131190194Y-83691694D01*
X131262153Y-83721500D01*
X131500847Y-83721500D01*
X131721373Y-83630156D01*
X131890156Y-83461373D01*
X131981500Y-83240847D01*
X131981500Y-83002153D01*
X131890156Y-82781627D01*
X131721373Y-82612844D01*
X131500847Y-82521500D01*
X131283000Y-82521500D01*
X131283000Y-82484500D01*
X131131000Y-82332500D01*
X130104000Y-82332500D01*
X130104000Y-82349123D01*
X129796000Y-82349123D01*
X129796000Y-82332500D01*
X129776000Y-82332500D01*
X129776000Y-82110877D01*
X130675000Y-82110877D01*
X130691977Y-82107500D01*
X131131000Y-82107500D01*
X131158500Y-82080000D01*
X132714123Y-82080000D01*
X132714123Y-82644401D01*
X132756437Y-82857126D01*
X132876935Y-83037465D01*
X133057274Y-83157963D01*
X133269999Y-83200277D01*
X133920001Y-83200277D01*
X134132726Y-83157963D01*
X134313065Y-83037465D01*
X134433563Y-82857126D01*
X134462000Y-82714165D01*
X134462000Y-83015338D01*
X134554562Y-83238804D01*
X134725595Y-83409837D01*
X134949061Y-83502400D01*
X135339000Y-83502400D01*
X135491000Y-83350400D01*
X135491000Y-82348400D01*
X135799000Y-82348400D01*
X135799000Y-83350400D01*
X135951000Y-83502400D01*
X136340939Y-83502400D01*
X136564405Y-83409837D01*
X136735438Y-83238804D01*
X136828000Y-83015338D01*
X136828000Y-82500400D01*
X136676000Y-82348400D01*
X135799000Y-82348400D01*
X135491000Y-82348400D01*
X135471000Y-82348400D01*
X135471000Y-82040400D01*
X135491000Y-82040400D01*
X135491000Y-81038400D01*
X135799000Y-81038400D01*
X135799000Y-82040400D01*
X136676000Y-82040400D01*
X136828000Y-81888400D01*
X136828000Y-81373462D01*
X136735438Y-81149996D01*
X136564405Y-80978963D01*
X136340939Y-80886400D01*
X135951000Y-80886400D01*
X135799000Y-81038400D01*
X135491000Y-81038400D01*
X135339000Y-80886400D01*
X134949061Y-80886400D01*
X134725595Y-80978963D01*
X134554562Y-81149996D01*
X134462000Y-81373462D01*
X134462000Y-81674635D01*
X134433563Y-81531674D01*
X134313065Y-81351335D01*
X134132726Y-81230837D01*
X133920001Y-81188523D01*
X133294689Y-81188523D01*
X133175690Y-81109011D01*
X133128819Y-81099688D01*
X133557230Y-80671277D01*
X134181001Y-80671277D01*
X134393726Y-80628963D01*
X134574065Y-80508465D01*
X134586136Y-80490400D01*
X135542864Y-80490400D01*
X135554935Y-80508465D01*
X135735274Y-80628963D01*
X135947999Y-80671277D01*
X136848001Y-80671277D01*
X137060726Y-80628963D01*
X137241065Y-80508465D01*
X137253136Y-80490400D01*
X138209864Y-80490400D01*
X138221935Y-80508465D01*
X138402274Y-80628963D01*
X138614999Y-80671277D01*
X139515001Y-80671277D01*
X139727726Y-80628963D01*
X139908065Y-80508465D01*
X140028563Y-80328126D01*
X140070877Y-80115401D01*
X140070877Y-79465399D01*
X140028563Y-79252674D01*
X139908065Y-79072335D01*
X139727726Y-78951837D01*
X139584765Y-78923400D01*
X139885938Y-78923400D01*
X140109404Y-78830838D01*
X140280437Y-78659805D01*
X140373000Y-78436339D01*
X140373000Y-78046400D01*
X140221000Y-77894400D01*
X139219000Y-77894400D01*
X139219000Y-77914400D01*
X138911000Y-77914400D01*
X138911000Y-77894400D01*
X137909000Y-77894400D01*
X137757000Y-78046400D01*
X137757000Y-78436339D01*
X137849563Y-78659805D01*
X138020596Y-78830838D01*
X138244062Y-78923400D01*
X138545235Y-78923400D01*
X138402274Y-78951837D01*
X138221935Y-79072335D01*
X138209864Y-79090400D01*
X137253136Y-79090400D01*
X137241065Y-79072335D01*
X137060726Y-78951837D01*
X136848001Y-78909523D01*
X135947999Y-78909523D01*
X135735274Y-78951837D01*
X135554935Y-79072335D01*
X135542864Y-79090400D01*
X134586136Y-79090400D01*
X134574065Y-79072335D01*
X134393726Y-78951837D01*
X134181001Y-78909523D01*
X133280999Y-78909523D01*
X133266000Y-78912506D01*
X133496001Y-78682506D01*
X133496003Y-78682503D01*
X133557229Y-78621277D01*
X134181001Y-78621277D01*
X134393726Y-78578963D01*
X134574065Y-78458465D01*
X134586136Y-78440400D01*
X135542864Y-78440400D01*
X135554935Y-78458465D01*
X135735274Y-78578963D01*
X135947999Y-78621277D01*
X136848001Y-78621277D01*
X137060726Y-78578963D01*
X137241065Y-78458465D01*
X137361563Y-78278126D01*
X137403877Y-78065401D01*
X137403877Y-77415399D01*
X137361563Y-77202674D01*
X137255850Y-77044461D01*
X137757000Y-77044461D01*
X137757000Y-77434400D01*
X137909000Y-77586400D01*
X138911000Y-77586400D01*
X138911000Y-76709400D01*
X139219000Y-76709400D01*
X139219000Y-77586400D01*
X140221000Y-77586400D01*
X140373000Y-77434400D01*
X140373000Y-77044461D01*
X140280437Y-76820995D01*
X140109404Y-76649962D01*
X139885938Y-76557400D01*
X139371000Y-76557400D01*
X139219000Y-76709400D01*
X138911000Y-76709400D01*
X138759000Y-76557400D01*
X138244062Y-76557400D01*
X138020596Y-76649962D01*
X137849563Y-76820995D01*
X137757000Y-77044461D01*
X137255850Y-77044461D01*
X137241065Y-77022335D01*
X137060726Y-76901837D01*
X136848001Y-76859523D01*
X135947999Y-76859523D01*
X135735274Y-76901837D01*
X135554935Y-77022335D01*
X135542864Y-77040400D01*
X134586136Y-77040400D01*
X134574065Y-77022335D01*
X134431000Y-76926743D01*
X134431000Y-76214680D01*
X134640726Y-76172963D01*
X134821065Y-76052465D01*
X134941563Y-75872126D01*
X134970000Y-75729165D01*
X134970000Y-76030338D01*
X135062562Y-76253804D01*
X135233595Y-76424837D01*
X135457061Y-76517400D01*
X135847000Y-76517400D01*
X135999000Y-76365400D01*
X135999000Y-75363400D01*
X136307000Y-75363400D01*
X136307000Y-76365400D01*
X136459000Y-76517400D01*
X136848939Y-76517400D01*
X137072405Y-76424837D01*
X137243438Y-76253804D01*
X137336000Y-76030338D01*
X137336000Y-75515400D01*
X137184000Y-75363400D01*
X136307000Y-75363400D01*
X135999000Y-75363400D01*
X135979000Y-75363400D01*
X135979000Y-75055400D01*
X135999000Y-75055400D01*
X135999000Y-74053400D01*
X136307000Y-74053400D01*
X136307000Y-75055400D01*
X137184000Y-75055400D01*
X137336000Y-74903400D01*
X137336000Y-74388462D01*
X137243438Y-74164996D01*
X137072405Y-73993963D01*
X136848939Y-73901400D01*
X136459000Y-73901400D01*
X136307000Y-74053400D01*
X135999000Y-74053400D01*
X135847000Y-73901400D01*
X135457061Y-73901400D01*
X135233595Y-73993963D01*
X135062562Y-74164996D01*
X134970000Y-74388462D01*
X134970000Y-74689635D01*
X134941563Y-74546674D01*
X134821065Y-74366335D01*
X134640726Y-74245837D01*
X134428001Y-74203523D01*
X133777999Y-74203523D01*
X133565274Y-74245837D01*
X133384935Y-74366335D01*
X133289343Y-74509400D01*
X131309877Y-74509400D01*
X131309877Y-74225999D01*
X131267563Y-74013274D01*
X131147065Y-73832935D01*
X131129000Y-73820864D01*
X131129000Y-73792435D01*
X131142712Y-73723500D01*
X131129000Y-73654565D01*
X131129000Y-73654560D01*
X131088385Y-73450374D01*
X130933671Y-73218829D01*
X130875226Y-73179777D01*
X129108377Y-71412929D01*
X129108377Y-70397000D01*
X129085093Y-70279946D01*
X129018788Y-70180712D01*
X128919554Y-70114407D01*
X128802500Y-70091123D01*
X127102500Y-70091123D01*
X126985446Y-70114407D01*
X126886212Y-70180712D01*
X126819907Y-70279946D01*
X126796623Y-70397000D01*
X126796623Y-72097000D01*
X126819907Y-72214054D01*
X126886212Y-72313288D01*
X126985446Y-72379593D01*
X127102500Y-72402877D01*
X127895510Y-72402877D01*
X127952500Y-72414213D01*
X128009490Y-72402877D01*
X128118429Y-72402877D01*
X129089641Y-73374090D01*
X129074939Y-73368000D01*
X128685000Y-73368000D01*
X128533000Y-73520000D01*
X128533000Y-74522000D01*
X128553000Y-74522000D01*
X128553000Y-74830000D01*
X128533000Y-74830000D01*
X128533000Y-75832000D01*
X128683250Y-75982250D01*
X128542000Y-76123500D01*
X128542000Y-77125500D01*
X128562000Y-77125500D01*
X128562000Y-77433500D01*
X128542000Y-77433500D01*
X128542000Y-78435500D01*
X128694000Y-78587500D01*
X129083939Y-78587500D01*
X129307405Y-78494937D01*
X129478438Y-78323904D01*
X129571000Y-78100438D01*
X129571000Y-77799265D01*
X129599437Y-77942226D01*
X129719935Y-78122565D01*
X129900274Y-78243063D01*
X130112999Y-78285377D01*
X130736770Y-78285377D01*
X131072001Y-78620608D01*
X131072000Y-79130000D01*
X130803418Y-79130000D01*
X130792054Y-79122407D01*
X130675000Y-79099123D01*
X129225000Y-79099123D01*
X129107946Y-79122407D01*
X129089608Y-79134660D01*
X129015438Y-78955596D01*
X128844405Y-78784563D01*
X128620939Y-78692000D01*
X127306000Y-78692000D01*
X127154000Y-78844000D01*
X127154000Y-82396000D01*
X127174000Y-82396000D01*
X127174000Y-82704000D01*
X127154000Y-82704000D01*
X127154000Y-82724000D01*
X126846000Y-82724000D01*
X126846000Y-82704000D01*
X126826000Y-82704000D01*
X126826000Y-82396000D01*
X126846000Y-82396000D01*
X126846000Y-78844000D01*
X126694000Y-78692000D01*
X125379061Y-78692000D01*
X125155595Y-78784563D01*
X124984562Y-78955596D01*
X124910392Y-79134660D01*
X124892054Y-79122407D01*
X124775000Y-79099123D01*
X123617981Y-79099123D01*
X123837595Y-78879510D01*
X124462749Y-78879510D01*
X124511990Y-78889305D01*
X124561231Y-78879510D01*
X124561233Y-78879510D01*
X124707080Y-78850499D01*
X124872470Y-78739990D01*
X124900366Y-78698240D01*
X125313230Y-78285377D01*
X125937001Y-78285377D01*
X126149726Y-78243063D01*
X126330065Y-78122565D01*
X126450563Y-77942226D01*
X126492877Y-77729501D01*
X126492877Y-77585500D01*
X127205000Y-77585500D01*
X127205000Y-78100438D01*
X127297562Y-78323904D01*
X127468595Y-78494937D01*
X127692061Y-78587500D01*
X128082000Y-78587500D01*
X128234000Y-78435500D01*
X128234000Y-77433500D01*
X127357000Y-77433500D01*
X127205000Y-77585500D01*
X126492877Y-77585500D01*
X126492877Y-76829499D01*
X126450563Y-76616774D01*
X126330065Y-76436435D01*
X126149726Y-76315937D01*
X125937001Y-76273623D01*
X125286999Y-76273623D01*
X125074274Y-76315937D01*
X124893935Y-76436435D01*
X124773437Y-76616774D01*
X124731123Y-76829499D01*
X124731123Y-77453271D01*
X124669897Y-77514497D01*
X124669894Y-77514499D01*
X124439894Y-77744500D01*
X124442877Y-77729501D01*
X124442877Y-76829499D01*
X124400563Y-76616774D01*
X124280065Y-76436435D01*
X124099726Y-76315937D01*
X123887001Y-76273623D01*
X123236999Y-76273623D01*
X123024274Y-76315937D01*
X122843935Y-76436435D01*
X122723437Y-76616774D01*
X122681123Y-76829499D01*
X122681123Y-77453271D01*
X122619897Y-77514497D01*
X122619894Y-77514499D01*
X122006257Y-78128137D01*
X121964510Y-78156031D01*
X121936616Y-78197778D01*
X121854001Y-78321421D01*
X121815194Y-78516511D01*
X121824990Y-78565757D01*
X121824989Y-80385991D01*
X121815194Y-80435233D01*
X121824989Y-80484474D01*
X121824989Y-80484475D01*
X121854000Y-80630322D01*
X121964509Y-80795713D01*
X122006259Y-80823609D01*
X122147475Y-80964825D01*
X122094982Y-80986568D01*
X122001550Y-81080000D01*
X121293107Y-81080000D01*
X121285877Y-81072770D01*
X121285877Y-80448999D01*
X121243563Y-80236274D01*
X121123065Y-80055935D01*
X120942726Y-79935437D01*
X120730001Y-79893123D01*
X120079999Y-79893123D01*
X119867274Y-79935437D01*
X119686935Y-80055935D01*
X119566437Y-80236274D01*
X119538000Y-80379235D01*
X119538000Y-80078062D01*
X119445438Y-79854596D01*
X119274405Y-79683563D01*
X119050939Y-79591000D01*
X118661000Y-79591000D01*
X118509000Y-79743000D01*
X118509000Y-80745000D01*
X118529000Y-80745000D01*
X118529000Y-81053000D01*
X118509000Y-81053000D01*
X118509000Y-81073000D01*
X118201000Y-81073000D01*
X118201000Y-81053000D01*
X117324000Y-81053000D01*
X117172000Y-81205000D01*
X117172000Y-81689628D01*
X117032214Y-81689628D01*
X117039437Y-81682405D01*
X117132000Y-81458939D01*
X117132000Y-81069000D01*
X116980000Y-80917000D01*
X115978000Y-80917000D01*
X115978000Y-80937000D01*
X115670000Y-80937000D01*
X115670000Y-80917000D01*
X114668000Y-80917000D01*
X114516000Y-81069000D01*
X114516000Y-81458939D01*
X114608563Y-81682405D01*
X114779596Y-81853438D01*
X115003062Y-81946000D01*
X115304235Y-81946000D01*
X115161274Y-81974437D01*
X114980935Y-82094935D01*
X114860437Y-82275274D01*
X114818123Y-82487999D01*
X114818123Y-82828928D01*
X110835080Y-86811972D01*
X110634988Y-86512512D01*
X110122280Y-86169932D01*
X109670160Y-86080000D01*
X106864840Y-86080000D01*
X106412720Y-86169932D01*
X105900012Y-86512512D01*
X105867490Y-86561185D01*
X105867490Y-82794249D01*
X106337032Y-83172150D01*
X106988500Y-83363000D01*
X108113500Y-83363000D01*
X108113500Y-82430050D01*
X108421500Y-82430050D01*
X108421500Y-83363000D01*
X109546500Y-83363000D01*
X110197968Y-83172150D01*
X110726811Y-82746522D01*
X111052517Y-82150913D01*
X111073301Y-82052132D01*
X110965982Y-81784000D01*
X110067550Y-81784000D01*
X110067550Y-81476000D01*
X110965982Y-81476000D01*
X111073301Y-81207868D01*
X111052517Y-81109087D01*
X110726811Y-80513478D01*
X110197968Y-80087850D01*
X110127005Y-80067061D01*
X114516000Y-80067061D01*
X114516000Y-80457000D01*
X114668000Y-80609000D01*
X115670000Y-80609000D01*
X115670000Y-79732000D01*
X115978000Y-79732000D01*
X115978000Y-80609000D01*
X116980000Y-80609000D01*
X117132000Y-80457000D01*
X117132000Y-80078062D01*
X117172000Y-80078062D01*
X117172000Y-80593000D01*
X117324000Y-80745000D01*
X118201000Y-80745000D01*
X118201000Y-79743000D01*
X118049000Y-79591000D01*
X117659061Y-79591000D01*
X117435595Y-79683563D01*
X117264562Y-79854596D01*
X117172000Y-80078062D01*
X117132000Y-80078062D01*
X117132000Y-80067061D01*
X117039437Y-79843595D01*
X116868404Y-79672562D01*
X116644938Y-79580000D01*
X116130000Y-79580000D01*
X115978000Y-79732000D01*
X115670000Y-79732000D01*
X115518000Y-79580000D01*
X115003062Y-79580000D01*
X114779596Y-79672562D01*
X114608563Y-79843595D01*
X114516000Y-80067061D01*
X110127005Y-80067061D01*
X109546500Y-79897000D01*
X108421500Y-79897000D01*
X108421500Y-80829950D01*
X108113500Y-80829950D01*
X108113500Y-79897000D01*
X107425916Y-79897000D01*
X111946917Y-75376000D01*
X122748343Y-75376000D01*
X122843935Y-75519065D01*
X123024274Y-75639563D01*
X123236999Y-75681877D01*
X123887001Y-75681877D01*
X124099726Y-75639563D01*
X124280065Y-75519065D01*
X124400563Y-75338726D01*
X124429000Y-75195765D01*
X124429000Y-75496938D01*
X124521562Y-75720404D01*
X124692595Y-75891437D01*
X124916061Y-75984000D01*
X125306000Y-75984000D01*
X125458000Y-75832000D01*
X125458000Y-74830000D01*
X125766000Y-74830000D01*
X125766000Y-75832000D01*
X125918000Y-75984000D01*
X126307939Y-75984000D01*
X126531405Y-75891437D01*
X126702438Y-75720404D01*
X126795000Y-75496938D01*
X126795000Y-74982000D01*
X127196000Y-74982000D01*
X127196000Y-75496938D01*
X127288562Y-75720404D01*
X127459595Y-75891437D01*
X127672472Y-75979614D01*
X127468595Y-76064063D01*
X127297562Y-76235096D01*
X127205000Y-76458562D01*
X127205000Y-76973500D01*
X127357000Y-77125500D01*
X128234000Y-77125500D01*
X128234000Y-76123500D01*
X128083750Y-75973250D01*
X128225000Y-75832000D01*
X128225000Y-74830000D01*
X127348000Y-74830000D01*
X127196000Y-74982000D01*
X126795000Y-74982000D01*
X126643000Y-74830000D01*
X125766000Y-74830000D01*
X125458000Y-74830000D01*
X125438000Y-74830000D01*
X125438000Y-74522000D01*
X125458000Y-74522000D01*
X125458000Y-73520000D01*
X125766000Y-73520000D01*
X125766000Y-74522000D01*
X126643000Y-74522000D01*
X126795000Y-74370000D01*
X126795000Y-73855062D01*
X127196000Y-73855062D01*
X127196000Y-74370000D01*
X127348000Y-74522000D01*
X128225000Y-74522000D01*
X128225000Y-73520000D01*
X128073000Y-73368000D01*
X127683061Y-73368000D01*
X127459595Y-73460563D01*
X127288562Y-73631596D01*
X127196000Y-73855062D01*
X126795000Y-73855062D01*
X126702438Y-73631596D01*
X126531405Y-73460563D01*
X126307939Y-73368000D01*
X125918000Y-73368000D01*
X125766000Y-73520000D01*
X125458000Y-73520000D01*
X125306000Y-73368000D01*
X124916061Y-73368000D01*
X124692595Y-73460563D01*
X124521562Y-73631596D01*
X124429000Y-73855062D01*
X124429000Y-74156235D01*
X124400563Y-74013274D01*
X124280065Y-73832935D01*
X124262000Y-73820864D01*
X124262000Y-73387448D01*
X125260212Y-72389237D01*
X125299239Y-72397000D01*
X125525761Y-72397000D01*
X125861207Y-72330276D01*
X126241603Y-72076103D01*
X126495776Y-71695707D01*
X126585029Y-71247000D01*
X126495776Y-70798293D01*
X126241603Y-70417897D01*
X125861207Y-70163724D01*
X125525761Y-70097000D01*
X125299239Y-70097000D01*
X124963793Y-70163724D01*
X124583397Y-70417897D01*
X124329224Y-70798293D01*
X124270604Y-71092998D01*
X124170357Y-71092998D01*
X124280415Y-70868089D01*
X124028241Y-70358146D01*
X123600116Y-69983523D01*
X123251410Y-69839097D01*
X123026500Y-69950111D01*
X123026500Y-71093000D01*
X123046500Y-71093000D01*
X123046500Y-71401000D01*
X123026500Y-71401000D01*
X123026500Y-72543889D01*
X123086357Y-72573434D01*
X123057330Y-72592829D01*
X123018278Y-72651274D01*
X122902616Y-72824374D01*
X122848288Y-73097500D01*
X122862001Y-73166440D01*
X122862001Y-73820864D01*
X122843935Y-73832935D01*
X122748343Y-73976000D01*
X111725903Y-73976000D01*
X111656968Y-73962288D01*
X111588033Y-73976000D01*
X111588028Y-73976000D01*
X111383842Y-74016615D01*
X111152297Y-74171329D01*
X111113245Y-74229774D01*
X104721264Y-80621756D01*
X104662819Y-80660808D01*
X104508105Y-80892353D01*
X104467490Y-81096539D01*
X104467490Y-81096543D01*
X104453778Y-81165478D01*
X101975000Y-81165478D01*
X101975000Y-71625911D01*
X121464585Y-71625911D01*
X121716759Y-72135854D01*
X122144884Y-72510477D01*
X122493590Y-72654903D01*
X122718500Y-72543889D01*
X122718500Y-71401000D01*
X121574644Y-71401000D01*
X121464585Y-71625911D01*
X101975000Y-71625911D01*
X101975000Y-70868089D01*
X121464585Y-70868089D01*
X121574644Y-71093000D01*
X122718500Y-71093000D01*
X122718500Y-69950111D01*
X122493590Y-69839097D01*
X122144884Y-69983523D01*
X121716759Y-70358146D01*
X121464585Y-70868089D01*
X101975000Y-70868089D01*
X101975000Y-69882808D01*
X102034411Y-69545871D01*
X102188821Y-69278426D01*
X102425394Y-69079917D01*
X102731334Y-68968564D01*
X102886372Y-68955000D01*
X140937192Y-68955000D01*
X141274129Y-69014411D01*
G36*
X117172000Y-83196500D02*
X117324000Y-83348500D01*
X118201000Y-83348500D01*
X118201000Y-83328500D01*
X118509000Y-83328500D01*
X118509000Y-83348500D01*
X118529000Y-83348500D01*
X118529000Y-83656500D01*
X118509000Y-83656500D01*
X118509000Y-84658500D01*
X118661000Y-84810500D01*
X119050939Y-84810500D01*
X119274405Y-84717937D01*
X119445438Y-84546904D01*
X119538000Y-84323438D01*
X119538000Y-84022265D01*
X119566437Y-84165226D01*
X119686935Y-84345565D01*
X119867274Y-84466063D01*
X120079999Y-84508377D01*
X120730001Y-84508377D01*
X120857867Y-84482943D01*
X120521770Y-84819040D01*
X120480020Y-84846936D01*
X120369511Y-85012327D01*
X120350178Y-85109520D01*
X120330705Y-85207416D01*
X120340500Y-85256657D01*
X120340500Y-85353069D01*
X120177774Y-85385437D01*
X119997435Y-85505935D01*
X119985364Y-85524000D01*
X119155636Y-85524000D01*
X119143565Y-85505935D01*
X118963226Y-85385437D01*
X118750501Y-85343123D01*
X117850499Y-85343123D01*
X117637774Y-85385437D01*
X117457435Y-85505935D01*
X117445364Y-85524000D01*
X116552136Y-85524000D01*
X116540065Y-85505935D01*
X116359726Y-85385437D01*
X116147001Y-85343123D01*
X115246999Y-85343123D01*
X115034274Y-85385437D01*
X114853935Y-85505935D01*
X114733437Y-85686274D01*
X114691123Y-85898999D01*
X114691123Y-86549001D01*
X114733437Y-86761726D01*
X114853935Y-86942065D01*
X115034274Y-87062563D01*
X115177235Y-87091000D01*
X114876062Y-87091000D01*
X114652596Y-87183562D01*
X114481563Y-87354595D01*
X114389000Y-87578061D01*
X114389000Y-87968000D01*
X114541000Y-88120000D01*
X115543000Y-88120000D01*
X115543000Y-88100000D01*
X115851000Y-88100000D01*
X115851000Y-88120000D01*
X116853000Y-88120000D01*
X117005000Y-87968000D01*
X117005000Y-87578061D01*
X116912437Y-87354595D01*
X116741404Y-87183562D01*
X116517938Y-87091000D01*
X116216765Y-87091000D01*
X116359726Y-87062563D01*
X116540065Y-86942065D01*
X116552136Y-86924000D01*
X117445364Y-86924000D01*
X117457435Y-86942065D01*
X117637774Y-87062563D01*
X117850499Y-87104877D01*
X118750501Y-87104877D01*
X118963226Y-87062563D01*
X119143565Y-86942065D01*
X119155636Y-86924000D01*
X119985364Y-86924000D01*
X119997435Y-86942065D01*
X120177774Y-87062563D01*
X120390499Y-87104877D01*
X121290501Y-87104877D01*
X121503226Y-87062563D01*
X121683565Y-86942065D01*
X121804063Y-86761726D01*
X121824989Y-86656523D01*
X121824989Y-87382404D01*
X121664318Y-87543075D01*
X121503226Y-87435437D01*
X121290501Y-87393123D01*
X120390499Y-87393123D01*
X120177774Y-87435437D01*
X119997435Y-87555935D01*
X119985364Y-87574000D01*
X119155636Y-87574000D01*
X119143565Y-87555935D01*
X118963226Y-87435437D01*
X118750501Y-87393123D01*
X117850499Y-87393123D01*
X117637774Y-87435437D01*
X117457435Y-87555935D01*
X117336937Y-87736274D01*
X117294623Y-87948999D01*
X117294623Y-88599001D01*
X117336937Y-88811726D01*
X117457435Y-88992065D01*
X117637774Y-89112563D01*
X117850499Y-89154877D01*
X118191428Y-89154877D01*
X118226501Y-89189949D01*
X118226501Y-89695864D01*
X118208435Y-89707935D01*
X118087937Y-89888274D01*
X118045623Y-90100999D01*
X118045623Y-90441929D01*
X118013180Y-90474372D01*
X108235513Y-90474372D01*
X106941140Y-89180000D01*
X109670160Y-89180000D01*
X110122280Y-89090068D01*
X110634988Y-88747488D01*
X110746899Y-88580000D01*
X114389000Y-88580000D01*
X114389000Y-88969939D01*
X114481563Y-89193405D01*
X114652596Y-89364438D01*
X114876062Y-89457000D01*
X115391000Y-89457000D01*
X115543000Y-89305000D01*
X115543000Y-88428000D01*
X115851000Y-88428000D01*
X115851000Y-89305000D01*
X116003000Y-89457000D01*
X116517938Y-89457000D01*
X116741404Y-89364438D01*
X116912437Y-89193405D01*
X117005000Y-88969939D01*
X117005000Y-88580000D01*
X116853000Y-88428000D01*
X115851000Y-88428000D01*
X115543000Y-88428000D01*
X114541000Y-88428000D01*
X114389000Y-88580000D01*
X110746899Y-88580000D01*
X110913944Y-88330000D01*
X110938065Y-88330000D01*
X111007000Y-88343712D01*
X111075935Y-88330000D01*
X111075940Y-88330000D01*
X111280126Y-88289385D01*
X111511671Y-88134671D01*
X111550725Y-88076224D01*
X115818449Y-83808500D01*
X117172000Y-83808500D01*
X117172000Y-84323438D01*
X117264562Y-84546904D01*
X117435595Y-84717937D01*
X117659061Y-84810500D01*
X118049000Y-84810500D01*
X118201000Y-84658500D01*
X118201000Y-83656500D01*
X117324000Y-83656500D01*
X117172000Y-83808500D01*
X115818449Y-83808500D01*
X115933072Y-83693877D01*
X116274001Y-83693877D01*
X116486726Y-83651563D01*
X116667065Y-83531065D01*
X116787563Y-83350726D01*
X116829877Y-83138001D01*
X116829877Y-82689628D01*
X117172000Y-82689628D01*
X117172000Y-83196500D01*
X117172000Y-83196500D01*
G37*
X117172000Y-83196500D02*
X117324000Y-83348500D01*
X118201000Y-83348500D01*
X118201000Y-83328500D01*
X118509000Y-83328500D01*
X118509000Y-83348500D01*
X118529000Y-83348500D01*
X118529000Y-83656500D01*
X118509000Y-83656500D01*
X118509000Y-84658500D01*
X118661000Y-84810500D01*
X119050939Y-84810500D01*
X119274405Y-84717937D01*
X119445438Y-84546904D01*
X119538000Y-84323438D01*
X119538000Y-84022265D01*
X119566437Y-84165226D01*
X119686935Y-84345565D01*
X119867274Y-84466063D01*
X120079999Y-84508377D01*
X120730001Y-84508377D01*
X120857867Y-84482943D01*
X120521770Y-84819040D01*
X120480020Y-84846936D01*
X120369511Y-85012327D01*
X120350178Y-85109520D01*
X120330705Y-85207416D01*
X120340500Y-85256657D01*
X120340500Y-85353069D01*
X120177774Y-85385437D01*
X119997435Y-85505935D01*
X119985364Y-85524000D01*
X119155636Y-85524000D01*
X119143565Y-85505935D01*
X118963226Y-85385437D01*
X118750501Y-85343123D01*
X117850499Y-85343123D01*
X117637774Y-85385437D01*
X117457435Y-85505935D01*
X117445364Y-85524000D01*
X116552136Y-85524000D01*
X116540065Y-85505935D01*
X116359726Y-85385437D01*
X116147001Y-85343123D01*
X115246999Y-85343123D01*
X115034274Y-85385437D01*
X114853935Y-85505935D01*
X114733437Y-85686274D01*
X114691123Y-85898999D01*
X114691123Y-86549001D01*
X114733437Y-86761726D01*
X114853935Y-86942065D01*
X115034274Y-87062563D01*
X115177235Y-87091000D01*
X114876062Y-87091000D01*
X114652596Y-87183562D01*
X114481563Y-87354595D01*
X114389000Y-87578061D01*
X114389000Y-87968000D01*
X114541000Y-88120000D01*
X115543000Y-88120000D01*
X115543000Y-88100000D01*
X115851000Y-88100000D01*
X115851000Y-88120000D01*
X116853000Y-88120000D01*
X117005000Y-87968000D01*
X117005000Y-87578061D01*
X116912437Y-87354595D01*
X116741404Y-87183562D01*
X116517938Y-87091000D01*
X116216765Y-87091000D01*
X116359726Y-87062563D01*
X116540065Y-86942065D01*
X116552136Y-86924000D01*
X117445364Y-86924000D01*
X117457435Y-86942065D01*
X117637774Y-87062563D01*
X117850499Y-87104877D01*
X118750501Y-87104877D01*
X118963226Y-87062563D01*
X119143565Y-86942065D01*
X119155636Y-86924000D01*
X119985364Y-86924000D01*
X119997435Y-86942065D01*
X120177774Y-87062563D01*
X120390499Y-87104877D01*
X121290501Y-87104877D01*
X121503226Y-87062563D01*
X121683565Y-86942065D01*
X121804063Y-86761726D01*
X121824989Y-86656523D01*
X121824989Y-87382404D01*
X121664318Y-87543075D01*
X121503226Y-87435437D01*
X121290501Y-87393123D01*
X120390499Y-87393123D01*
X120177774Y-87435437D01*
X119997435Y-87555935D01*
X119985364Y-87574000D01*
X119155636Y-87574000D01*
X119143565Y-87555935D01*
X118963226Y-87435437D01*
X118750501Y-87393123D01*
X117850499Y-87393123D01*
X117637774Y-87435437D01*
X117457435Y-87555935D01*
X117336937Y-87736274D01*
X117294623Y-87948999D01*
X117294623Y-88599001D01*
X117336937Y-88811726D01*
X117457435Y-88992065D01*
X117637774Y-89112563D01*
X117850499Y-89154877D01*
X118191428Y-89154877D01*
X118226501Y-89189949D01*
X118226501Y-89695864D01*
X118208435Y-89707935D01*
X118087937Y-89888274D01*
X118045623Y-90100999D01*
X118045623Y-90441929D01*
X118013180Y-90474372D01*
X108235513Y-90474372D01*
X106941140Y-89180000D01*
X109670160Y-89180000D01*
X110122280Y-89090068D01*
X110634988Y-88747488D01*
X110746899Y-88580000D01*
X114389000Y-88580000D01*
X114389000Y-88969939D01*
X114481563Y-89193405D01*
X114652596Y-89364438D01*
X114876062Y-89457000D01*
X115391000Y-89457000D01*
X115543000Y-89305000D01*
X115543000Y-88428000D01*
X115851000Y-88428000D01*
X115851000Y-89305000D01*
X116003000Y-89457000D01*
X116517938Y-89457000D01*
X116741404Y-89364438D01*
X116912437Y-89193405D01*
X117005000Y-88969939D01*
X117005000Y-88580000D01*
X116853000Y-88428000D01*
X115851000Y-88428000D01*
X115543000Y-88428000D01*
X114541000Y-88428000D01*
X114389000Y-88580000D01*
X110746899Y-88580000D01*
X110913944Y-88330000D01*
X110938065Y-88330000D01*
X111007000Y-88343712D01*
X111075935Y-88330000D01*
X111075940Y-88330000D01*
X111280126Y-88289385D01*
X111511671Y-88134671D01*
X111550725Y-88076224D01*
X115818449Y-83808500D01*
X117172000Y-83808500D01*
X117172000Y-84323438D01*
X117264562Y-84546904D01*
X117435595Y-84717937D01*
X117659061Y-84810500D01*
X118049000Y-84810500D01*
X118201000Y-84658500D01*
X118201000Y-83656500D01*
X117324000Y-83656500D01*
X117172000Y-83808500D01*
X115818449Y-83808500D01*
X115933072Y-83693877D01*
X116274001Y-83693877D01*
X116486726Y-83651563D01*
X116667065Y-83531065D01*
X116787563Y-83350726D01*
X116829877Y-83138001D01*
X116829877Y-82689628D01*
X117172000Y-82689628D01*
X117172000Y-83196500D01*
G36*
X130124000Y-83632500D02*
X130104000Y-83632500D01*
X130104000Y-83639123D01*
X129796000Y-83639123D01*
X129796000Y-83632500D01*
X129776000Y-83632500D01*
X129776000Y-83410877D01*
X130124000Y-83410877D01*
X130124000Y-83632500D01*
X130124000Y-83632500D01*
G37*
X130124000Y-83632500D02*
X130104000Y-83632500D01*
X130104000Y-83639123D01*
X129796000Y-83639123D01*
X129796000Y-83632500D01*
X129776000Y-83632500D01*
X129776000Y-83410877D01*
X130124000Y-83410877D01*
X130124000Y-83632500D01*
G36*
X108421500Y-81476000D02*
X109467450Y-81476000D01*
X109467451Y-81784000D01*
X108421500Y-81784000D01*
X108421500Y-81829950D01*
X108113500Y-81829950D01*
X108113500Y-81784000D01*
X108093500Y-81784000D01*
X108093500Y-81476000D01*
X108113500Y-81476000D01*
X108113500Y-81430050D01*
X108421500Y-81430050D01*
X108421500Y-81476000D01*
X108421500Y-81476000D01*
G37*
X108421500Y-81476000D02*
X109467450Y-81476000D01*
X109467451Y-81784000D01*
X108421500Y-81784000D01*
X108421500Y-81829950D01*
X108113500Y-81829950D01*
X108113500Y-81784000D01*
X108093500Y-81784000D01*
X108093500Y-81476000D01*
X108113500Y-81476000D01*
X108113500Y-81430050D01*
X108421500Y-81430050D01*
X108421500Y-81476000D01*
G04 #@! TD*
M02*
