M48
;DRILL file {KiCad (5.0.2)-1} date 8/11/2019 11:26:26 PM
;FORMAT={-:-/ absolute / inch / decimal}
FMAT,2
INCH,TZ
T1C0.0118
T2C0.0157
T3C0.0394
T4C0.0472
%
G90
G05
T1
X5.1725Y-3.2425
X5.1725Y-3.2725
X5.1725Y-3.3025
T2
X4.4825Y-3.45
X4.4825Y-3.5175
X4.4925Y-3.2225
X4.545Y-3.33
X4.555Y-3.53
X4.56Y-3.1175
X4.605Y-3.33
X4.6225Y-3.1175
X4.6825Y-3.1175
X4.7725Y-3.6525
X4.8225Y-3.2118
X4.825Y-3.545
X4.825Y-3.605
X4.94Y-3.545
X5.Y-2.9
X5.Y-2.95
X5.Y-3.
X5.Y-3.05
X5.0025Y-3.525
X5.31Y-2.896
X5.365Y-2.896
X5.3725Y-3.3085
X5.4075Y-3.2135
X5.4075Y-3.2635
X5.4275Y-2.926
X5.4275Y-2.981
X5.4725Y-3.001
X5.535Y-3.0185
T3
X4.8375Y-2.805
X4.9375Y-2.805
X5.0375Y-2.805
T4
X4.3038Y-3.2138G85X4.2212Y-3.2138
G05
X4.3117Y-3.45G85X4.2133Y-3.45
G05
T0
M30
